{
.appVersion = "3260";
.formatVersion = 3;
customParameters = (
{
name = vendorID;
value = CYPE;
},
{
name = panose;
value = (
0,
0,
0,
0,
0,
0,
0,
0,
0,
0
);
},
{
name = unicodeRanges;
value = (
0,
1,
31,
35,
38,
45,
75
);
},
{
name = fsType;
value = (
);
},
{
name = glyphOrder;
value = (
.notdef,
uni0000,
uni0009,
space,
exclam,
quotedbl,
quotesingle,
parenleft,
parenright,
comma,
hyphen,
period,
slash,
zero,
one,
two,
three,
four,
five,
six,
seven,
eight,
nine,
colon,
semicolon,
question,
ellipsis,
guilsinglleft,
quoteleft,
quoteright,
quotedblleft,
quotedblright,
endash,
emdash,
guilsinglright,
uni00A0,
guillemotleft,
uni00AD,
guillemotright,
uni1200,
uni1201,
uni1202,
uni1203,
uni1204,
uni1205,
uni1206,
uni1207,
uni1208,
uni1209,
uni120A,
uni120B,
uni120C,
uni120D,
uni120E,
uni120F,
uni1210,
uni1211,
uni1212,
uni1213,
uni1214,
uni1215,
uni1216,
uni1217,
uni1218,
uni1219,
uni121A,
uni121B,
uni121C,
uni121D,
uni121E,
uni121F,
uni1220,
uni1221,
uni1222,
uni1223,
uni1224,
uni1225,
uni1226,
uni1227,
uni1228,
uni1229,
uni122A,
uni122B,
uni122C,
uni122D,
uni122E,
uni122F,
uni1230,
uni1231,
uni1232,
uni1233,
uni1234,
uni1235,
uni1236,
uni1237,
uni1238,
uni1239,
uni123A,
uni123B,
uni123C,
uni123D,
uni123E,
uni123F,
uni1240,
uni1241,
uni1242,
uni1243,
uni1244,
uni1245,
uni1246,
uni1247,
uni1248,
uni124A,
uni124B,
uni124C,
uni124D,
uni1250,
uni1251,
uni1252,
uni1253,
uni1254,
uni1255,
uni1256,
uni1258,
uni125A,
uni125B,
uni125C,
uni125D,
uni1260,
uni1261,
uni1262,
uni1263,
uni1264,
uni1265,
uni1266,
uni1267,
uni1268,
uni1269,
uni126A,
uni126B,
uni126C,
uni126D,
uni126E,
uni126F,
uni1270,
uni1271,
uni1272,
uni1273,
uni1274,
uni1275,
uni1276,
uni1277,
uni1278,
uni1279,
uni127A,
uni127B,
uni127C,
uni127D,
uni127E,
uni127F,
uni1280,
uni1281,
uni1282,
uni1283,
uni1284,
uni1285,
uni1286,
uni1287,
uni1288,
uni128A,
uni128B,
uni128C,
uni128D,
uni1290,
uni1291,
uni1292,
uni1293,
uni1294,
uni1295,
uni1296,
uni1297,
uni1298,
uni1299,
uni129A,
uni129B,
uni129C,
uni129D,
uni129E,

glyphs = (
{
glyphname = .notdef;
lastChange = "2024-11-17 05:54:51 +0000";
layers = (
{
hints = (
{
horizontal = 1;
place = (700,50);
type = Stem;
},
{
horizontal = 1;
place = (0,50);
type = Stem;
},
{
place = (400,50);
type = Stem;
},
{
place = (50,50);
type = Stem;
}
);
layerId = m01;
shapes = (
{
closed = 1;
nodes = (
(450,0,l),
(450,750,l),
(50,750,l),
(50,0,l)
);
},
{
closed = 1;
nodes = (
(400,50,l),
(100,50,l),
(100,700,l),
(400,700,l)
);
}
);
width = 500;
}
);
note = .notdef;
},
{
glyphname = exclam;
layers = (
{
hints = (
{
horizontal = 1;
place = (-10,21);
target = up;
type = BottomGhost;
},
{
place = (111,78);
type = Stem;
}
);
layerId = m01;
shapes = (
{
closed = 1;
nodes = (
(217,86,l),
(122,128,l),
(80,33,l),
(175,-10,l)
);
},
{
closed = 1;
nodes = (
(183,194,l),
(196,639,l),
(105,629,l),
(118,184,l)
);
}
);
width = 297;
}
);
note = exclam;
unicode = 33;
},
{
glyphname = quotedbl;
layers = (
{
hints = (
{
horizontal = 1;
place = (434,205);
type = Stem;
},
{
place = (246,78);
type = Stem;
},
{
place = (66,78);
type = Stem;
}
);
layerId = m01;
shapes = (
{
closed = 1;
nodes = (
(138,444,l),
(151,639,l),
(60,629,l),
(73,434,l)
);
},
{
closed = 1;
nodes = (
(318,444,l),
(331,639,l),
(240,629,l),
(253,434,l)
);
}
);
width = 391;
}
);
note = quotedbl;
unicode = 34;
},
{
glyphname = quotesingle;
layers = (
{
hints = (
{
horizontal = 1;
place = (434,205);
type = Stem;
},
{
place = (66,78);
type = Stem;
}
);
layerId = m01;
shapes = (
{
closed = 1;
nodes = (
(138,444,l),
(151,639,l),
(60,629,l),
(73,434,l)
);
}
);
width = 211;
}
);
note = quotesingle;
unicode = 39;
},
{
glyphname = parenleft;
layers = (
{
hints = (
{
horizontal = 1;
place = (719,-20);
target = down;
type = TopGhost;
},
{
place = (60,92);
type = Stem;
}
);
layerId = m01;
shapes = (
{
closed = 1;
nodes = (
(196,719,l),
(137,638,o),
(60,517,o),
(60,327,cs),
(60,137,o),
(137,16,o),
(196,-65,c),
(253,-30,l),
(206,49,o),
(152,166,o),
(152,327,cs),
(152,488,o),
(206,605,o),
(253,684,c)
);
}
);
width = 293;
}
);
note = parenleft;
unicode = 40;
},
{
glyphname = parenright;
layers = (
{
hints = (
{
horizontal = 1;
place = (719,-20);
target = down;
type = TopGhost;
},
{
place = (141,92);
type = Stem;
}
);
layerId = m01;
shapes = (
{
closed = 1;
nodes = (
(40,684,l),
(87,605,o),
(141,488,o),
(141,327,cs),
(141,166,o),
(87,49,o),
(40,-30,c),
(97,-65,l),
(156,16,o),
(233,137,o),
(233,327,cs),
(233,517,o),
(156,638,o),
(97,719,c)
);
}
);
width = 293;
}
);
note = parenright;
unicode = 41;
},
{
glyphname = comma;
layers = (
{
hints = (
{
horizontal = 1;
place = (-152,280);
type = Stem;
},
{
place = (53,144);
type = Stem;
}
);
layerId = m01;
shapes = (
{
closed = 1;
nodes = (
(91,-152,l),
(197,86,l),
(102,128,l),
(60,33,l),
(102,13,l),
(53,-135,l)
);
}
);
width = 257;
}
);
note = comma;
unicode = 44;
},
{
glyphname = hyphen;
layers = (
{
hints = (
{
horizontal = 1;
place = (288,73);
type = Stem;
},
{
horizontal = 1;
place = (276,73);
type = Stem;
},
{
place = (20,283);
type = Stem;
}
);
layerId = m01;
shapes = (
{
closed = 1;
nodes = (
(303,351,l),
(287,356,o),
(264,361,o),
(231,361,cs),
(192,361,o),
(148,349,o),
(107,349,cs),
(78,349,o),
(59,352,o),
(37,358,c),
(20,286,l),
(36,281,o),
(59,276,o),
(92,276,cs),
(131,276,o),
(175,288,o),
(216,288,cs),
(245,288,o),
(264,285,o),
(286,279,c)
);
}
);
width = 323;
}
);
note = hyphen;
unicode = 45;
},
{
glyphname = period;
layers = (
{
hints = (
{
horizontal = 1;
place = (-10,21);
target = up;
type = BottomGhost;
},
{
place = (60,137);
type = Stem;
}
);
layerId = m01;
shapes = (
{
closed = 1;
nodes = (
(155,-10,l),
(197,86,l),
(102,128,l),
(60,33,l)
);
}
);
width = 257;
}
);
note = period;
unicode = 46;
},
{
glyphname = slash;
layers = (
{
hints = (
{
horizontal = 1;
place = (-47,732);
type = Stem;
},
{
place = (10,380);
type = Stem;
}
);
layerId = m01;
shapes = (
{
closed = 1;
nodes = (
(103,-47,l),
(390,685,l),
(297,685,l),
(10,-47,l)
);
}
);
width = 425;
}
);
note = slash;
unicode = 47;
},
{
glyphname = zero;
layers = (
{
hints = (
{
horizontal = 1;
place = (509,75);
type = Stem;
},
{
horizontal = 1;
place = (-8,75);
type = Stem;
},
{
place = (373,91);
type = Stem;
},
{
place = (45,91);
type = Stem;
}
);
layerId = m01;
shapes = (
{
closed = 1;
nodes = (
(45,95,o),
(102,-8,o),
(251,-8,cs),
(381,-8,o),
(464,103,o),
(464,309,cs),
(464,491,o),
(409,584,o),
(263,584,cs),
(133,584,o),
(45,483,o),
(45,277,cs)
);
},
{
closed = 1;
nodes = (
(136,429,o),
(176,509,o),
(262,509,cs),
(335,509,o),
(373,457,o),
(373,299,cs),
(373,157,o),
(338,67,o),
(252,67,cs),
(176,67,o),
(136,129,o),
(136,281,cs)
);
}
);
width = 497;
}
);
note = zero;
unicode = 48;
},
{
glyphname = one;
layers = (
{
hints = (
{
horizontal = 1;
place = (2,582);
type = Stem;
},
{
place = (123,86);
type = Stem;
}
);
layerId = m01;
shapes = (
{
closed = 1;
nodes = (
(43,398,l),
(89,406,o),
(125,438,o),
(144,462,c),
(141,348,o),
(123,184,o),
(123,99,cs),
(123,47,o),
(132,18,o),
(140,2,c),
(221,28,l),
(216,41,o),
(209,66,o),
(209,111,cs),
(209,197,o),
(230,357,o),
(230,479,cs),
(230,532,o),
(220,566,o),
(212,584,c),
(142,575,l),
(146,519,o),
(81,482,o),
(27,470,c)
);
}
);
width = 279;
}
);
note = one;
unicode = 49;
},
{
glyphname = two;
layers = (
{
hints = (
{
horizontal = 1;
place = (509,75);
type = Stem;
},
{
horizontal = 1;
place = (14,76);
type = Stem;
},
{
horizontal = 1;
place = (0,21);
target = up;
type = BottomGhost;
},
{
place = (310,94);
type = Stem;
}
);
layerId = m01;
shapes = (
{
closed = 1;
nodes = (
(39,65,l),
(59,0,l),
(123,8,o),
(187,14,o),
(250,14,cs),
(305,14,o),
(359,10,o),
(413,0,c),
(435,68,l),
(394,82,o),
(336,90,o),
(276,90,cs),
(226,90,o),
(190,85,o),
(163,81,c),
(308,199,o),
(404,291,o),
(404,410,cs),
(404,523,o),
(332,584,o),
(221,584,cs),
(144,584,o),
(88,562,o),
(35,510,c),
(88,449,l),
(124,488,o),
(155,509,o),
(207,509,cs),
(259,509,o),
(310,477,o),
(310,402,cs),
(310,308,o),
(255,267,o),
(69,93,cs)
);
}
);
width = 477;
}
);
note = two;
unicode = 50;
},
{
glyphname = three;
layers = (
{
hints = (
{
horizontal = 1;
place = (497,71);
type = Stem;
},
{
horizontal = 1;
place = (-10,75);
type = Stem;
},
{
place = (336,95);
type = Stem;
}
);
layerId = m01;
shapes = (
{
closed = 1;
nodes = (
(155,322,l),
(263,300,o),
(336,260,o),
(336,176,cs),
(336,111,o),
(284,65,o),
(207,65,cs),
(155,65,o),
(101,87,o),
(72,102,c),
(36,31,l),
(86,5,o),
(145,-10,o),
(207,-10,cs),
(316,-10,o),
(431,52,o),
(431,183,cs),
(431,267,o),
(376,326,o),
(283,358,c),
(427,519,l),
(407,584,l),
(367,578,o),
(303,568,o),
(247,568,cs),
(179,568,o),
(128,574,o),
(73,584,c),
(51,516,l),
(89,502,o),
(144,497,o),
(200,497,cs),
(246,497,o),
(284,500,o),
(309,504,c)
);
}
);
width = 472;
}
);
note = three;
unicode = 51;
},
{
glyphname = four;
layers = (
{
hints = (
{
horizontal = 1;
place = (151,72);
type = Stem;
},
{
horizontal = 1;
place = (145,75);
type = Stem;
},
{
place = (293,78);
type = Stem;
},
{
place = (286,82);
type = Stem;
},
{
place = (141,91);
type = Stem;
}
);
layerId = m01;
shapes = (
{
closed = 1;
nodes = (
(377,28,l),
(372,41,o),
(368,66,o),
(368,111,cs),
(368,120,o),
(368,133,o),
(369,145,c),
(394,145,o),
(420,139,o),
(445,134,c),
(467,202,l),
(441,211,o),
(406,217,o),
(371,220,c),
(371,272,o),
(366,306,o),
(358,324,c),
(279,310,l),
(283,297,o),
(291,270,o),
(293,223,c),
(232,222,o),
(163,218,o),
(130,215,c),
(186,266,o),
(232,366,o),
(232,466,cs),
(232,504,o),
(227,548,o),
(206,584,c),
(125,547,l),
(134,526,o),
(141,490,o),
(141,456,cs),
(141,358,o),
(103,281,o),
(11,199,c),
(31,134,l),
(101,141,o),
(174,151,o),
(239,151,cs),
(252,151,o),
(276,151,o),
(288,150,c),
(287,132,o),
(286,112,o),
(286,99,cs),
(286,47,o),
(292,18,o),
(300,2,c)
);
}
);
width = 488;
}
);
note = four;
unicode = 52;
},
{
glyphname = five;
layers = (
{
hints = (
{
horizontal = 1;
place = (497,74);
type = Stem;
},
{
horizontal = 1;
place = (322,70);
type = Stem;
},
{
horizontal = 1;
place = (-10,75);
type = Stem;
},
{
place = (347,94);
type = Stem;
},
{
place = (106,85);
type = Stem;
}
);
layerId = m01;
shapes = (
{
closed = 1;
nodes = (
(101,322,l),
(262,322,o),
(347,283,o),
(347,191,cs),
(347,108,o),
(296,65,o),
(218,65,cs),
(162,65,o),
(115,90,o),
(88,123,c),
(31,59,l),
(77,15,o),
(141,-10,o),
(213,-10,cs),
(341,-10,o),
(441,59,o),
(441,195,cs),
(441,300,o),
(369,380,o),
(190,392,c),
(194,504,l),
(219,500,o),
(260,497,o),
(306,497,cs),
(350,497,o),
(395,502,o),
(425,516,c),
(403,584,l),
(363,577,o),
(304,571,o),
(248,571,cs),
(201,571,o),
(145,578,o),
(112,584,c)
);
}
);
width = 464;
}
);
note = five;
unicode = 53;
},
{
glyphname = six;
layers = (
{
hints = (
{
horizontal = 1;
place = (331,71);
type = Stem;
},
{
horizontal = 1;
place = (-10,75);
type = Stem;
},
{
place = (374,91);
type = Stem;
},
{
place = (22,91);
type = Stem;
}
);
layerId = m01;
shapes = (
{
closed = 1;
nodes = (
(22,87,o),
(101,-10,o),
(243,-10,cs),
(374,-10,o),
(465,81,o),
(465,193,cs),
(465,302,o),
(390,393,o),
(171,402,c),
(204,449,o),
(247,489,o),
(291,523,c),
(236,584,l),
(131,519,o),
(22,367,o),
(22,210,cs)
);
},
{
closed = 1;
nodes = (
(165,65,o),
(113,124,o),
(113,215,cs),
(113,258,o),
(120,296,o),
(134,331,c),
(301,330,o),
(374,280,o),
(374,193,cs),
(374,121,o),
(326,65,o),
(249,65,cs)
);
}
);
width = 488;
}
);
note = six;
unicode = 54;
},
{
glyphname = seven;
layers = (
{
hints = (
{
horizontal = 1;
place = (497,73);
type = Stem;
},
{
horizontal = 1;
place = (-1,21);
target = up;
type = BottomGhost;
},
{
place = (323,90);
type = Stem;
},
{
place = (130,93);
type = Stem;
}
);
layerId = m01;
shapes = (
{
closed = 1;
nodes = (
(23,516,l),
(61,502,o),
(126,497,o),
(182,497,cs),
(228,497,o),
(298,500,o),
(323,504,c),
(323,416,o),
(130,200,o),
(130,96,cs),
(130,50,o),
(151,18,o),
(164,-1,c),
(249,25,l),
(229,58,o),
(223,76,o),
(223,98,cs),
(223,216,o),
(413,361,o),
(413,530,cs),
(413,544,o),
(405,570,o),
(399,584,c),
(359,578,o),
(276,570,o),
(220,570,cs),
(152,570,o),
(99,573,o),
(45,584,c)
);
}
);
width = 451;
}
);
note = seven;
unicode = 55;
},
{
glyphname = eight;
layers = (
{
hints = (
{
horizontal = 1;
place = (512,72);
type = Stem;
},
{
horizontal = 1;
place = (296,64);
type = Stem;
},
{
horizontal = 1;
place = (-10,75);
type = Stem;
},
{
place = (363,91);
type = Stem;
},
{
place = (321,88);
type = Stem;
},
{
place = (94,88);
type = Stem;
},
{
place = (23,91);
type = Stem;
}
);
layerId = m01;
shapes = (
{
closed = 1;
nodes = (
(23,63,o),
(94,-10,o),
(238,-10,cs),
(374,-10,o),
(454,85,o),
(454,189,cs),
(454,267,o),
(411,322,o),
(347,342,c),
(393,364,o),
(409,408,o),
(409,453,cs),
(409,540,o),
(348,584,o),
(257,584,cs),
(161,584,o),
(94,528,o),
(94,442,cs),
(94,394,o),
(114,363,o),
(139,342,c),
(59,309,o),
(23,237,o),
(23,174,cs)
);
},
{
closed = 1;
nodes = (
(162,65,o),
(114,102,o),
(114,175,cs),
(114,231,o),
(139,296,o),
(238,296,cs),
(319,296,o),
(363,251,o),
(363,180,cs),
(363,107,o),
(316,65,o),
(238,65,cs)
);
},
{
closed = 1;
nodes = (
(182,483,o),
(213,512,o),
(251,512,cs),
(288,512,o),
(321,490,o),
(321,439,cs),
(321,406,o),
(304,360,o),
(251,360,cs),
(205,360,o),
(182,390,o),
(182,436,cs)
);
}
);
width = 476;
}
);
note = eight;
unicode = 56;
},
{
glyphname = nine;
layers = (
{
hints = (
{
horizontal = 1;
place = (509,75);
type = Stem;
},
{
horizontal = 1;
place = (173,70);
type = Stem;
},
{
horizontal = 1;
place = (-10,21);
target = up;
type = BottomGhost;
},
{
place = (357,91);
type = Stem;
},
{
place = (25,91);
type = Stem;
}
);
layerId = m01;
shapes = (
{
closed = 1;
nodes = (
(194,-10,l),
(320,63,o),
(448,207,o),
(448,364,cs),
(448,487,o),
(373,584,o),
(237,584,cs),
(112,584,o),
(25,493,o),
(25,381,cs),
(25,273,o),
(90,185,o),
(286,173,c),
(246,125,o),
(193,85,o),
(139,51,c)
);
},
{
closed = 1;
nodes = (
(116,453,o),
(160,509,o),
(231,509,cs),
(309,509,o),
(357,450,o),
(357,359,cs),
(357,316,o),
(347,277,o),
(331,243,c),
(181,245,o),
(116,295,o),
(116,381,cs)
);
}
);
width = 477;
}
);
note = nine;
unicode = 57;
},
{
glyphname = colon;
layers = (
{
hints = (
{
horizontal = 1;
place = (-10,21);
target = up;
type = BottomGhost;
},
{
place = (35,137);
type = Stem;
}
);
layerId = m01;
shapes = (
{
closed = 1;
nodes = (
(130,-10,l),
(172,86,l),
(77,128,l),
(35,33,l)
);
},
{
closed = 1;
nodes = (
(130,346,l),
(172,442,l),
(77,484,l),
(35,389,l)
);
}
);
width = 204;
}
);
note = colon;
unicode = 58;
},
{
glyphname = semicolon;
layers = (
{
hints = (
{
horizontal = 1;
place = (-152,636);
type = Stem;
},
{
place = (53,144);
type = Stem;
}
);
layerId = m01;
shapes = (
{
closed = 1;
nodes = (
(155,346,l),
(197,442,l),
(102,484,l),
(60,389,l)
);
},
{
closed = 1;
nodes = (
(91,-152,l),
(197,86,l),
(102,128,l),
(60,33,l),
(102,13,l),
(53,-135,l)
);
}
);
width = 257;
}
);
note = semicolon;
unicode = 59;
},
{
glyphname = question;
layers = (
{
hints = (
{
horizontal = 1;
place = (564,75);
type = Stem;
},
{
horizontal = 1;
place = (-10,21);
target = up;
type = BottomGhost;
},
{
place = (310,91);
type = Stem;
}
);
layerId = m01;
shapes = (
{
closed = 1;
nodes = (
(257,86,l),
(162,128,l),
(120,33,l),
(215,-10,l)
);
},
{
closed = 1;
nodes = (
(80,494,l),
(120,537,o),
(155,564,o),
(209,564,cs),
(268,564,o),
(310,524,o),
(310,469,cs),
(310,402,o),
(245,353,o),
(100,281,c),
(138,209,l),
(328,306,o),
(401,374,o),
(401,475,cs),
(401,575,o),
(320,639,o),
(220,639,cs),
(137,639,o),
(82,611,o),
(27,552,c)
);
}
);
width = 451;
}
);
note = question;
unicode = 63;
},
{
glyphname = ellipsis;
layers = (
{
hints = (
{
horizontal = 1;
place = (-10,21);
target = up;
type = BottomGhost;
},
{
place = (60,697);
type = Stem;
}
);
layerId = m01;
shapes = (
{
closed = 1;
nodes = (
(155,-10,l),
(197,86,l),
(102,128,l),
(60,33,l)
);
},
{
closed = 1;
nodes = (
(435,-10,l),
(477,86,l),
(382,128,l),
(340,33,l)
);
},
{
closed = 1;
nodes = (
(715,-10,l),
(757,86,l),
(662,128,l),
(620,33,l)
);
}
);
width = 817;
}
);
note = ellipsis;
unicode = 8230;
},
{
glyphname = guilsinglleft;
layers = (
{
hints = (
{
horizontal = 1;
place = (63,374);
type = Stem;
},
{
place = (40,190);
type = Stem;
}
);
layerId = m01;
shapes = (
{
closed = 1;
nodes = (
(40,250,l),
(168,63,l),
(230,103,l),
(145,250,l),
(230,397,l),
(168,437,l)
);
}
);
width = 290;
}
);
note = guilsinglleft;
unicode = 8249;
},
{
glyphname = quoteleft;
layers = (
{
hints = (
{
horizontal = 1;
place = (434,205);
type = Stem;
},
{
place = (60,91);
type = Stem;
}
);
layerId = m01;
shapes = (
{
closed = 1;
nodes = (
(151,444,l),
(151,639,l),
(86,629,l),
(60,434,l)
);
}
);
width = 211;
}
);
note = quoteleft;
unicode = 8216;
},
{
glyphname = quoteright;
layers = (
{
hints = (
{
horizontal = 1;
place = (434,205);
type = Stem;
},
{
place = (60,91);
type = Stem;
}
);
layerId = m01;
shapes = (
{
closed = 1;
nodes = (
(125,444,l),
(151,639,l),
(60,629,l),
(60,434,l)
);
}
);
width = 211;
}
);
note = quoteright;
unicode = 8217;
},
{
glyphname = quotedblleft;
layers = (
{
hints = (
{
horizontal = 1;
place = (434,205);
type = Stem;
},
{
place = (60,291);
type = Stem;
}
);
layerId = m01;
shapes = (
{
closed = 1;
nodes = (
(151,444,l),
(151,639,l),
(86,629,l),
(60,434,l)
);
},
{
closed = 1;
nodes = (
(351,444,l),
(351,639,l),
(286,629,l),
(260,434,l)
);
}
);
width = 411;
}
);
note = quotedblleft;
unicode = 8220;
},
{
glyphname = quotedblright;
layers = (
{
hints = (
{
horizontal = 1;
place = (434,205);
type = Stem;
},
{
place = (60,291);
type = Stem;
}
);
layerId = m01;
shapes = (
{
closed = 1;
nodes = (
(125,444,l),
(151,639,l),
(60,629,l),
(60,434,l)
);
},
{
closed = 1;
nodes = (
(325,444,l),
(351,639,l),
(260,629,l),
(260,434,l)
);
}
);
width = 411;
}
);
note = quotedblright;
unicode = 8221;
},
{
glyphname = endash;
layers = (
{
hints = (
{
horizontal = 1;
place = (288,61);
type = Stem;
},
{
place = (0,506);
type = Stem;
}
);
layerId = m01;
shapes = (
{
closed = 1;
nodes = (
(506,351,l),
(490,356,o),
(467,361,o),
(434,361,cs),
(347,361,o),
(189,349,o),
(87,349,cs),
(58,349,o),
(39,352,o),
(17,358,c),
(0,286,l),
(16,281,o),
(39,276,o),
(72,276,cs),
(177,276,o),
(313,288,o),
(419,288,cs),
(448,288,o),
(467,285,o),
(489,279,c)
);
}
);
width = 506;
}
);
note = endash;
unicode = 8211;
},
{
glyphname = emdash;
layers = (
{
hints = (
{
horizontal = 1;
place = (288,61);
type = Stem;
},
{
place = (0,1011);
type = Stem;
}
);
layerId = m01;
shapes = (
{
closed = 1;
nodes = (
(1011,351,l),
(995,356,o),
(972,361,o),
(882,361,cs),
(694,361,o),
(419,349,o),
(108,349,cs),
(58,349,o),
(39,352,o),
(17,358,c),
(0,286,l),
(16,281,o),
(39,276,o),
(115,276,cs),
(317,276,o),
(588,288,o),
(890,288,cs),
(953,288,o),
(972,285,o),
(994,279,c)
);
}
);
width = 1011;
}
);
note = emdash;
unicode = 8212;
},
{
glyphname = guilsinglright;
layers = (
{
hints = (
{
horizontal = 1;
place = (63,374);
type = Stem;
},
{
place = (60,190);
type = Stem;
}
);
layerId = m01;
shapes = (
{
closed = 1;
nodes = (
(122,63,l),
(250,250,l),
(122,437,l),
(60,397,l),
(145,250,l),
(60,103,l)
);
}
);
width = 290;
}
);
note = guilsinglright;
unicode = 8250;
},
{
glyphname = guillemotleft;
layers = (
{
hints = (
{
horizontal = 1;
place = (63,374);
type = Stem;
},
{
place = (40,400);
type = Stem;
}
);
layerId = m01;
shapes = (
{
closed = 1;
nodes = (
(40,250,l),
(168,63,l),
(230,103,l),
(145,250,l),
(230,397,l),
(168,437,l)
);
},
{
closed = 1;
nodes = (
(250,250,l),
(378,63,l),
(440,103,l),
(355,250,l),
(440,397,l),
(378,437,l)
);
}
);
width = 500;
}
);
note = guillemotleft;
unicode = 171;
},
{
glyphname = uni00AD;
layers = (
{
hints = (
{
horizontal = 1;
place = (272,108);
type = Stem;
},
{
horizontal = 1;
place = (260,109);
type = Stem;
},
{
place = (99,314);
type = Stem;
}
);
layerId = m01;
shapes = (
{
closed = 1;
nodes = (
(413,364,l),
(388,372,o),
(355,380,o),
(322,380,cs),
(282,380,o),
(244,369,o),
(205,369,cs),
(180,369,o),
(156,373,o),
(124,382,c),
(99,276,l),
(124,268,o),
(157,260,o),
(191,260,cs),
(230,260,o),
(268,272,o),
(308,272,cs),
(333,272,o),
(356,267,o),
(388,258,c)
);
}
);
width = 461;
}
);
note = uni00AD;
unicode = 173;
},
{
glyphname = guillemotright;
layers = (
{
hints = (
{
horizontal = 1;
place = (63,374);
type = Stem;
},
{
place = (60,400);
type = Stem;
}
);
layerId = m01;
shapes = (
{
closed = 1;
nodes = (
(122,63,l),
(250,250,l),
(122,437,l),
(60,397,l),
(145,250,l),
(60,103,l)
);
},
{
closed = 1;
nodes = (
(332,63,l),
(460,250,l),
(332,437,l),
(270,397,l),
(355,250,l),
(270,103,l)
);
}
);
width = 500;
}
);
note = guillemotright;
unicode = 187;
},
{
glyphname = uni1200;
lastChange = "2024-11-17 05:54:33 +0000";
layers = (
{
hints = (
{
horizontal = 1;
place = (39,111);
type = Stem;
},
{
place = (426,126);
type = Stem;
},
{
place = (108,126);
type = Stem;
},
{
place = (70,127);
type = Stem;
}
);
layerId = m01;
shapes = (
{
closed = 1;
nodes = (
(452,39,o),
(552,174,o),
(552,413,cs),
(552,480,o),
(542,544,o),
(524,595,c),
(407,560,l),
(421,501,o),
(426,453,o),
(426,405,cs),
(426,241,o),
(375,150,o),
(280,150,cs),
(226,150,o),
(197,182,o),
(197,243,cs),
(197,311,o),
(234,388,o),
(234,469,cs),
(234,512,o),
(224,558,o),
(206,595,c),
(90,559,l),
(97,527,o),
(108,498,o),
(108,465,cs),
(108,382,o),
(70,304,o),
(70,221,cs),
(70,108,o),
(146,39,o),
(273,39,cs)
);
}
);
width = 622;
}
);
note = uni1200;
unicode = 4608;
},
{
glyphname = uni1201;
lastChange = "2024-11-17 05:54:33 +0000";
layers = (
{
hints = (
{
horizontal = 1;
place = (304,108);
type = Stem;
},
{
horizontal = 1;
place = (39,111);
type = Stem;
},
{
place = (426,126);
type = Stem;
},
{
place = (108,126);
type = Stem;
},
{
place = (70,127);
type = Stem;
}
);
layerId = m01;
shapes = (
{
closed = 1;
nodes = (
(420,39,o),
(514,130,o),
(543,297,c),
(569,304,o),
(588,304,o),
(611,304,cs),
(625,304,o),
(640,302,o),
(686,291,c),
(710,396,l),
(681,406,o),
(650,412,o),
(626,412,cs),
(602,412,o),
(577,409,o),
(552,407,c),
(553,415,o),
(552,404,o),
(552,413,cs),
(552,480,o),
(542,544,o),
(524,595,c),
(407,560,l),
(421,501,o),
(426,453,o),
(426,405,cs),
(426,241,o),
(375,150,o),
(280,150,cs),
(226,150,o),
(197,182,o),
(197,243,cs),
(197,311,o),
(234,388,o),
(234,469,cs),
(234,512,o),
(224,558,o),
(206,595,c),
(90,559,l),
(97,527,o),
(108,498,o),
(108,465,cs),
(108,382,o),
(70,304,o),
(70,221,cs),
(70,108,o),
(146,39,o),
(273,39,cs)
);
}
);
width = 734;
}
);
note = uni1201;
unicode = 4609;
},
{
glyphname = uni1202;
kernRight = uni1202;
lastChange = "2024-11-17 05:54:33 +0000";
layers = (
{
hints = (
{
horizontal = 1;
place = (292,112);
type = Stem;
},
{
horizontal = 1;
place = (7,111);
type = Stem;
},
{
horizontal = 1;
place = (-9,111);
type = Stem;
},
{
place = (339,126);
type = Stem;
},
{
place = (199,125);
type = Stem;
},
{
place = (77,126);
type = Stem;
}
);
layerId = m01;
shapes = (
{
closed = 1;
nodes = (
(377,-9,o),
(409,7,o),
(441,7,cs),
(451,7,o),
(467,2,o),
(489,-9,c),
(534,91,l),
(503,110,o),
(475,118,o),
(449,118,cs),
(414,118,o),
(382,102,o),
(350,102,cs),
(333,102,o),
(324,115,o),
(324,143,cs),
(324,177,o),
(340,217,o),
(386,307,cs),
(423,376,o),
(465,458,o),
(465,549,cs),
(465,578,o),
(458,608,o),
(446,637,c),
(327,603,l),
(334,582,o),
(339,554,o),
(339,537,cs),
(339,501,o),
(329,463,o),
(306,410,c),
(292,406,o),
(277,404,o),
(261,404,cs),
(217,404,o),
(200,418,o),
(200,452,cs),
(200,474,o),
(203,497,o),
(203,520,cs),
(203,555,o),
(195,587,o),
(180,616,c),
(60,583,l),
(71,555,o),
(77,530,o),
(77,514,cs),
(77,489,o),
(74,464,o),
(74,440,cs),
(74,340,o),
(123,292,o),
(222,292,cs),
(231,292,o),
(241,293,o),
(250,294,c),
(212,215,o),
(199,171,o),
(199,127,cs),
(199,44,o),
(252,-9,o),
(340,-9,cs)
);
}
);
width = 564;
}
);
note = uni1202;
unicode = 4610;
},
{
glyphname = uni1203;
lastChange = "2024-11-17 05:54:33 +0000";
layers = (
{
hints = (
{
horizontal = 1;
place = (292,112);
type = Stem;
},
{
horizontal = 1;
place = (-4,21);
target = up;
type = BottomGhost;
},
{
place = (349,126);
type = Stem;
},
{
place = (209,125);
type = Stem;
},
{
place = (87,126);
type = Stem;
}
);
layerId = m01;
shapes = (
{
closed = 1;
nodes = (
(375,41,l),
(347,78,o),
(334,108,o),
(334,135,cs),
(334,173,o),
(350,216,o),
(397,308,cs),
(434,378,o),
(475,459,o),
(475,549,cs),
(475,578,o),
(468,608,o),
(456,637,c),
(337,603,l),
(344,582,o),
(349,554,o),
(349,537,cs),
(349,501,o),
(339,463,o),
(316,410,c),
(302,406,o),
(287,404,o),
(271,404,cs),
(227,404,o),
(210,418,o),
(210,452,cs),
(210,474,o),
(213,497,o),
(213,520,cs),
(213,555,o),
(205,587,o),
(190,616,c),
(70,583,l),
(81,555,o),
(87,530,o),
(87,514,cs),
(87,489,o),
(84,464,o),
(84,440,cs),
(85,343,o),
(135,292,o),
(232,292,cs),
(241,292,o),
(250,293,o),
(260,294,c),
(221,214,o),
(209,168,o),
(209,121,cs),
(209,78,o),
(223,37,o),
(255,-4,c)
);
}
);
width = 530;
}
);
note = uni1203;
unicode = 4611;
},
{
glyphname = uni1204;
kernRight = uni1202;
lastChange = "2024-11-17 05:54:33 +0000";
layers = (
{
hints = (
{
horizontal = 1;
place = (292,105);
type = Stem;
},
{
horizontal = 1;
place = (192,111);
type = Stem;
},
{
horizontal = 1;
place = (-9,110);
type = Stem;
},
{
place = (423,125);
type = Stem;
},
{
place = (349,126);
type = Stem;
},
{
place = (209,125);
type = Stem;
},
{
place = (87,126);
type = Stem;
}
);
layerId = m01;
shapes = (
{
closed = 1;
nodes = (
(470,-9,o),
(548,65,o),
(548,166,cs),
(548,251,o),
(496,303,o),
(411,303,cs),
(405,303,o),
(399,303,o),
(394,302,c),
(433,376,o),
(475,458,o),
(475,548,cs),
(475,576,o),
(468,606,o),
(457,637,c),
(337,603,l),
(344,582,o),
(349,554,o),
(349,537,cs),
(349,500,o),
(338,460,o),
(315,409,c),
(292,402,o),
(272,397,o),
(257,397,cs),
(225,397,o),
(213,423,o),
(213,501,cs),
(213,547,o),
(207,581,o),
(191,616,c),
(70,583,l),
(83,550,o),
(87,523,o),
(87,488,cs),
(87,371,o),
(89,292,o),
(234,292,cs),
(242,292,o),
(249,293,o),
(257,293,c),
(220,216,o),
(209,177,o),
(209,137,cs),
(209,48,o),
(271,-9,o),
(365,-9,cs)
);
},
{
closed = 1;
nodes = (
(349,101,o),
(334,120,o),
(334,149,cs),
(334,160,o),
(336,172,o),
(339,184,c),
(353,189,o),
(368,192,o),
(380,192,cs),
(410,192,o),
(423,175,o),
(423,157,cs),
(423,130,o),
(402,101,o),
(371,101,cs)
);
}
);
width = 578;
}
);
note = uni1204;
unicode = 4612;
},
{
glyphname = uni1205;
lastChange = "2024-11-17 05:54:33 +0000";
layers = (
{
hints = (
{
horizontal = 1;
place = (39,108);
type = Stem;
},
{
place = (462,125);
type = Stem;
},
{
place = (150,127);
type = Stem;
},
{
place = (77,127);
type = Stem;
}
);
layerId = m01;
shapes = (
{
closed = 1;
nodes = (
(489,39,o),
(587,175,o),
(587,411,cs),
(587,478,o),
(577,544,o),
(559,595,c),
(442,560,l),
(455,504,o),
(462,454,o),
(462,408,cs),
(462,260,o),
(406,147,o),
(336,147,cs),
(300,147,o),
(277,183,o),
(277,235,cs),
(277,282,o),
(291,329,o),
(291,376,cs),
(291,419,o),
(277,435,o),
(241,435,cs),
(231,435,o),
(217,433,o),
(202,430,c),
(203,443,o),
(204,457,o),
(204,470,cs),
(204,512,o),
(194,558,o),
(177,595,c),
(60,559,l),
(69,522,o),
(77,495,o),
(77,455,cs),
(77,417,o),
(72,388,o),
(65,344,cs),
(60,313,o),
(80,296,o),
(111,296,cs),
(122,296,o),
(139,299,o),
(159,304,c),
(153,266,o),
(150,233,o),
(150,207,cs),
(150,93,o),
(204,39,o),
(316,39,cs)
);
}
);
width = 657;
}
);
note = uni1205;
unicode = 4613;
},
{
glyphname = uni1206;
lastChange = "2024-11-17 05:54:33 +0000";
layers = (
{
hints = (
{
horizontal = 1;
place = (531,111);
type = Stem;
},
{
horizontal = 1;
place = (327,111);
type = Stem;
},
{
horizontal = 1;
place = (39,108);
type = Stem;
},
{
place = (649,126);
type = Stem;
},
{
place = (426,125);
type = Stem;
},
{
place = (108,126);
type = Stem;
},
{
place = (70,127);
type = Stem;
}
);
layerId = m01;
shapes = (
{
closed = 1;
nodes = (
(432,39,o),
(542,150,o),
(551,331,c),
(565,329,o),
(580,327,o),
(595,327,cs),
(701,327,o),
(775,394,o),
(775,490,cs),
(775,582,o),
(710,642,o),
(615,642,cs),
(495,642,o),
(426,546,o),
(426,385,cs),
(426,218,o),
(348,147,o),
(280,147,cs),
(236,147,o),
(197,182,o),
(197,245,cs),
(197,320,o),
(234,392,o),
(234,469,cs),
(234,512,o),
(224,558,o),
(206,595,c),
(90,559,l),
(102,526,o),
(108,498,o),
(108,465,cs),
(108,382,o),
(70,303,o),
(70,220,cs),
(70,108,o),
(146,39,o),
(273,39,cs)
);
},
{
closed = 1;
nodes = (
(581,438,o),
(568,441,o),
(555,446,c),
(562,505,o),
(580,531,o),
(610,531,cs),
(636,531,o),
(649,511,o),
(649,490,cs),
(649,464,o),
(631,438,o),
(594,438,cs)
);
}
);
width = 805;
}
);
note = uni1206;
unicode = 4614;
},
{
glyphname = uni1207;
lastChange = "2024-11-17 05:54:33 +0000";
layers = (
{
hints = (
{
horizontal = 1;
place = (531,111);
type = Stem;
},
{
horizontal = 1;
place = (379,112);
type = Stem;
},
{
horizontal = 1;
place = (327,111);
type = Stem;
},
{
horizontal = 1;
place = (39,111);
type = Stem;
},
{
place = (739,127);
type = Stem;
},
{
place = (517,125);
type = Stem;
},
{
place = (196,128);
type = Stem;
},
{
place = (161,127);
type = Stem;
}
);
layerId = m01;
shapes = (
{
closed = 1;
nodes = (
(527,39,o),
(635,150,o),
(642,331,c),
(656,329,o),
(671,327,o),
(686,327,cs),
(792,327,o),
(866,394,o),
(866,490,cs),
(866,582,o),
(801,642,o),
(706,642,cs),
(586,642,o),
(517,547,o),
(517,380,cs),
(517,237,o),
(462,150,o),
(370,150,cs),
(317,150,o),
(291,187,o),
(288,248,cs),
(288,316,o),
(324,390,o),
(324,469,cs),
(324,512,o),
(314,558,o),
(297,595,c),
(181,559,l),
(190,537,o),
(194,519,o),
(196,497,c),
(177,493,o),
(159,491,o),
(142,491,cs),
(122,491,o),
(96,496,o),
(63,507,c),
(20,408,l),
(59,389,o),
(105,379,o),
(139,379,cs),
(154,379,o),
(169,380,o),
(188,383,c),
(179,329,o),
(161,277,o),
(161,221,cs),
(161,108,o),
(237,39,o),
(364,39,cs)
);
},
{
closed = 1;
nodes = (
(673,438,o),
(660,441,o),
(646,446,c),
(653,505,o),
(671,531,o),
(701,531,cs),
(725,531,o),
(739,515,o),
(739,489,cs),
(739,457,o),
(718,438,o),
(686,438,cs)
);
}
);
width = 896;
}
);
note = uni1207;
unicode = 4615;
},
{
glyphname = uni1208;
kernRight = uni1208;
lastChange = "2024-11-17 05:54:33 +0000";
layers = (
{
hints = (
{
horizontal = 1;
place = (-4,21);
target = up;
type = BottomGhost;
},
{
horizontal = 1;
place = (-5,21);
target = up;
type = BottomGhost;
},
{
place = (403,127);
type = Stem;
},
{
place = (275,126);
type = Stem;
},
{
place = (111,127);
type = Stem;
}
);
layerId = m01;
shapes = (
{
closed = 1;
nodes = (
(575,36,l),
(544,113,o),
(530,167,o),
(530,251,cs),
(530,391,o),
(488,468,o),
(395,501,c),
(399,517,o),
(401,531,o),
(401,546,cs),
(401,578,o),
(388,627,o),
(369,674,c),
(248,634,l),
(265,595,o),
(275,561,o),
(275,544,cs),
(275,473,o),
(111,392,o),
(111,183,cs),
(111,130,o),
(124,62,o),
(147,-4,c),
(269,36,l),
(246,99,o),
(238,138,o),
(238,179,cs),
(238,289,o),
(292,352,o),
(334,400,c),
(384,387,o),
(403,346,o),
(403,258,cs),
(403,162,o),
(418,85,o),
(449,-5,c)
);
}
);
width = 635;
}
);
note = uni1208;
unicode = 4616;
},
{
glyphname = uni1209;
lastChange = "2024-11-17 05:54:33 +0000";
layers = (
{
hints = (
{
horizontal = 1;
place = (236,109);
type = Stem;
},
{
horizontal = 1;
place = (-4,21);
target = up;
type = BottomGhost;
},
{
horizontal = 1;
place = (-5,21);
target = up;
type = BottomGhost;
},
{
place = (362,127);
type = Stem;
},
{
place = (234,126);
type = Stem;
},
{
place = (70,127);
type = Stem;
}
);
layerId = m01;
shapes = (
{
closed = 1;
nodes = (
(534,36,l),
(505,109,o),
(492,168,o),
(489,230,c),
(510,234,o),
(527,236,o),
(547,236,cs),
(563,236,o),
(587,232,o),
(623,223,c),
(647,328,l),
(614,340,o),
(587,345,o),
(565,345,cs),
(539,345,o),
(512,342,o),
(486,338,c),
(475,423,o),
(433,474,o),
(353,501,c),
(358,517,o),
(360,532,o),
(360,547,cs),
(360,579,o),
(348,624,o),
(328,674,c),
(208,634,l),
(224,594,o),
(234,561,o),
(234,547,cs),
(234,476,o),
(70,388,o),
(70,180,cs),
(70,127,o),
(82,64,o),
(106,-4,c),
(228,36,l),
(206,95,o),
(197,140,o),
(197,185,cs),
(197,282,o),
(233,328,o),
(293,400,c),
(342,387,o),
(362,345,o),
(362,259,cs),
(362,172,o),
(378,85,o),
(408,-5,c)
);
}
);
width = 711;
}
);
note = uni1209;
unicode = 4617;
},
{
glyphname = uni120A;
kernRight = uni120A;
lastChange = "2024-11-17 05:54:33 +0000";
layers = (
{
hints = (
{
horizontal = 1;
place = (7,112);
type = Stem;
},
{
horizontal = 1;
place = (-9,111);
type = Stem;
},
{
horizontal = 1;
place = (-4,21);
target = up;
type = BottomGhost;
},
{
place = (362,127);
type = Stem;
},
{
place = (233,126);
type = Stem;
},
{
place = (70,127);
type = Stem;
}
);
layerId = m01;
shapes = (
{
closed = 1;
nodes = (
(549,-9,o),
(588,7,o),
(617,7,cs),
(627,7,o),
(643,2,o),
(665,-9,c),
(710,91,l),
(679,109,o),
(652,119,o),
(629,119,cs),
(593,119,o),
(557,102,o),
(527,102,cs),
(499,102,o),
(489,129,o),
(489,214,cs),
(489,381,o),
(450,467,o),
(353,501,c),
(357,516,o),
(359,532,o),
(359,550,cs),
(359,582,o),
(350,620,o),
(328,674,c),
(207,634,l),
(225,592,o),
(233,565,o),
(233,548,cs),
(233,516,o),
(211,490,o),
(177,449,cs),
(109,367,o),
(70,299,o),
(70,188,cs),
(70,131,o),
(83,63,o),
(106,-4,c),
(228,36,l),
(205,99,o),
(197,138,o),
(197,178,cs),
(197,270,o),
(226,319,o),
(293,400,c),
(343,386,o),
(362,336,o),
(362,226,cs),
(362,58,o),
(406,-9,o),
(514,-9,cs)
);
}
);
width = 730;
}
);
note = uni120A;
unicode = 4618;
},
{
glyphname = uni120B;
kernRight = uni1208;
lastChange = "2024-11-17 05:54:33 +0000";
layers = (
{
hints = (
{
horizontal = 1;
place = (-5,21);
target = up;
type = BottomGhost;
},
{
place = (362,127);
type = Stem;
},
{
place = (234,126);
type = Stem;
},
{
place = (70,127);
type = Stem;
}
);
layerId = m01;
shapes = (
{
closed = 1;
nodes = (
(534,36,l),
(503,115,o),
(489,187,o),
(489,256,cs),
(489,392,o),
(446,467,o),
(354,501,c),
(358,516,o),
(360,530,o),
(360,546,cs),
(360,581,o),
(348,628,o),
(327,674,c),
(207,633,l),
(226,592,o),
(234,566,o),
(234,549,cs),
(234,524,o),
(223,504,o),
(173,443,cs),
(102,354,o),
(70,277,o),
(70,186,cs),
(70,159,o),
(75,129,o),
(85,95,c),
(208,126,l),
(200,156,o),
(197,180,o),
(197,201,cs),
(197,268,o),
(217,312,o),
(293,400,c),
(342,387,o),
(362,344,o),
(362,250,cs),
(362,172,o),
(378,83,o),
(408,-5,c)
);
}
);
width = 594;
}
);
note = uni120B;
unicode = 4619;
},
{
glyphname = uni120C;
kernRight = uni1202;
lastChange = "2024-11-17 05:54:33 +0000";
layers = (
{
hints = (
{
horizontal = 1;
place = (192,111);
type = Stem;
},
{
horizontal = 1;
place = (-9,111);
type = Stem;
},
{
horizontal = 1;
place = (-4,21);
target = up;
type = BottomGhost;
},
{
place = (582,125);
type = Stem;
},
{
place = (362,127);
type = Stem;
},
{
place = (234,126);
type = Stem;
},
{
place = (70,127);
type = Stem;
}
);
layerId = m01;
shapes = (
{
closed = 1;
nodes = (
(622,-9,o),
(707,68,o),
(707,170,cs),
(707,252,o),
(654,303,o),
(571,303,cs),
(544,303,o),
(514,297,o),
(489,287,c),
(487,401,o),
(443,470,o),
(354,501,c),
(358,515,o),
(360,530,o),
(360,544,cs),
(360,579,o),
(347,629,o),
(327,674,c),
(207,634,l),
(225,593,o),
(234,567,o),
(234,549,cs),
(234,520,o),
(216,494,o),
(183,454,cs),
(134,393,o),
(70,317,o),
(70,183,cs),
(70,128,o),
(83,61,o),
(106,-4,c),
(228,36,l),
(205,101,o),
(197,139,o),
(197,179,cs),
(197,280,o),
(236,333,o),
(293,400,c),
(343,385,o),
(362,336,o),
(362,223,cs),
(362,52,o),
(402,-9,o),
(509,-9,cs)
);
},
{
closed = 1;
nodes = (
(506,102,o),
(489,126,o),
(492,181,c),
(508,188,o),
(526,192,o),
(541,192,cs),
(570,192,o),
(582,175,o),
(582,156,cs),
(582,130,o),
(564,102,o),
(530,102,cs)
);
}
);
width = 737;
}
);
note = uni120C;
unicode = 4620;
},
{
glyphname = uni120D;
kernRight = uni1208;
lastChange = "2024-11-17 05:54:33 +0000";
layers = (
{
hints = (
{
horizontal = 1;
place = (192,111);
type = Stem;
},
{
horizontal = 1;
place = (-9,111);
type = Stem;
},
{
horizontal = 1;
place = (-5,21);
target = up;
type = BottomGhost;
},
{
place = (432,127);
type = Stem;
},
{
place = (259,125);
type = Stem;
},
{
place = (218,127);
type = Stem;
},
{
place = (34,127);
type = Stem;
}
);
layerId = m01;
shapes = (
{
closed = 1;
nodes = (
(308,-9,o),
(384,63,o),
(384,164,cs),
(384,251,o),
(331,303,o),
(244,303,cs),
(230,303,o),
(217,302,o),
(203,299,c),
(225,335,o),
(255,365,o),
(277,401,c),
(379,381,o),
(432,317,o),
(432,206,cs),
(432,151,o),
(441,87,o),
(478,-5,c),
(604,36,l),
(570,104,o),
(559,175,o),
(559,236,cs),
(559,388,o),
(490,470,o),
(340,504,c),
(343,518,o),
(345,532,o),
(345,546,cs),
(345,580,o),
(333,627,o),
(312,674,c),
(192,634,l),
(210,592,o),
(218,567,o),
(218,550,cs),
(218,524,o),
(206,501,o),
(164,449,cs),
(85,352,o),
(34,258,o),
(34,166,cs),
(34,57,o),
(104,-9,o),
(203,-9,cs)
);
},
{
closed = 1;
nodes = (
(173,102,o),
(161,130,o),
(161,159,cs),
(161,167,o),
(162,175,o),
(163,183,c),
(180,189,o),
(203,192,o),
(218,192,cs),
(247,192,o),
(259,175,o),
(259,156,cs),
(259,130,o),
(240,102,o),
(206,102,cs)
);
}
);
width = 654;
}
);
note = uni120D;
unicode = 4621;
},
{
glyphname = uni120E;
lastChange = "2024-11-17 05:54:33 +0000";
layers = (
{
hints = (
{
horizontal = 1;
place = (324,111);
type = Stem;
},
{
horizontal = 1;
place = (228,110);
type = Stem;
},
{
horizontal = 1;
place = (123,109);
type = Stem;
},
{
horizontal = 1;
place = (-4,21);
target = up;
type = BottomGhost;
},
{
horizontal = 1;
place = (-5,21);
target = up;
type = BottomGhost;
},
{
place = (741,122);
type = Stem;
},
{
place = (362,127);
type = Stem;
},
{
place = (234,125);
type = Stem;
},
{
place = (70,127);
type = Stem;
}
);
layerId = m01;
shapes = (
{
closed = 1;
nodes = (
(534,36,l),
(503,113,o),
(491,167,o),
(489,228,c),
(505,228,o),
(519,228,o),
(535,232,c),
(555,160,o),
(606,123,o),
(684,123,cs),
(788,123,o),
(863,192,o),
(863,289,cs),
(863,375,o),
(802,435,o),
(713,435,cs),
(665,435,o),
(630,418,o),
(579,378,cs),
(538,347,o),
(519,338,o),
(496,338,cs),
(486,338,l),
(475,424,o),
(435,475,o),
(353,501,c),
(357,517,o),
(359,534,o),
(359,549,cs),
(359,586,o),
(347,628,o),
(327,674,c),
(207,633,l),
(224,597,o),
(234,561,o),
(234,543,cs),
(234,523,o),
(223,504,o),
(183,454,cs),
(111,364,o),
(70,295,o),
(70,184,cs),
(70,128,o),
(83,61,o),
(106,-4,c),
(228,36,l),
(205,100,o),
(197,139,o),
(197,180,cs),
(197,245,o),
(213,308,o),
(255,358,cs),
(276,381,o),
(287,394,o),
(293,400,c),
(343,387,o),
(362,346,o),
(362,258,cs),
(362,183,o),
(378,84,o),
(408,-5,c)
);
},
{
closed = 1;
nodes = (
(670,232,o),
(648,248,o),
(640,287,c),
(664,307,o),
(685,324,o),
(706,324,cs),
(729,324,o),
(741,303,o),
(741,282,cs),
(741,253,o),
(717,232,o),
(692,232,cs)
);
}
);
width = 893;
}
);
note = uni120E;
unicode = 4622;
},
{
glyphname = uni120F;
kernRight = uni1202;
lastChange = "2024-11-17 05:54:33 +0000";
layers = (
{
hints = (
{
horizontal = 1;
place = (8,107);
type = Stem;
},
{
horizontal = 1;
place = (-8,20);
type = Stem;
},
{
place = (362,127);
type = Stem;
},
{
place = (233,127);
type = Stem;
},
{
place = (70,127);
type = Stem;
}
);
layerId = m01;
shapes = (
{
closed = 1;
nodes = (
(400,-8,o),
(467,8,o),
(535,8,cs),
(554,8,o),
(578,5,o),
(606,-4,c),
(638,102,l),
(606,113,o),
(576,115,o),
(552,115,cs),
(538,115,o),
(524,114,o),
(506,112,c),
(496,156,o),
(489,208,o),
(489,259,cs),
(489,394,o),
(447,468,o),
(354,501,c),
(358,517,o),
(360,531,o),
(360,546,cs),
(360,578,o),
(347,627,o),
(328,674,c),
(207,634,l),
(224,594,o),
(233,566,o),
(233,549,cs),
(233,512,o),
(203,477,o),
(177,448,cs),
(110,369,o),
(70,296,o),
(70,188,cs),
(70,160,o),
(75,129,o),
(85,95,c),
(208,126,l),
(200,156,o),
(197,179,o),
(197,198,cs),
(197,289,o),
(236,338,o),
(292,401,c),
(342,387,o),
(362,346,o),
(362,262,cs),
(362,212,o),
(369,146,o),
(378,95,c),
(365,93,o),
(346,94,o),
(331,95,cs),
(305,97,o),
(278,106,o),
(262,112,c),
(230,12,l),
(268,-4,o),
(307,-8,o),
(331,-8,cs)
);
}
);
width = 658;
}
);
note = uni120F;
unicode = 4623;
},
{
glyphname = uni1210;
kernRight = uni1208;
lastChange = "2024-11-17 05:54:33 +0000";
layers = (
{
hints = (
{
horizontal = 1;
place = (283,112);
type = Stem;
},
{
horizontal = 1;
place = (272,112);
type = Stem;
},
{
horizontal = 1;
place = (-5,21);
target = up;
type = BottomGhost;
},
{
place = (575,125);
type = Stem;
},
{
place = (339,126);
type = Stem;
},
{
place = (310,125);
type = Stem;
},
{
place = (40,127);
type = Stem;
}
);
layerId = m01;
shapes = (
{
closed = 1;
nodes = (
(187,36,l),
(174,76,o),
(167,114,o),
(167,142,cs),
(167,221,o),
(213,272,o),
(283,272,cs),
(294,272,o),
(306,271,o),
(316,269,c),
(312,238,o),
(310,205,o),
(310,174,cs),
(310,110,o),
(320,47,o),
(338,-5,c),
(456,31,l),
(441,86,o),
(435,131,o),
(435,179,cs),
(435,208,o),
(437,234,o),
(441,266,c),
(463,277,o),
(488,283,o),
(508,283,cs),
(554,283,o),
(575,246,o),
(575,169,cs),
(575,119,o),
(584,67,o),
(611,-5,c),
(737,36,l),
(709,100,o),
(700,145,o),
(700,192,cs),
(700,332,o),
(649,395,o),
(536,395,cs),
(511,395,o),
(484,391,o),
(460,385,c),
(463,414,o),
(465,440,o),
(465,466,cs),
(465,524,o),
(454,586,o),
(436,638,c),
(319,602,l),
(333,547,o),
(339,502,o),
(339,457,cs),
(339,429,o),
(337,404,o),
(334,379,c),
(317,382,o),
(298,384,o),
(280,384,cs),
(138,384,o),
(40,280,o),
(40,127,cs),
(40,89,o),
(48,48,o),
(65,-5,c)
);
}
);
width = 777;
}
);
note = uni1210;
unicode = 4624;
},
{
glyphname = uni1211;
lastChange = "2024-11-17 05:54:33 +0000";
layers = (
{
hints = (
{
horizontal = 1;
place = (283,112);
type = Stem;
},
{
horizontal = 1;
place = (272,112);
type = Stem;
},
{
horizontal = 1;
place = (170,109);
type = Stem;
},
{
horizontal = 1;
place = (-4,21);
target = up;
type = BottomGhost;
},
{
horizontal = 1;
place = (-5,21);
target = up;
type = BottomGhost;
},
{
place = (575,126);
type = Stem;
},
{
place = (339,126);
type = Stem;
},
{
place = (310,125);
type = Stem;
},
{
place = (40,127);
type = Stem;
}
);
layerId = m01;
shapes = (
{
closed = 1;
nodes = (
(456,31,l),
(441,88,o),
(435,134,o),
(435,178,cs),
(435,209,o),
(438,237,o),
(441,265,c),
(464,277,o),
(488,283,o),
(509,283,cs),
(553,283,o),
(575,247,o),
(575,168,cs),
(575,121,o),
(583,69,o),
(611,-5,c),
(737,36,l),
(713,91,o),
(703,130,o),
(701,167,c),
(749,173,o),
(783,170,o),
(831,158,c),
(856,263,l),
(794,284,o),
(755,282,o),
(693,275,c),
(674,357,o),
(623,395,o),
(535,395,cs),
(511,395,o),
(484,391,o),
(460,385,c),
(463,413,o),
(465,439,o),
(465,465,cs),
(464,523,o),
(454,587,o),
(436,638,c),
(319,602,l),
(333,546,o),
(339,498,o),
(339,455,cs),
(339,428,o),
(337,403,o),
(334,379,c),
(318,382,o),
(299,384,o),
(281,384,cs),
(138,384,o),
(40,280,o),
(40,127,cs),
(40,89,o),
(48,49,o),
(65,-4,c),
(187,35,l),
(174,76,o),
(167,114,o),
(167,142,cs),
(167,221,o),
(213,272,o),
(283,272,cs),
(294,272,o),
(305,272,o),
(317,269,c),
(312,236,o),
(310,204,o),
(310,172,cs),
(310,110,o),
(320,47,o),
(338,-5,c)
);
}
);
width = 923;
}
);
note = uni1211;
unicode = 4625;
},
{
glyphname = uni1212;
kernRight = uni120A;
lastChange = "2024-11-17 05:54:33 +0000";
layers = (
{
hints = (
{
horizontal = 1;
place = (283,112);
type = Stem;
},
{
horizontal = 1;
place = (272,112);
type = Stem;
},
{
horizontal = 1;
place = (7,111);
type = Stem;
},
{
horizontal = 1;
place = (-9,111);
type = Stem;
},
{
horizontal = 1;
place = (-4,21);
target = up;
type = BottomGhost;
},
{
horizontal = 1;
place = (-5,21);
target = up;
type = BottomGhost;
},
{
place = (575,125);
type = Stem;
},
{
place = (339,126);
type = Stem;
},
{
place = (310,125);
type = Stem;
},
{
place = (40,127);
type = Stem;
}
);
layerId = m01;
shapes = (
{
closed = 1;
nodes = (
(762,-9,o),
(795,7,o),
(828,7,cs),
(839,7,o),
(854,2,o),
(876,-9,c),
(921,91,l),
(890,110,o),
(863,118,o),
(837,118,cs),
(798,118,o),
(765,102,o),
(733,102,cs),
(709,102,o),
(700,122,o),
(700,180,cs),
(700,330,o),
(650,395,o),
(536,395,cs),
(511,395,o),
(484,391,o),
(460,385,c),
(463,416,o),
(465,441,o),
(465,467,cs),
(465,524,o),
(454,586,o),
(436,638,c),
(319,602,l),
(333,548,o),
(339,502,o),
(339,458,cs),
(339,431,o),
(337,405,o),
(334,379,c),
(316,382,o),
(298,384,o),
(279,384,cs),
(138,384,o),
(40,280,o),
(40,127,cs),
(40,89,o),
(48,49,o),
(65,-4,c),
(186,35,l),
(174,77,o),
(167,115,o),
(167,143,cs),
(167,221,o),
(213,272,o),
(284,272,cs),
(295,272,o),
(306,271,o),
(316,270,c),
(312,238,o),
(310,205,o),
(310,174,cs),
(310,110,o),
(320,47,o),
(338,-5,c),
(456,31,l),
(441,85,o),
(435,131,o),
(435,177,cs),
(435,205,o),
(437,232,o),
(441,266,c),
(463,277,o),
(487,283,o),
(507,283,cs),
(553,283,o),
(575,247,o),
(575,166,cs),
(575,46,o),
(617,-9,o),
(721,-9,cs)
);
}
);
width = 941;
}
);
note = uni1212;
unicode = 4626;
},
{
glyphname = uni1213;
kernRight = uni1208;
lastChange = "2024-11-17 05:54:33 +0000";
layers = (
{
hints = (
{
horizontal = 1;
place = (283,112);
type = Stem;
},
{
horizontal = 1;
place = (272,112);
type = Stem;
},
{
horizontal = 1;
place = (-5,21);
target = up;
type = BottomGhost;
},
{
place = (575,125);
type = Stem;
},
{
place = (339,126);
type = Stem;
},
{
place = (310,125);
type = Stem;
},
{
place = (40,127);
type = Stem;
}
);
layerId = m01;
shapes = (
{
closed = 1;
nodes = (
(737,36,l),
(710,98,o),
(700,143,o),
(700,193,cs),
(700,331,o),
(650,395,o),
(536,395,cs),
(511,395,o),
(484,391,o),
(460,385,c),
(463,413,o),
(465,438,o),
(465,464,cs),
(465,524,o),
(454,586,o),
(436,638,c),
(319,602,l),
(333,546,o),
(339,501,o),
(339,457,cs),
(339,431,o),
(337,406,o),
(334,379,c),
(316,382,o),
(297,384,o),
(278,384,cs),
(139,384,o),
(40,291,o),
(40,160,cs),
(40,142,o),
(44,118,o),
(51,92,c),
(170,131,l),
(168,149,o),
(167,168,o),
(167,177,cs),
(167,233,o),
(213,272,o),
(282,272,cs),
(293,272,o),
(305,271,o),
(316,269,c),
(312,241,o),
(310,218,o),
(310,195,cs),
(310,163,o),
(316,124,o),
(328,95,c),
(450,130,l),
(440,157,o),
(435,184,o),
(435,210,cs),
(435,229,o),
(437,246,o),
(439,264,c),
(464,276,o),
(489,283,o),
(509,283,cs),
(553,283,o),
(575,247,o),
(575,168,cs),
(575,121,o),
(583,69,o),
(611,-5,c)
);
}
);
width = 772;
}
);
note = uni1213;
unicode = 4627;
},
{
glyphname = uni1214;
kernRight = uni1202;
lastChange = "2024-11-17 05:54:33 +0000";
layers = (
{
hints = (
{
horizontal = 1;
place = (283,112);
type = Stem;
},
{
horizontal = 1;
place = (272,112);
type = Stem;
},
{
horizontal = 1;
place = (192,111);
type = Stem;
},
{
horizontal = 1;
place = (-9,111);
type = Stem;
},
{
horizontal = 1;
place = (-4,21);
target = up;
type = BottomGhost;
},
{
horizontal = 1;
place = (-5,21);
target = up;
type = BottomGhost;
},
{
place = (792,126);
type = Stem;
},
{
place = (575,126);
type = Stem;
},
{
place = (339,126);
type = Stem;
},
{
place = (310,125);
type = Stem;
},
{
place = (40,127);
type = Stem;
}
);
layerId = m01;
shapes = (
{
closed = 1;
nodes = (
(833,-9,o),
(918,68,o),
(918,170,cs),
(918,252,o),
(864,303,o),
(782,303,cs),
(752,303,o),
(718,295,o),
(691,283,c),
(670,356,o),
(618,395,o),
(535,395,cs),
(511,395,o),
(484,391,o),
(460,385,c),
(463,413,o),
(465,439,o),
(465,465,cs),
(464,523,o),
(454,587,o),
(436,638,c),
(319,602,l),
(333,546,o),
(339,499,o),
(339,455,cs),
(339,428,o),
(337,403,o),
(334,379,c),
(318,382,o),
(299,384,o),
(281,384,cs),
(138,384,o),
(40,280,o),
(40,127,cs),
(40,89,o),
(48,49,o),
(65,-4,c),
(187,35,l),
(174,76,o),
(167,114,o),
(167,142,cs),
(167,221,o),
(213,272,o),
(283,272,cs),
(294,272,o),
(305,272,o),
(317,269,c),
(312,236,o),
(310,204,o),
(310,172,cs),
(310,110,o),
(320,47,o),
(338,-5,c),
(456,31,l),
(441,88,o),
(435,134,o),
(435,178,cs),
(435,209,o),
(438,237,o),
(441,265,c),
(464,277,o),
(488,283,o),
(509,283,cs),
(553,283,o),
(575,247,o),
(575,166,cs),
(575,45,o),
(617,-9,o),
(718,-9,cs)
);
},
{
closed = 1;
nodes = (
(714,102,o),
(702,129,o),
(701,179,c),
(718,187,o),
(737,192,o),
(753,192,cs),
(781,192,o),
(792,176,o),
(792,159,cs),
(792,132,o),
(772,102,o),
(741,102,cs)
);
}
);
width = 948;
}
);
note = uni1214;
unicode = 4628;
},
{
glyphname = uni1215;
kernRight = uni1208;
lastChange = "2024-11-17 05:54:33 +0000";
layers = (
{
hints = (
{
horizontal = 1;
place = (459,112);
type = Stem;
},
{
horizontal = 1;
place = (283,112);
type = Stem;
},
{
horizontal = 1;
place = (272,112);
type = Stem;
},
{
horizontal = 1;
place = (-4,21);
target = up;
type = BottomGhost;
},
{
horizontal = 1;
place = (-5,21);
target = up;
type = BottomGhost;
},
{
place = (575,125);
type = Stem;
},
{
place = (339,126);
type = Stem;
},
{
place = (310,125);
type = Stem;
},
{
place = (160,122);
type = Stem;
},
{
place = (40,127);
type = Stem;
}
);
layerId = m01;
shapes = (
{
closed = 1;
nodes = (
(456,31,l),
(441,87,o),
(435,133,o),
(435,177,cs),
(435,208,o),
(438,239,o),
(441,267,c),
(463,279,o),
(490,283,o),
(511,283,cs),
(553,283,o),
(573,247,o),
(575,168,cs),
(576,101,o),
(584,54,o),
(611,-5,c),
(737,36,l),
(711,83,o),
(700,138,o),
(700,193,cs),
(700,331,o),
(650,395,o),
(535,395,cs),
(510,395,o),
(483,391,o),
(459,385,c),
(463,420,o),
(465,445,o),
(465,468,cs),
(465,546,o),
(446,571,o),
(387,571,cs),
(352,571,o),
(317,563,o),
(282,558,c),
(278,591,o),
(270,628,o),
(260,657,c),
(142,621,l),
(154,578,o),
(160,539,o),
(160,515,cs),
(160,462,o),
(177,440,o),
(221,440,cs),
(260,440,o),
(298,459,o),
(333,459,cs),
(338,459,o),
(339,458,o),
(339,441,cs),
(339,425,o),
(338,408,o),
(334,379,c),
(318,382,o),
(299,384,o),
(281,384,cs),
(138,384,o),
(40,280,o),
(40,127,cs),
(40,89,o),
(48,49,o),
(65,-4,c),
(187,35,l),
(174,76,o),
(167,114,o),
(167,142,cs),
(167,221,o),
(213,272,o),
(283,272,cs),
(294,272,o),
(306,271,o),
(317,269,c),
(312,228,o),
(310,200,o),
(310,168,cs),
(310,109,o),
(320,47,o),
(338,-5,c)
);
}
);
width = 777;
}
);
note = uni1215;
unicode = 4629;
},
{
glyphname = uni1216;
kernRight = uni1208;
lastChange = "2024-11-17 05:54:33 +0000";
layers = (
{
hints = (
{
horizontal = 1;
place = (283,112);
type = Stem;
},
{
horizontal = 1;
place = (272,112);
type = Stem;
},
{
horizontal = 1;
place = (-4,21);
target = up;
type = BottomGhost;
},
{
place = (565,126);
type = Stem;
},
{
place = (329,126);
type = Stem;
},
{
place = (300,126);
type = Stem;
},
{
place = (40,127);
type = Stem;
}
);
layerId = m01;
shapes = (
{
closed = 1;
nodes = (
(187,35,l),
(174,76,o),
(167,114,o),
(167,142,cs),
(167,220,o),
(212,272,o),
(281,272,cs),
(288,272,o),
(297,272,o),
(306,271,c),
(302,243,o),
(300,219,o),
(300,196,cs),
(300,163,o),
(307,124,o),
(319,95,c),
(440,130,l),
(431,157,o),
(426,184,o),
(426,210,cs),
(426,229,o),
(427,246,o),
(430,264,c),
(455,277,o),
(479,283,o),
(498,283,cs),
(541,283,o),
(565,248,o),
(565,185,cs),
(565,160,o),
(567,126,o),
(583,96,c),
(705,136,l),
(692,164,o),
(691,191,o),
(691,214,cs),
(691,334,o),
(636,395,o),
(527,395,cs),
(502,395,o),
(475,391,o),
(451,385,c),
(454,413,o),
(455,438,o),
(455,464,cs),
(455,524,o),
(445,586,o),
(427,638,c),
(309,602,l),
(324,547,o),
(329,501,o),
(329,456,cs),
(329,433,o),
(328,410,o),
(325,381,c),
(311,383,o),
(296,384,o),
(283,384,cs),
(138,384,o),
(40,280,o),
(40,127,cs),
(40,89,o),
(48,49,o),
(65,-4,c)
);
}
);
width = 745;
}
);
note = uni1216;
unicode = 4630;
},
{
glyphname = uni1217;
kernRight = uni1202;
lastChange = "2024-11-17 05:54:33 +0000";
layers = (
{
hints = (
{
horizontal = 1;
place = (283,112);
type = Stem;
},
{
horizontal = 1;
place = (272,112);
type = Stem;
},
{
horizontal = 1;
place = (5,110);
type = Stem;
},
{
horizontal = 1;
place = (-10,106);
type = Stem;
},
{
horizontal = 1;
place = (-5,21);
target = up;
type = BottomGhost;
},
{
place = (575,125);
type = Stem;
},
{
place = (339,126);
type = Stem;
},
{
place = (310,125);
type = Stem;
},
{
place = (40,127);
type = Stem;
}
);
layerId = m01;
shapes = (
{
closed = 1;
nodes = (
(625,-10,o),
(689,5,o),
(758,5,cs),
(776,5,o),
(802,3,o),
(829,-5,c),
(861,101,l),
(831,110,o),
(802,115,o),
(776,115,cs),
(753,115,o),
(730,113,o),
(707,110,c),
(703,131,o),
(700,158,o),
(700,189,cs),
(700,330,o),
(650,395,o),
(536,395,cs),
(511,395,o),
(484,391,o),
(460,385,c),
(463,413,o),
(465,438,o),
(465,464,cs),
(465,524,o),
(454,586,o),
(436,638,c),
(319,602,l),
(333,546,o),
(339,501,o),
(339,457,cs),
(339,431,o),
(337,406,o),
(334,379,c),
(316,382,o),
(297,384,o),
(278,384,cs),
(139,384,o),
(40,291,o),
(40,160,cs),
(40,142,o),
(44,118,o),
(51,92,c),
(170,131,l),
(168,149,o),
(167,168,o),
(167,177,cs),
(167,233,o),
(213,272,o),
(282,272,cs),
(293,272,o),
(305,271,o),
(316,269,c),
(312,241,o),
(310,218,o),
(310,195,cs),
(310,163,o),
(316,124,o),
(328,95,c),
(450,130,l),
(440,157,o),
(435,184,o),
(435,210,cs),
(435,229,o),
(437,246,o),
(439,264,c),
(464,276,o),
(489,283,o),
(509,283,cs),
(553,283,o),
(575,247,o),
(575,166,cs),
(575,144,o),
(576,119,o),
(580,96,c),
(547,97,o),
(520,101,o),
(484,112,c),
(452,6,l),
(496,-7,o),
(532,-10,o),
(557,-10,cs)
);
}
);
width = 881;
}
);
note = uni1217;
unicode = 4631;
},
{
glyphname = uni1218;
lastChange = "2024-11-17 05:54:33 +0000";
layers = (
{
hints = (
{
horizontal = 1;
place = (499,110);
type = Stem;
},
{
horizontal = 1;
place = (462,112);
type = Stem;
},
{
horizontal = 1;
place = (157,112);
type = Stem;
},
{
horizontal = 1;
place = (124,103);
type = Stem;
},
{
place = (783,127);
type = Stem;
},
{
place = (533,125);
type = Stem;
},
{
place = (30,127);
type = Stem;
}
);
layerId = m01;
shapes = (
{
closed = 1;
nodes = (
(381,124,o),
(416,290,o),
(462,422,cs),
(479,468,o),
(506,499,o),
(523,499,cs),
(540,499,o),
(533,439,o),
(533,423,cs),
(533,304,o),
(534,157,o),
(698,157,cs),
(824,157,o),
(910,251,o),
(910,377,cs),
(910,499,o),
(833,576,o),
(710,576,cs),
(685,576,o),
(658,572,o),
(633,565,c),
(609,596,o),
(569,609,o),
(527,609,cs),
(475,609,o),
(425,583,o),
(401,559,c),
(370,569,o),
(338,574,o),
(306,574,cs),
(149,574,o),
(30,471,o),
(30,309,cs),
(30,195,o),
(87,124,o),
(206,124,cs)
);
},
{
closed = 1;
nodes = (
(169,227,o),
(157,280,o),
(157,323,cs),
(157,410,o),
(211,462,o),
(301,462,cs),
(315,462,o),
(329,461,o),
(343,458,c),
(300,338,ls),
(271,258,o),
(247,227,o),
(214,227,cs)
);
},
{
closed = 1;
nodes = (
(662,269,o),
(658,327,o),
(658,370,cs),
(658,459,l),
(673,462,o),
(689,464,o),
(703,464,cs),
(760,464,o),
(783,429,o),
(783,375,cs),
(783,323,o),
(763,269,o),
(710,269,cs)
);
}
);
width = 950;
}
);
note = uni1218;
unicode = 4632;
},
{
glyphname = uni1219;
lastChange = "2024-11-17 05:54:33 +0000";
layers = (
{
hints = (
{
horizontal = 1;
place = (484,110);
type = Stem;
},
{
horizontal = 1;
place = (450,111);
type = Stem;
},
{
horizontal = 1;
place = (307,109);
type = Stem;
},
{
horizontal = 1;
place = (144,112);
type = Stem;
},
{
horizontal = 1;
place = (103,111);
type = Stem;
},
{
place = (543,125);
type = Stem;
},
{
place = (40,127);
type = Stem;
}
);
layerId = m01;
shapes = (
{
closed = 1;
nodes = (
(320,103,o),
(383,161,o),
(428,285,cs),
(472,409,ls),
(492,465,o),
(500,484,o),
(521,484,cs),
(537,484,o),
(543,475,o),
(543,441,cs),
(543,357,ls),
(543,212,o),
(595,144,o),
(707,144,cs),
(809,144,o),
(888,205,o),
(912,300,c),
(940,299,o),
(957,307,o),
(979,307,cs),
(993,307,o),
(1024,305,o),
(1053,295,c),
(1079,396,l),
(1053,409,o),
(1019,416,o),
(994,416,cs),
(968,416,o),
(948,408,o),
(917,409,c),
(900,504,o),
(826,562,o),
(720,562,cs),
(695,562,o),
(669,559,o),
(643,552,c),
(620,581,o),
(583,594,o),
(530,594,cs),
(479,594,o),
(442,578,o),
(412,547,c),
(381,557,o),
(349,561,o),
(316,561,cs),
(153,561,o),
(40,453,o),
(40,295,cs),
(40,174,o),
(106,103,o),
(218,103,cs)
);
},
{
closed = 1;
nodes = (
(189,214,o),
(167,249,o),
(167,308,cs),
(167,397,o),
(221,450,o),
(310,450,cs),
(324,450,o),
(340,448,o),
(353,446,c),
(310,325,ls),
(283,245,o),
(260,214,o),
(225,214,cs)
);
},
{
closed = 1;
nodes = (
(682,256,o),
(668,284,o),
(668,357,cs),
(668,446,l),
(685,449,o),
(701,451,o),
(713,451,cs),
(766,451,o),
(793,420,o),
(793,360,cs),
(793,296,o),
(763,256,o),
(717,256,cs)
);
}
);
width = 1141;
}
);
note = uni1219;
unicode = 4633;
},
{
glyphname = uni121A;
kernLeft = uni121A;
kernRight = uni1202;
lastChange = "2024-11-17 05:54:33 +0000";
layers = (
{
hints = (
{
horizontal = 1;
place = (562,109);
type = Stem;
},
{
horizontal = 1;
place = (540,112);
type = Stem;
},
{
horizontal = 1;
place = (312,112);
type = Stem;
},
{
horizontal = 1;
place = (232,112);
type = Stem;
},
{
horizontal = 1;
place = (7,111);
type = Stem;
},
{
horizontal = 1;
place = (-9,111);
type = Stem;
},
{
place = (731,127);
type = Stem;
},
{
place = (615,126);
type = Stem;
},
{
place = (491,126);
type = Stem;
},
{
place = (40,127);
type = Stem;
}
);
layerId = m01;
shapes = (
{
closed = 1;
nodes = (
(803,-9,o),
(837,7,o),
(870,7,cs),
(880,7,o),
(896,2,o),
(918,-9,c),
(962,91,l),
(932,110,o),
(904,118,o),
(877,118,cs),
(840,118,o),
(807,102,o),
(772,102,cs),
(750,102,o),
(741,112,o),
(741,136,cs),
(741,240,o),
(858,380,o),
(858,502,cs),
(858,592,o),
(793,652,o),
(691,652,cs),
(658,652,o),
(626,645,o),
(598,634,c),
(569,660,o),
(536,671,o),
(498,671,cs),
(457,671,o),
(418,656,o),
(391,630,c),
(365,645,o),
(336,652,o),
(300,652,cs),
(156,652,o),
(40,540,o),
(40,400,cs),
(40,295,o),
(102,232,o),
(205,232,cs),
(303,232,o),
(376,288,o),
(414,393,cs),
(456,510,ls),
(471,549,o),
(480,562,o),
(496,562,cs),
(502,562,o),
(508,561,o),
(514,558,c),
(499,531,o),
(491,498,o),
(491,464,cs),
(491,369,o),
(548,312,o),
(646,312,cs),
(654,312,o),
(661,312,o),
(669,313,c),
(628,221,o),
(615,173,o),
(615,128,cs),
(615,38,o),
(666,-9,o),
(762,-9,cs)
);
},
{
closed = 1;
nodes = (
(185,344,o),
(167,368,o),
(167,409,cs),
(167,483,o),
(222,540,o),
(295,540,cs),
(310,540,o),
(323,537,o),
(335,531,c),
(296,425,ls),
(276,372,o),
(248,344,o),
(215,344,cs)
);
},
{
closed = 1;
nodes = (
(636,424,o),
(617,440,o),
(617,474,cs),
(617,516,o),
(641,540,o),
(681,540,cs),
(714,540,o),
(731,523,o),
(731,490,cs),
(731,474,o),
(727,455,o),
(718,429,c),
(702,425,o),
(687,424,o),
(674,424,cs)
);
}
);
width = 982;
}
);
note = uni121A;
unicode = 4634;
},
{
glyphname = uni121B;
kernLeft = uni121A;
lastChange = "2024-11-17 05:54:33 +0000";
layers = (
{
hints = (
{
horizontal = 1;
place = (563,106);
type = Stem;
},
{
horizontal = 1;
place = (540,112);
type = Stem;
},
{
horizontal = 1;
place = (312,112);
type = Stem;
},
{
horizontal = 1;
place = (232,112);
type = Stem;
},
{
horizontal = 1;
place = (-4,21);
target = up;
type = BottomGhost;
},
{
place = (731,127);
type = Stem;
},
{
place = (615,127);
type = Stem;
},
{
place = (491,126);
type = Stem;
},
{
place = (40,127);
type = Stem;
}
);
layerId = m01;
shapes = (
{
closed = 1;
nodes = (
(779,36,l),
(753,75,o),
(742,103,o),
(742,132,cs),
(742,262,o),
(858,381,o),
(858,501,cs),
(858,592,o),
(793,652,o),
(691,652,cs),
(658,652,o),
(626,645,o),
(598,634,c),
(569,656,o),
(532,669,o),
(494,669,cs),
(453,669,o),
(418,656,o),
(391,630,c),
(365,645,o),
(336,652,o),
(300,652,cs),
(156,652,o),
(40,540,o),
(40,400,cs),
(40,295,o),
(102,232,o),
(205,232,cs),
(303,232,o),
(376,288,o),
(414,393,cs),
(456,510,ls),
(471,549,o),
(481,563,o),
(497,563,cs),
(503,563,o),
(508,561,o),
(514,558,c),
(499,531,o),
(491,498,o),
(491,464,cs),
(491,370,o),
(548,312,o),
(644,312,cs),
(652,312,o),
(661,313,o),
(669,314,c),
(629,221,o),
(615,168,o),
(615,118,cs),
(615,79,o),
(627,43,o),
(653,-4,c)
);
},
{
closed = 1;
nodes = (
(185,344,o),
(167,368,o),
(167,409,cs),
(167,483,o),
(222,540,o),
(295,540,cs),
(310,540,o),
(323,537,o),
(335,531,c),
(296,425,ls),
(276,372,o),
(248,344,o),
(215,344,cs)
);
},
{
closed = 1;
nodes = (
(636,424,o),
(617,440,o),
(617,474,cs),
(617,516,o),
(641,540,o),
(681,540,cs),
(714,540,o),
(731,523,o),
(731,490,cs),
(731,474,o),
(728,456,o),
(718,429,c),
(702,426,o),
(687,424,o),
(674,424,cs)
);
}
);
width = 888;
}
);
note = uni121B;
unicode = 4635;
},
{
glyphname = uni121C;
kernLeft = uni121A;
kernRight = uni1202;
lastChange = "2024-11-17 05:54:33 +0000";
layers = (
{
hints = (
{
horizontal = 1;
place = (562,107);
type = Stem;
},
{
horizontal = 1;
place = (540,112);
type = Stem;
},
{
horizontal = 1;
place = (312,117);
type = Stem;
},
{
horizontal = 1;
place = (232,112);
type = Stem;
},
{
horizontal = 1;
place = (192,111);
type = Stem;
},
{
horizontal = 1;
place = (-9,111);
type = Stem;
},
{
place = (833,126);
type = Stem;
},
{
place = (731,127);
type = Stem;
},
{
place = (615,125);
type = Stem;
},
{
place = (491,126);
type = Stem;
},
{
place = (40,127);
type = Stem;
}
);
layerId = m01;
shapes = (
{
closed = 1;
nodes = (
(875,-9,o),
(959,69,o),
(959,170,cs),
(959,252,o),
(905,303,o),
(822,303,cs),
(813,303,o),
(803,302,o),
(794,301,c),
(825,365,o),
(858,431,o),
(858,496,cs),
(858,591,o),
(794,652,o),
(691,652,cs),
(658,652,o),
(626,645,o),
(598,634,c),
(569,656,o),
(532,669,o),
(494,669,cs),
(447,669,o),
(408,651,o),
(391,631,c),
(364,645,o),
(336,652,o),
(300,652,cs),
(156,652,o),
(40,540,o),
(40,400,cs),
(40,295,o),
(102,232,o),
(205,232,cs),
(303,232,o),
(376,288,o),
(414,393,cs),
(456,510,ls),
(471,549,o),
(480,562,o),
(496,562,cs),
(502,562,o),
(508,561,o),
(514,558,c),
(499,531,o),
(491,498,o),
(491,464,cs),
(491,370,o),
(548,312,o),
(644,312,cs),
(651,312,o),
(659,312,o),
(666,313,c),
(629,235,o),
(615,188,o),
(615,143,cs),
(615,45,o),
(670,-9,o),
(764,-9,cs)
);
},
{
closed = 1;
nodes = (
(185,344,o),
(167,368,o),
(167,409,cs),
(167,483,o),
(222,540,o),
(295,540,cs),
(310,540,o),
(323,537,o),
(335,531,c),
(296,425,ls),
(276,372,o),
(248,344,o),
(215,344,cs)
);
},
{
closed = 1;
nodes = (
(751,102,o),
(740,115,o),
(740,148,cs),
(740,160,o),
(742,170,o),
(744,180,c),
(762,188,o),
(779,192,o),
(795,192,cs),
(821,192,o),
(833,180,o),
(833,157,cs),
(833,123,o),
(811,102,o),
(776,102,cs)
);
},
{
closed = 1;
nodes = (
(635,427,o),
(617,440,o),
(617,474,cs),
(617,516,o),
(641,540,o),
(681,540,cs),
(714,540,o),
(731,523,o),
(731,489,cs),
(731,470,o),
(727,451,o),
(719,429,c),
(701,425,o),
(685,423,o),
(672,424,cs)
);
}
);
width = 989;
}
);
note = uni121C;
unicode = 4636;
},
{
glyphname = uni121D;
lastChange = "2024-11-17 05:54:33 +0000";
layers = (
{
hints = (
{
horizontal = 1;
place = (559,110);
type = Stem;
},
{
horizontal = 1;
place = (540,112);
type = Stem;
},
{
horizontal = 1;
place = (240,112);
type = Stem;
},
{
horizontal = 1;
place = (-4,21);
target = up;
type = BottomGhost;
},
{
place = (788,126);
type = Stem;
},
{
place = (535,125);
type = Stem;
},
{
place = (331,127);
type = Stem;
},
{
place = (101,123);
type = Stem;
},
{
place = (40,127);
type = Stem;
}
);
layerId = m01;
shapes = (
{
closed = 1;
nodes = (
(242,33,l),
(224,59,o),
(223,81,o),
(224,90,cs),
(226,104,o),
(236,122,o),
(268,160,cs),
(381,288,ls),
(434,349,o),
(458,418,o),
(458,483,cs),
(458,504,o),
(455,523,o),
(450,541,c),
(464,552,o),
(483,559,o),
(499,559,cs),
(520,559,o),
(529,541,o),
(532,504,cs),
(539,403,ls),
(546,293,o),
(597,240,o),
(698,240,cs),
(827,240,o),
(914,329,o),
(914,461,cs),
(914,578,o),
(845,652,o),
(735,652,cs),
(696,652,o),
(657,642,o),
(624,625,c),
(599,654,o),
(560,669,o),
(512,669,cs),
(467,669,o),
(422,654,o),
(383,628,c),
(355,644,o),
(320,652,o),
(284,652,cs),
(151,652,o),
(40,546,o),
(40,421,cs),
(40,329,o),
(97,259,o),
(185,240,c),
(165,216,ls),
(120,164,o),
(101,125,o),
(101,78,cs),
(101,55,o),
(105,31,o),
(126,-4,c)
);
},
{
closed = 1;
nodes = (
(204,342,o),
(167,376,o),
(167,429,cs),
(167,492,o),
(213,540,o),
(271,540,cs),
(309,540,o),
(331,516,o),
(331,474,cs),
(331,436,o),
(315,395,o),
(289,363,cs),
(269,339,l)
);
},
{
closed = 1;
nodes = (
(679,352,o),
(669,377,o),
(664,448,cs),
(658,525,l),
(680,535,o),
(699,540,o),
(717,540,cs),
(762,540,o),
(788,510,o),
(788,455,cs),
(788,393,o),
(755,352,o),
(709,352,cs)
);
}
);
width = 944;
}
);
note = uni121D;
unicode = 4637;
},
{
glyphname = uni121E;
lastChange = "2024-11-17 05:54:33 +0000";
layers = (
{
hints = (
{
horizontal = 1;
place = (557,112);
type = Stem;
},
{
horizontal = 1;
place = (540,112);
type = Stem;
},
{
horizontal = 1;
place = (243,104);
type = Stem;
},
{
horizontal = 1;
place = (240,112);
type = Stem;
},
{
horizontal = 1;
place = (-5,21);
target = up;
type = BottomGhost;
},
{
place = (778,127);
type = Stem;
},
{
place = (526,125);
type = Stem;
},
{
place = (323,126);
type = Stem;
},
{
place = (294,125);
type = Stem;
},
{
place = (40,127);
type = Stem;
}
);
layerId = m01;
shapes = (
{
closed = 1;
nodes = (
(440,31,l),
(425,87,o),
(419,132,o),
(419,177,cs),
(419,280,o),
(449,374,o),
(449,473,cs),
(449,500,o),
(447,521,o),
(441,541,c),
(458,552,o),
(474,557,o),
(490,557,cs),
(511,557,o),
(520,541,o),
(523,504,cs),
(529,403,ls),
(537,293,o),
(587,240,o),
(689,240,cs),
(818,240,o),
(905,329,o),
(905,461,cs),
(905,578,o),
(836,652,o),
(726,652,cs),
(687,652,o),
(648,642,o),
(615,625,c),
(589,654,o),
(551,669,o),
(502,669,cs),
(457,669,o),
(412,655,o),
(372,627,c),
(342,643,o),
(307,652,o),
(268,652,cs),
(138,652,o),
(40,554,o),
(40,425,cs),
(40,313,o),
(114,243,o),
(232,243,cs),
(255,243,o),
(278,246,o),
(298,251,c),
(295,225,o),
(294,197,o),
(294,171,cs),
(294,110,o),
(304,47,o),
(322,-5,c)
);
},
{
closed = 1;
nodes = (
(196,347,o),
(167,374,o),
(167,426,cs),
(167,492,o),
(207,540,o),
(263,540,cs),
(302,540,o),
(323,513,o),
(323,459,cs),
(323,437,o),
(320,404,o),
(313,359,c),
(294,351,o),
(274,347,o),
(251,347,cs)
);
},
{
closed = 1;
nodes = (
(674,352,o),
(660,377,o),
(654,448,cs),
(649,525,l),
(671,535,o),
(690,540,o),
(708,540,cs),
(753,540,o),
(778,510,o),
(778,455,cs),
(778,393,o),
(750,352,o),
(703,352,cs)
);
}
);
width = 935;
}
);
note = uni121E;
unicode = 4638;
},
{
glyphname = uni121F;
kernLeft = uni121A;
kernRight = uni1202;
lastChange = "2024-11-17 05:54:33 +0000";
layers = (
{
hints = (
{
horizontal = 1;
place = (562,107);
type = Stem;
},
{
horizontal = 1;
place = (540,112);
type = Stem;
},
{
horizontal = 1;
place = (312,112);
type = Stem;
},
{
horizontal = 1;
place = (232,112);
type = Stem;
},
{
horizontal = 1;
place = (105,13);
type = Stem;
},
{
horizontal = 1;
place = (-9,108);
type = Stem;
},
{
horizontal = 1;
place = (-1,21);
target = up;
type = BottomGhost;
},
{
horizontal = 1;
place = (-9,21);
target = up;
type = BottomGhost;
},
{
place = (731,127);
type = Stem;
},
{
place = (615,127);
type = Stem;
},
{
place = (491,126);
type = Stem;
},
{
place = (40,127);
type = Stem;
}
);
layerId = m01;
shapes = (
{
closed = 1;
nodes = (
(658,-9,o),
(725,11,o),
(794,11,cs),
(812,11,o),
(836,7,o),
(863,-1,c),
(895,105,l),
(837,122,o),
(802,121,o),
(743,114,c),
(742,121,o),
(742,127,o),
(742,135,cs),
(742,268,o),
(858,389,o),
(858,501,cs),
(858,592,o),
(793,652,o),
(691,652,cs),
(658,652,o),
(626,645,o),
(598,634,c),
(569,656,o),
(532,669,o),
(494,669,cs),
(453,669,o),
(418,656,o),
(391,630,c),
(365,645,o),
(336,652,o),
(300,652,cs),
(156,652,o),
(40,540,o),
(40,400,cs),
(40,295,o),
(102,232,o),
(205,232,cs),
(303,232,o),
(376,288,o),
(414,393,cs),
(456,510,ls),
(471,549,o),
(480,562,o),
(496,562,cs),
(502,562,o),
(508,561,o),
(514,558,c),
(499,531,o),
(491,498,o),
(491,464,cs),
(491,370,o),
(548,312,o),
(644,312,cs),
(652,312,o),
(661,313,o),
(669,314,c),
(629,221,o),
(615,171,o),
(615,118,cs),
(615,112,o),
(615,105,o),
(616,99,c),
(587,99,o),
(557,104,o),
(518,115,c),
(486,9,l),
(530,-4,o),
(565,-9,o),
(590,-9,cs)
);
},
{
closed = 1;
nodes = (
(185,344,o),
(167,368,o),
(167,409,cs),
(167,483,o),
(222,540,o),
(295,540,cs),
(310,540,o),
(323,537,o),
(335,531,c),
(296,425,ls),
(276,372,o),
(248,344,o),
(215,344,cs)
);
},
{
closed = 1;
nodes = (
(636,424,o),
(617,440,o),
(617,474,cs),
(617,516,o),
(641,540,o),
(681,540,cs),
(714,540,o),
(731,523,o),
(731,490,cs),
(731,474,o),
(728,456,o),
(718,429,c),
(702,426,o),
(687,424,o),
(674,424,cs)
);
}
);
width = 915;
}
);
note = uni121F;
unicode = 4639;
},
{
glyphname = uni1220;
lastChange = "2024-11-17 05:54:33 +0000";
layers = (
{
hints = (
{
horizontal = 1;
place = (204,112);
type = Stem;
},
{
horizontal = 1;
place = (68,111);
type = Stem;
},
{
place = (635,126);
type = Stem;
},
{
place = (375,126);
type = Stem;
},
{
place = (110,125);
type = Stem;
},
{
place = (70,127);
type = Stem;
}
);
layerId = m01;
shapes = (
{
closed = 1;
nodes = (
(322,68,o),
(407,121,o),
(455,214,c),
(474,207,o),
(496,204,o),
(519,204,cs),
(668,204,o),
(761,308,o),
(761,467,cs),
(761,512,o),
(751,558,o),
(733,595,c),
(616,558,l),
(627,521,o),
(635,498,o),
(635,457,cs),
(635,366,o),
(594,316,o),
(518,316,cs),
(509,316,o),
(499,317,o),
(492,318,c),
(498,352,o),
(501,387,o),
(501,425,cs),
(501,482,o),
(491,544,o),
(473,595,c),
(356,560,l),
(368,507,o),
(375,460,o),
(375,418,cs),
(375,280,o),
(316,179,o),
(234,179,cs),
(209,179,o),
(197,192,o),
(197,220,cs),
(197,305,o),
(235,386,o),
(235,472,cs),
(235,512,o),
(225,558,o),
(208,595,c),
(92,559,l),
(103,523,o),
(110,497,o),
(110,458,cs),
(110,376,o),
(70,300,o),
(70,218,cs),
(70,120,o),
(122,68,o),
(223,68,cs)
);
}
);
width = 806;
}
);
note = uni1220;
unicode = 4640;
},
{
glyphname = uni1221;
lastChange = "2024-11-17 05:54:33 +0000";
layers = (
{
hints = (
{
horizontal = 1;
place = (308,109);
type = Stem;
},
{
horizontal = 1;
place = (204,112);
type = Stem;
},
{
horizontal = 1;
place = (68,111);
type = Stem;
},
{
place = (635,126);
type = Stem;
},
{
place = (375,126);
type = Stem;
},
{
place = (110,125);
type = Stem;
},
{
place = (70,127);
type = Stem;
}
);
layerId = m01;
shapes = (
{
closed = 1;
nodes = (
(319,68,o),
(405,116,o),
(455,214,c),
(474,207,o),
(495,204,o),
(519,204,cs),
(597,204,o),
(666,233,o),
(711,297,c),
(749,298,o),
(766,308,o),
(824,308,cs),
(844,308,o),
(867,304,o),
(900,295,c),
(925,401,l),
(899,409,o),
(867,417,o),
(837,417,cs),
(809,417,o),
(782,411,o),
(755,408,c),
(759,429,o),
(761,452,o),
(761,473,cs),
(761,509,o),
(752,555,o),
(733,595,c),
(616,558,l),
(627,521,o),
(635,498,o),
(635,457,cs),
(635,356,o),
(585,316,o),
(517,316,cs),
(508,316,o),
(499,317,o),
(492,318,c),
(498,351,o),
(501,385,o),
(501,425,cs),
(501,506,o),
(483,566,o),
(473,595,c),
(356,560,l),
(368,507,o),
(375,462,o),
(375,419,cs),
(375,268,o),
(309,179,o),
(234,179,cs),
(214,179,o),
(197,187,o),
(197,220,cs),
(197,305,o),
(235,386,o),
(235,472,cs),
(235,509,o),
(227,555,o),
(208,595,c),
(92,559,l),
(105,523,o),
(110,497,o),
(110,458,cs),
(110,376,o),
(70,300,o),
(70,218,cs),
(70,115,o),
(127,68,o),
(223,68,cs)
);
}
);
width = 945;
}
);
note = uni1221;
unicode = 4641;
},
{
glyphname = uni1222;
kernRight = uni1202;
lastChange = "2024-11-17 05:54:33 +0000";
layers = (
{
hints = (
{
horizontal = 1;
place = (313,111);
type = Stem;
},
{
horizontal = 1;
place = (238,111);
type = Stem;
},
{
horizontal = 1;
place = (7,111);
type = Stem;
},
{
horizontal = 1;
place = (-9,111);
type = Stem;
},
{
place = (586,126);
type = Stem;
},
{
place = (452,126);
type = Stem;
},
{
place = (335,127);
type = Stem;
},
{
place = (84,126);
type = Stem;
},
{
place = (55,127);
type = Stem;
}
);
layerId = m01;
shapes = (
{
closed = 1;
nodes = (
(630,-9,o),
(662,7,o),
(694,7,cs),
(705,7,o),
(720,2,o),
(742,-9,c),
(787,91,l),
(756,110,o),
(729,118,o),
(703,118,cs),
(667,118,o),
(635,102,o),
(603,102,cs),
(586,102,o),
(578,115,o),
(578,140,cs),
(578,186,o),
(606,243,o),
(628,290,cs),
(668,371,o),
(712,456,o),
(712,548,cs),
(712,577,o),
(705,607,o),
(693,637,c),
(574,603,l),
(581,582,o),
(586,555,o),
(586,537,cs),
(586,469,o),
(547,424,o),
(490,424,cs),
(477,424,o),
(465,426,o),
(452,431,c),
(458,456,o),
(462,483,o),
(462,510,cs),
(462,549,o),
(453,598,o),
(439,638,c),
(321,602,l),
(331,568,o),
(335,538,o),
(335,514,cs),
(335,416,o),
(289,349,o),
(222,349,cs),
(195,349,o),
(182,363,o),
(182,391,cs),
(182,440,o),
(210,487,o),
(210,545,cs),
(210,570,o),
(204,597,o),
(191,638,c),
(72,601,l),
(77,580,o),
(84,557,o),
(84,535,cs),
(84,484,o),
(55,436,o),
(55,379,cs),
(55,291,o),
(114,238,o),
(213,238,cs),
(289,238,o),
(360,273,o),
(405,331,c),
(430,319,o),
(453,313,o),
(479,313,cs),
(492,313,o),
(504,314,o),
(515,317,c),
(482,252,o),
(452,188,o),
(452,127,cs),
(452,43,o),
(507,-9,o),
(594,-9,cs)
);
}
);
width = 807;
}
);
note = uni1222;
unicode = 4642;
},
{
glyphname = uni1223;
lastChange = "2024-11-17 05:54:33 +0000";
layers = (
{
hints = (
{
horizontal = 1;
place = (313,111);
type = Stem;
},
{
horizontal = 1;
place = (238,111);
type = Stem;
},
{
horizontal = 1;
place = (-4,21);
target = up;
type = BottomGhost;
},
{
place = (618,133);
type = Stem;
},
{
place = (476,133);
type = Stem;
},
{
place = (352,134);
type = Stem;
},
{
place = (86,133);
type = Stem;
},
{
place = (55,134);
type = Stem;
}
);
layerId = m01;
shapes = (
{
closed = 1;
nodes = (
(653,41,l),
(622,78,o),
(609,107,o),
(609,134,cs),
(609,173,o),
(625,216,o),
(673,309,cs),
(710,379,o),
(751,461,o),
(751,548,cs),
(751,577,o),
(744,607,o),
(732,637,c),
(605,603,l),
(612,582,o),
(618,555,o),
(618,537,cs),
(618,469,o),
(577,424,o),
(516,424,cs),
(502,424,o),
(490,426,o),
(476,431,c),
(484,459,o),
(486,487,o),
(486,514,cs),
(486,556,o),
(476,601,o),
(463,638,c),
(337,602,l),
(347,568,o),
(352,538,o),
(352,514,cs),
(352,416,o),
(304,349,o),
(232,349,cs),
(203,349,o),
(189,363,o),
(189,391,cs),
(189,443,o),
(219,491,o),
(219,545,cs),
(219,570,o),
(213,597,o),
(199,638,c),
(73,601,l),
(78,580,o),
(86,557,o),
(86,535,cs),
(86,484,o),
(55,436,o),
(55,379,cs),
(55,291,o),
(118,238,o),
(222,238,cs),
(304,238,o),
(379,273,o),
(427,331,c),
(452,319,o),
(477,313,o),
(505,313,cs),
(519,313,o),
(531,314,o),
(544,317,c),
(494,222,o),
(476,174,o),
(476,123,cs),
(476,79,o),
(493,38,o),
(524,-4,c)
);
}
);
width = 806;
}
);
note = uni1223;
unicode = 4643;
},
{
glyphname = uni1224;
kernRight = uni1202;
lastChange = "2024-11-17 05:54:33 +0000";
layers = (
{
hints = (
{
horizontal = 1;
place = (313,111);
type = Stem;
},
{
horizontal = 1;
place = (238,111);
type = Stem;
},
{
horizontal = 1;
place = (192,111);
type = Stem;
},
{
horizontal = 1;
place = (-9,111);
type = Stem;
},
{
place = (707,133);
type = Stem;
},
{
place = (618,133);
type = Stem;
},
{
place = (476,133);
type = Stem;
},
{
place = (352,134);
type = Stem;
},
{
place = (86,133);
type = Stem;
},
{
place = (55,134);
type = Stem;
}
);
layerId = m01;
shapes = (
{
closed = 1;
nodes = (
(751,-9,o),
(840,69,o),
(840,170,cs),
(840,251,o),
(784,303,o),
(696,303,cs),
(688,303,o),
(680,303,o),
(671,302,c),
(710,375,o),
(751,462,o),
(751,549,cs),
(751,578,o),
(744,608,o),
(732,637,c),
(605,603,l),
(612,582,o),
(618,555,o),
(618,537,cs),
(618,469,o),
(577,424,o),
(515,424,cs),
(501,424,o),
(489,426,o),
(476,431,c),
(484,459,o),
(486,486,o),
(486,513,cs),
(486,555,o),
(476,601,o),
(463,638,c),
(337,602,l),
(348,566,o),
(352,536,o),
(352,512,cs),
(352,416,o),
(304,349,o),
(233,349,cs),
(204,349,o),
(189,363,o),
(189,391,cs),
(189,444,o),
(219,493,o),
(219,547,cs),
(219,569,o),
(215,593,o),
(199,638,c),
(73,601,l),
(78,580,o),
(86,557,o),
(86,535,cs),
(86,481,o),
(55,433,o),
(55,379,cs),
(55,291,o),
(118,238,o),
(222,238,cs),
(304,238,o),
(379,273,o),
(427,331,c),
(452,319,o),
(477,313,o),
(505,313,cs),
(518,313,o),
(531,314,o),
(544,317,c),
(508,251,o),
(476,193,o),
(476,130,cs),
(476,43,o),
(536,-9,o),
(634,-9,cs)
);
},
{
closed = 1;
nodes = (
(621,102,o),
(609,114,o),
(609,141,cs),
(609,153,o),
(611,166,o),
(616,182,c),
(633,189,o),
(650,192,o),
(667,192,cs),
(694,192,o),
(707,180,o),
(707,157,cs),
(707,123,o),
(684,102,o),
(646,102,cs)
);
}
);
width = 870;
}
);
note = uni1224;
unicode = 4644;
},
{
glyphname = uni1225;
lastChange = "2024-11-17 05:54:33 +0000";
layers = (
{
hints = (
{
horizontal = 1;
place = (305,111);
type = Stem;
},
{
horizontal = 1;
place = (238,111);
type = Stem;
},
{
horizontal = 1;
place = (-4,21);
target = up;
type = BottomGhost;
},
{
place = (850,134);
type = Stem;
},
{
place = (599,134);
type = Stem;
},
{
place = (345,135);
type = Stem;
},
{
place = (20,134);
type = Stem;
}
);
layerId = m01;
shapes = (
{
closed = 1;
nodes = (
(165,29,l),
(158,45,o),
(154,56,o),
(154,61,cs),
(154,105,o),
(193,154,o),
(303,244,cs),
(315,253,o),
(327,263,o),
(338,273,c),
(372,250,o),
(417,238,o),
(469,238,cs),
(548,238,o),
(616,268,o),
(663,321,c),
(686,311,o),
(715,305,o),
(747,305,cs),
(890,305,o),
(984,399,o),
(984,543,cs),
(984,570,o),
(979,599,o),
(966,638,c),
(838,600,l),
(847,572,o),
(850,553,o),
(850,536,cs),
(850,461,o),
(812,416,o),
(746,416,cs),
(735,416,o),
(726,417,o),
(717,419,c),
(728,454,o),
(733,491,o),
(733,527,cs),
(733,565,o),
(725,603,o),
(709,638,c),
(583,600,l),
(594,568,o),
(599,545,o),
(599,519,cs),
(599,413,o),
(551,349,o),
(473,349,cs),
(453,349,o),
(435,353,o),
(421,360,c),
(462,414,o),
(480,466,o),
(480,532,cs),
(480,565,o),
(474,597,o),
(458,638,c),
(328,599,l),
(340,572,o),
(345,547,o),
(345,527,cs),
(345,457,o),
(307,404,o),
(200,315,cs),
(72,208,o),
(20,134,o),
(20,64,cs),
(20,47,o),
(26,23,o),
(35,-4,c)
);
}
);
width = 1014;
}
);
note = uni1225;
unicode = 4645;
},
{
glyphname = uni1226;
lastChange = "2024-11-17 05:54:33 +0000";
layers = (
{
hints = (
{
horizontal = 1;
place = (335,111);
type = Stem;
},
{
horizontal = 1;
place = (-4,21);
target = up;
type = BottomGhost;
},
{
place = (632,135);
type = Stem;
},
{
place = (376,134);
type = Stem;
},
{
place = (118,134);
type = Stem;
},
{
place = (79,135);
type = Stem;
},
{
place = (60,134);
type = Stem;
}
);
layerId = m01;
shapes = (
{
closed = 1;
nodes = (
(205,29,l),
(196,44,o),
(194,56,o),
(194,61,cs),
(194,109,o),
(262,161,o),
(310,198,cs),
(363,239,o),
(427,290,o),
(463,346,c),
(484,338,o),
(509,335,o),
(537,335,cs),
(673,335,o),
(767,420,o),
(767,542,cs),
(767,560,o),
(767,591,o),
(754,638,c),
(626,600,l),
(632,571,o),
(632,557,o),
(632,557,c),
(632,492,o),
(590,446,o),
(532,446,cs),
(522,446,o),
(514,447,o),
(504,450,c),
(508,472,o),
(510,495,o),
(510,521,cs),
(510,558,o),
(503,609,o),
(492,638,c),
(365,600,l),
(371,574,o),
(376,544,o),
(376,522,cs),
(376,424,o),
(323,350,o),
(252,350,cs),
(227,350,o),
(214,361,o),
(214,382,cs),
(214,435,o),
(252,495,o),
(252,565,cs),
(252,584,o),
(252,608,o),
(241,641,c),
(109,599,l),
(118,583,o),
(118,567,o),
(118,559,cs),
(118,502,o),
(79,433,o),
(79,373,cs),
(79,314,o),
(108,268,o),
(153,249,cs),
(162,245,o),
(172,242,o),
(183,240,c),
(96,170,o),
(60,116,o),
(60,62,cs),
(60,46,o),
(66,22,o),
(76,-4,c)
);
}
);
width = 797;
}
);
note = uni1226;
unicode = 4646;
},
{
glyphname = uni1227;
kernRight = uni1202;
lastChange = "2024-11-17 05:54:33 +0000";
layers = (
{
hints = (
{
horizontal = 1;
place = (313,111);
type = Stem;
},
{
horizontal = 1;
place = (238,111);
type = Stem;
},
{
horizontal = 1;
place = (8,107);
type = Stem;
},
{
horizontal = 1;
place = (-13,108);
type = Stem;
},
{
horizontal = 1;
place = (-5,21);
target = up;
type = BottomGhost;
},
{
place = (618,133);
type = Stem;
},
{
place = (476,133);
type = Stem;
},
{
place = (352,134);
type = Stem;
},
{
place = (86,133);
type = Stem;
},
{
place = (55,134);
type = Stem;
}
);
layerId = m01;
shapes = (
{
closed = 1;
nodes = (
(522,-13,o),
(592,8,o),
(664,8,cs),
(685,8,o),
(711,3,o),
(738,-5,c),
(773,101,l),
(741,110,o),
(710,115,o),
(683,115,cs),
(659,115,o),
(636,113,o),
(612,110,c),
(610,116,o),
(609,124,o),
(609,132,cs),
(609,251,o),
(751,385,o),
(751,549,cs),
(751,578,o),
(744,608,o),
(732,637,c),
(605,603,l),
(612,582,o),
(618,555,o),
(618,537,cs),
(618,469,o),
(577,424,o),
(515,424,cs),
(501,424,o),
(489,426,o),
(476,431,c),
(484,460,o),
(486,489,o),
(486,519,cs),
(486,555,o),
(476,600,o),
(463,638,c),
(337,602,l),
(348,566,o),
(352,536,o),
(352,512,cs),
(352,416,o),
(304,349,o),
(233,349,cs),
(204,349,o),
(189,363,o),
(189,391,cs),
(189,444,o),
(219,493,o),
(219,547,cs),
(219,569,o),
(215,593,o),
(199,638,c),
(73,601,l),
(78,580,o),
(86,557,o),
(86,535,cs),
(86,481,o),
(55,433,o),
(55,379,cs),
(55,291,o),
(118,238,o),
(222,238,cs),
(304,238,o),
(379,273,o),
(427,331,c),
(452,319,o),
(477,313,o),
(505,313,cs),
(518,313,o),
(531,314,o),
(544,317,c),
(493,220,o),
(476,174,o),
(476,123,cs),
(476,113,o),
(477,104,o),
(478,95,c),
(447,95,o),
(414,101,o),
(373,111,c),
(339,6,l),
(386,-7,o),
(422,-13,o),
(449,-13,cs)
);
}
);
width = 823;
}
);
note = uni1227;
unicode = 4647;
},
{
glyphname = uni1228;
lastChange = "2024-11-17 05:54:33 +0000";
layers = (
{
hints = (
{
horizontal = 1;
place = (28,112);
type = Stem;
},
{
horizontal = 1;
place = (-9,111);
type = Stem;
},
{
horizontal = 1;
place = (-4,21);
target = up;
type = BottomGhost;
},
{
place = (284,134);
type = Stem;
},
{
place = (30,134);
type = Stem;
}
);
layerId = m01;
shapes = (
{
closed = 1;
nodes = (
(301,-9,o),
(361,28,o),
(414,28,cs),
(428,28,o),
(437,19,o),
(445,-4,c),
(572,25,l),
(555,98,o),
(503,140,o),
(427,140,cs),
(358,140,o),
(305,102,o),
(244,102,cs),
(195,102,o),
(164,131,o),
(164,180,cs),
(164,218,o),
(184,245,o),
(245,288,cs),
(368,375,o),
(418,445,o),
(418,527,cs),
(418,566,o),
(403,606,o),
(375,638,c),
(262,584,l),
(277,561,o),
(284,541,o),
(284,523,cs),
(284,476,o),
(262,447,o),
(182,387,cs),
(68,302,o),
(30,247,o),
(30,171,cs),
(30,63,o),
(110,-9,o),
(226,-9,cs)
);
}
);
width = 592;
}
);
note = uni1228;
unicode = 4648;
},
{
glyphname = uni1229;
lastChange = "2024-11-17 05:54:33 +0000";
layers = (
{
hints = (
{
horizontal = 1;
place = (156,111);
type = Stem;
},
{
horizontal = 1;
place = (-5,21);
target = up;
type = BottomGhost;
},
{
place = (264,134);
type = Stem;
},
{
place = (30,134);
type = Stem;
}
);
layerId = m01;
shapes = (
{
closed = 1;
nodes = (
(345,31,l),
(333,67,o),
(331,102,o),
(330,139,c),
(358,148,o),
(381,156,o),
(403,156,cs),
(418,156,o),
(427,146,o),
(435,124,c),
(563,152,l),
(545,224,o),
(492,267,o),
(420,267,cs),
(352,267,o),
(291,230,o),
(224,230,cs),
(186,230,o),
(164,244,o),
(164,272,cs),
(164,301,o),
(188,323,o),
(250,357,cs),
(364,420,o),
(398,468,o),
(398,533,cs),
(398,569,o),
(383,606,o),
(355,638,c),
(243,585,l),
(256,562,o),
(264,543,o),
(264,531,cs),
(264,506,o),
(238,481,o),
(132,420,cs),
(107,406,o),
(30,361,o),
(30,269,cs),
(30,182,o),
(95,125,o),
(197,119,c),
(198,83,o),
(199,48,o),
(219,-5,c)
);
}
);
width = 583;
}
);
note = uni1229;
unicode = 4649;
},
{
glyphname = uni122A;
lastChange = "2024-11-17 05:54:33 +0000";
layers = (
{
hints = (
{
horizontal = 1;
place = (-9,111);
type = Stem;
},
{
place = (356,134);
type = Stem;
},
{
place = (284,134);
type = Stem;
},
{
place = (30,134);
type = Stem;
}
);
layerId = m01;
shapes = (
{
closed = 1;
nodes = (
(380,-9,o),
(490,75,o),
(490,183,cs),
(490,200,o),
(486,217,o),
(474,242,c),
(344,210,l),
(351,192,o),
(356,177,o),
(356,171,cs),
(356,135,o),
(304,102,o),
(246,102,cs),
(195,102,o),
(164,131,o),
(164,179,cs),
(164,219,o),
(186,246,o),
(253,293,cs),
(369,376,o),
(418,446,o),
(418,527,cs),
(418,566,o),
(403,606,o),
(375,638,c),
(262,584,l),
(277,561,o),
(284,541,o),
(284,523,cs),
(284,476,o),
(262,447,o),
(183,388,cs),
(68,303,o),
(30,247,o),
(30,171,cs),
(30,61,o),
(111,-9,o),
(240,-9,cs)
);
}
);
width = 540;
}
);
note = uni122A;
unicode = 4650;
},
{
glyphname = uni122B;
kernRight = uni1202;
lastChange = "2024-11-17 05:54:33 +0000";
layers = (
{
hints = (
{
horizontal = 1;
place = (184,112);
type = Stem;
},
{
horizontal = 1;
place = (-9,111);
type = Stem;
},
{
place = (284,134);
type = Stem;
},
{
place = (30,134);
type = Stem;
}
);
layerId = m01;
shapes = (
{
closed = 1;
nodes = (
(357,-9,o),
(428,36,o),
(474,135,cs),
(490,169,o),
(502,184,o),
(518,184,cs),
(528,184,o),
(538,172,o),
(545,152,c),
(672,180,l),
(655,254,o),
(600,296,o),
(524,296,cs),
(449,296,o),
(401,262,o),
(360,183,cs),
(330,125,o),
(299,102,o),
(250,102,cs),
(196,102,o),
(164,131,o),
(164,179,cs),
(164,218,o),
(184,245,o),
(245,288,cs),
(368,375,o),
(418,445,o),
(418,527,cs),
(418,566,o),
(403,606,o),
(375,638,c),
(262,584,l),
(277,561,o),
(284,541,o),
(284,523,cs),
(284,476,o),
(262,447,o),
(182,387,cs),
(68,302,o),
(30,247,o),
(30,171,cs),
(30,60,o),
(113,-9,o),
(247,-9,cs)
);
}
);
width = 692;
}
);
note = uni122B;
unicode = 4651;
},
{
glyphname = uni122C;
kernRight = uni1202;
lastChange = "2024-11-17 05:54:33 +0000";
layers = (
{
hints = (
{
horizontal = 1;
place = (191,112);
type = Stem;
},
{
horizontal = 1;
place = (-9,111);
type = Stem;
},
{
place = (571,133);
type = Stem;
},
{
place = (284,134);
type = Stem;
},
{
place = (30,134);
type = Stem;
}
);
layerId = m01;
shapes = (
{
closed = 1;
nodes = (
(298,-9,o),
(348,4,o),
(387,30,c),
(426,5,o),
(474,-9,o),
(523,-9,cs),
(632,-9,o),
(704,54,o),
(704,154,cs),
(704,245,o),
(643,303,o),
(543,303,cs),
(464,303,o),
(414,268,o),
(360,182,cs),
(322,122,o),
(294,102,o),
(250,102,cs),
(196,102,o),
(164,131,o),
(164,179,cs),
(164,218,o),
(184,245,o),
(245,288,cs),
(368,375,o),
(418,445,o),
(418,527,cs),
(418,566,o),
(403,606,o),
(375,638,c),
(262,584,l),
(277,561,o),
(284,541,o),
(284,523,cs),
(284,476,o),
(262,447,o),
(182,387,cs),
(68,302,o),
(30,247,o),
(30,170,cs),
(30,60,o),
(112,-9,o),
(242,-9,cs)
);
},
{
closed = 1;
nodes = (
(503,101,o),
(483,107,o),
(466,117,c),
(503,174,o),
(518,191,o),
(539,191,cs),
(559,191,o),
(571,175,o),
(571,148,cs),
(571,118,o),
(554,101,o),
(523,101,cs)
);
}
);
width = 734;
}
);
note = uni122C;
unicode = 4652;
},
{
glyphname = uni122D;
lastChange = "2024-11-17 05:54:33 +0000";
layers = (
{
hints = (
{
horizontal = 1;
place = (531,111);
type = Stem;
},
{
horizontal = 1;
place = (28,112);
type = Stem;
},
{
horizontal = 1;
place = (-9,111);
type = Stem;
},
{
horizontal = 1;
place = (-4,21);
target = up;
type = BottomGhost;
},
{
place = (60,134);
type = Stem;
}
);
layerId = m01;
shapes = (
{
closed = 1;
nodes = (
(329,-9,o),
(378,28,o),
(412,28,cs),
(421,28,o),
(432,20,o),
(436,-4,c),
(564,25,l),
(546,97,o),
(499,140,o),
(435,140,cs),
(378,140,o),
(326,102,o),
(288,102,cs),
(229,102,o),
(194,168,o),
(194,277,cs),
(194,423,o),
(258,531,o),
(344,531,cs),
(379,531,o),
(408,505,o),
(422,462,c),
(551,498,l),
(516,592,o),
(447,642,o),
(355,642,cs),
(181,642,o),
(60,487,o),
(60,265,cs),
(60,90,o),
(134,-9,o),
(262,-9,cs)
);
}
);
width = 594;
}
);
note = uni122D;
unicode = 4653;
},
{
glyphname = uni122E;
lastChange = "2024-11-17 05:54:33 +0000";
layers = (
{
hints = (
{
horizontal = 1;
place = (536,108);
type = Stem;
},
{
horizontal = 1;
place = (512,108);
type = Stem;
},
{
horizontal = 1;
place = (341,108);
type = Stem;
},
{
horizontal = 1;
place = (26,107);
type = Stem;
},
{
horizontal = 1;
place = (-9,107);
type = Stem;
},
{
place = (555,134);
type = Stem;
},
{
place = (334,129);
type = Stem;
},
{
place = (60,134);
type = Stem;
}
);
layerId = m01;
shapes = (
{
closed = 1;
nodes = (
(320,-9,o),
(381,26,o),
(412,26,cs),
(421,26,o),
(431,17,o),
(436,-4,c),
(564,23,l),
(546,92,o),
(499,133,o),
(435,133,cs),
(380,133,o),
(335,98,o),
(287,98,cs),
(228,98,o),
(194,164,o),
(194,283,cs),
(194,422,o),
(240,512,o),
(311,512,cs),
(319,512,o),
(327,511,o),
(337,510,c),
(335,500,o),
(334,489,o),
(334,479,cs),
(334,395,o),
(394,341,o),
(491,341,cs),
(603,341,o),
(689,415,o),
(689,509,cs),
(689,593,o),
(624,644,o),
(519,644,cs),
(472,644,o),
(430,634,o),
(395,611,c),
(370,617,o),
(345,620,o),
(319,620,cs),
(155,620,o),
(60,494,o),
(60,276,cs),
(60,90,o),
(130,-9,o),
(260,-9,cs)
);
},
{
closed = 1;
nodes = (
(475,449,o),
(463,465,o),
(463,498,cs),
(463,506,o),
(464,515,o),
(465,524,c),
(480,533,o),
(495,536,o),
(511,536,cs),
(540,536,o),
(555,524,o),
(555,501,cs),
(555,471,o),
(532,449,o),
(499,449,cs)
);
}
);
width = 742;
}
);
note = uni122E;
unicode = 4654;
},
{
glyphname = uni122F;
kernRight = uni1202;
lastChange = "2024-11-17 05:54:33 +0000";
layers = (
{
hints = (
{
horizontal = 1;
place = (561,108);
type = Stem;
},
{
horizontal = 1;
place = (540,108);
type = Stem;
},
{
horizontal = 1;
place = (184,112);
type = Stem;
},
{
horizontal = 1;
place = (-9,111);
type = Stem;
},
{
place = (284,134);
type = Stem;
},
{
place = (30,134);
type = Stem;
}
);
layerId = m01;
shapes = (
{
closed = 1;
nodes = (
(357,-9,o),
(428,36,o),
(474,135,cs),
(490,169,o),
(502,184,o),
(518,184,cs),
(528,184,o),
(538,172,o),
(545,152,c),
(672,180,l),
(655,254,o),
(600,296,o),
(524,296,cs),
(449,296,o),
(401,262,o),
(360,183,cs),
(330,125,o),
(299,102,o),
(250,102,cs),
(196,102,o),
(164,131,o),
(164,179,cs),
(164,218,o),
(184,245,o),
(245,288,cs),
(368,375,o),
(418,445,o),
(418,528,cs),
(418,539,o),
(417,550,o),
(416,559,c),
(429,560,o),
(441,561,o),
(452,561,cs),
(474,561,o),
(501,556,o),
(528,549,c),
(563,655,l),
(531,664,o),
(501,669,o),
(477,669,cs),
(405,669,o),
(333,648,o),
(261,648,cs),
(238,648,o),
(206,653,o),
(163,665,c),
(129,559,l),
(176,546,o),
(212,540,o),
(240,540,cs),
(254,540,o),
(268,541,o),
(283,542,c),
(284,537,o),
(284,531,o),
(284,523,cs),
(284,476,o),
(262,447,o),
(182,387,cs),
(68,302,o),
(30,247,o),
(30,171,cs),
(30,60,o),
(113,-9,o),
(247,-9,cs)
);
}
);
width = 692;
}
);
note = uni122F;
unicode = 4655;
},
{
glyphname = uni1230;
kernRight = uni1208;
lastChange = "2024-11-17 05:54:33 +0000";
layers = (
{
hints = (
{
horizontal = 1;
place = (-4,21);
target = up;
type = BottomGhost;
},
{
horizontal = 1;
place = (-5,21);
target = up;
type = BottomGhost;
},
{
place = (388,134);
type = Stem;
},
{
place = (372,134);
type = Stem;
},
{
place = (60,134);
type = Stem;
}
);
layerId = m01;
shapes = (
{
closed = 1;
nodes = (
(217,29,l),
(202,101,o),
(194,183,o),
(194,230,cs),
(194,359,o),
(239,404,o),
(323,404,cs),
(369,404,o),
(388,389,o),
(388,355,cs),
(388,284,o),
(372,214,o),
(372,143,cs),
(372,85,o),
(381,38,o),
(397,-4,c),
(527,31,l),
(516,55,o),
(506,105,o),
(506,146,cs),
(506,217,o),
(522,287,o),
(522,358,cs),
(522,446,o),
(475,498,o),
(376,511,c),
(375,561,o),
(364,619,o),
(348,674,c),
(223,638,l),
(235,581,o),
(241,542,o),
(243,508,c),
(117,483,o),
(60,392,o),
(60,222,cs),
(60,158,o),
(70,77,o),
(85,-5,c)
);
}
);
width = 597;
}
);
note = uni1230;
unicode = 4656;
},
{
glyphname = uni1231;
lastChange = "2024-11-17 05:54:33 +0000";
layers = (
{
hints = (
{
horizontal = 1;
place = (218,109);
type = Stem;
},
{
horizontal = 1;
place = (-4,21);
target = up;
type = BottomGhost;
},
{
horizontal = 1;
place = (-5,21);
target = up;
type = BottomGhost;
},
{
place = (388,134);
type = Stem;
},
{
place = (372,134);
type = Stem;
},
{
place = (60,134);
type = Stem;
}
);
layerId = m01;
shapes = (
{
closed = 1;
nodes = (
(217,29,l),
(202,101,o),
(194,183,o),
(194,230,cs),
(194,359,o),
(239,404,o),
(323,404,cs),
(369,404,o),
(386,389,o),
(388,355,cs),
(393,284,o),
(372,224,o),
(372,143,cs),
(372,85,o),
(381,38,o),
(397,-4,c),
(527,31,l),
(516,55,o),
(506,103,o),
(506,140,cs),
(506,158,o),
(508,184,o),
(510,211,c),
(534,212,o),
(558,218,o),
(582,218,cs),
(597,218,o),
(613,216,o),
(661,205,c),
(687,310,l),
(656,320,o),
(624,327,o),
(598,327,cs),
(572,327,o),
(546,321,o),
(520,320,c),
(521,334,o),
(522,348,o),
(522,359,cs),
(522,447,o),
(474,498,o),
(376,511,c),
(375,561,o),
(364,619,o),
(348,674,c),
(223,638,l),
(235,581,o),
(241,542,o),
(243,508,c),
(117,483,o),
(60,392,o),
(60,222,cs),
(60,158,o),
(70,77,o),
(85,-5,c)
);
}
);
width = 747;
}
);
note = uni1231;
unicode = 4657;
},
{
glyphname = uni1232;
kernRight = uni120A;
lastChange = "2024-11-17 05:54:33 +0000";
layers = (
{
hints = (
{
horizontal = 1;
place = (8,111);
type = Stem;
},
{
horizontal = 1;
place = (-8,111);
type = Stem;
},
{
horizontal = 1;
place = (-5,21);
target = up;
type = BottomGhost;
},
{
place = (388,134);
type = Stem;
},
{
place = (373,133);
type = Stem;
},
{
place = (60,134);
type = Stem;
}
);
layerId = m01;
shapes = (
{
closed = 1;
nodes = (
(571,-8,o),
(607,8,o),
(642,8,cs),
(653,8,o),
(670,3,o),
(693,-8,c),
(740,92,l),
(708,111,o),
(679,119,o),
(651,119,cs),
(611,119,o),
(576,103,o),
(541,103,cs),
(516,103,o),
(506,121,o),
(506,169,cs),
(506,232,o),
(522,295,o),
(522,358,cs),
(522,446,o),
(475,498,o),
(376,511,c),
(375,560,o),
(364,618,o),
(348,674,c),
(223,638,l),
(235,581,o),
(241,542,o),
(243,508,c),
(117,483,o),
(60,392,o),
(60,221,cs),
(60,161,o),
(69,81,o),
(86,-5,c),
(217,29,l),
(204,91,o),
(194,174,o),
(194,230,cs),
(194,351,o),
(233,404,o),
(323,404,cs),
(369,404,o),
(388,389,o),
(388,355,cs),
(388,298,o),
(373,241,o),
(373,183,cs),
(373,47,o),
(418,-8,o),
(529,-8,cs)
);
}
);
width = 748;
}
);
note = uni1232;
unicode = 4658;
},
{
glyphname = uni1233;
kernRight = uni1208;
lastChange = "2024-11-17 05:54:33 +0000";
layers = (
{
hints = (
{
horizontal = 1;
place = (-4,21);
target = up;
type = BottomGhost;
},
{
place = (388,134);
type = Stem;
},
{
place = (372,134);
type = Stem;
},
{
place = (60,134);
type = Stem;
}
);
layerId = m01;
shapes = (
{
closed = 1;
nodes = (
(527,31,l),
(516,55,o),
(506,105,o),
(506,146,cs),
(506,185,o),
(511,230,o),
(516,271,cs),
(519,304,o),
(522,335,o),
(522,358,cs),
(522,446,o),
(475,498,o),
(376,511,c),
(375,561,o),
(364,619,o),
(348,674,c),
(223,638,l),
(235,581,o),
(241,542,o),
(243,508,c),
(117,483,o),
(60,392,o),
(60,222,cs),
(60,182,o),
(64,141,o),
(72,95,c),
(204,121,l),
(197,163,o),
(194,200,o),
(194,228,cs),
(194,359,o),
(236,404,o),
(321,404,cs),
(369,404,o),
(388,389,o),
(388,355,cs),
(388,340,o),
(386,318,o),
(383,292,cs),
(378,250,o),
(372,198,o),
(372,143,cs),
(372,85,o),
(381,38,o),
(397,-4,c)
);
}
);
width = 597;
}
);
note = uni1233;
unicode = 4659;
},
{
glyphname = uni1234;
kernRight = uni1202;
lastChange = "2024-11-17 05:54:33 +0000";
layers = (
{
hints = (
{
horizontal = 1;
place = (192,111);
type = Stem;
},
{
horizontal = 1;
place = (-9,111);
type = Stem;
},
{
horizontal = 1;
place = (-5,21);
target = up;
type = BottomGhost;
},
{
place = (604,133);
type = Stem;
},
{
place = (388,134);
type = Stem;
},
{
place = (373,130);
type = Stem;
},
{
place = (60,134);
type = Stem;
}
);
layerId = m01;
shapes = (
{
closed = 1;
nodes = (
(651,-9,o),
(737,66,o),
(737,168,cs),
(737,251,o),
(681,303,o),
(593,303,cs),
(568,303,o),
(541,298,o),
(516,291,c),
(521,327,o),
(522,345,o),
(522,361,cs),
(522,447,o),
(474,498,o),
(376,511,c),
(374,563,o),
(363,622,o),
(348,674,c),
(222,638,l),
(233,590,o),
(241,548,o),
(243,508,c),
(117,483,o),
(60,392,o),
(60,222,cs),
(60,158,o),
(70,77,o),
(85,-5,c),
(217,29,l),
(202,101,o),
(194,183,o),
(194,230,cs),
(194,359,o),
(239,404,o),
(323,404,cs),
(369,404,o),
(388,389,o),
(388,355,cs),
(388,300,o),
(373,246,o),
(373,191,cs),
(373,49,o),
(419,-9,o),
(530,-9,cs)
);
},
{
closed = 1;
nodes = (
(517,102,o),
(503,119,o),
(503,155,cs),
(503,162,o),
(504,170,o),
(505,179,c),
(524,187,o),
(545,192,o),
(564,192,cs),
(590,192,o),
(604,180,o),
(604,157,cs),
(604,124,o),
(582,102,o),
(546,102,cs)
);
}
);
width = 767;
}
);
note = uni1234;
unicode = 4660;
},
{
glyphname = uni1235;
kernRight = uni1208;
lastChange = "2024-11-17 05:54:33 +0000";
layers = (
{
hints = (
{
horizontal = 1;
place = (-4,21);
target = up;
type = BottomGhost;
},
{
horizontal = 1;
place = (-5,21);
target = up;
type = BottomGhost;
},
{
place = (388,134);
type = Stem;
},
{
place = (372,134);
type = Stem;
},
{
place = (60,134);
type = Stem;
}
);
layerId = m01;
shapes = (
{
closed = 1;
nodes = (
(217,29,l),
(202,101,o),
(194,183,o),
(194,230,cs),
(194,359,o),
(239,404,o),
(323,404,cs),
(369,404,o),
(389,389,o),
(388,355,cs),
(386,291,o),
(371,227,o),
(372,143,cs),
(373,85,o),
(381,38,o),
(397,-4,c),
(527,31,l),
(516,55,o),
(506,105,o),
(506,146,cs),
(506,217,o),
(522,287,o),
(522,358,cs),
(522,450,o),
(470,501,o),
(364,513,c),
(314,551,o),
(275,610,o),
(257,674,c),
(130,638,l),
(144,590,o),
(173,536,o),
(205,498,c),
(106,462,o),
(60,374,o),
(60,223,cs),
(60,158,o),
(70,77,o),
(85,-5,c)
);
}
);
width = 597;
}
);
note = uni1235;
unicode = 4661;
},
{
glyphname = uni1236;
kernRight = uni1208;
lastChange = "2024-11-17 05:54:33 +0000";
layers = (
{
hints = (
{
horizontal = 1;
place = (-5,21);
target = up;
type = BottomGhost;
},
{
place = (388,134);
type = Stem;
},
{
place = (372,134);
type = Stem;
},
{
place = (60,134);
type = Stem;
}
);
layerId = m01;
shapes = (
{
closed = 1;
nodes = (
(217,29,l),
(202,101,o),
(194,183,o),
(194,230,cs),
(194,359,o),
(239,404,o),
(323,404,cs),
(369,404,o),
(388,389,o),
(388,355,cs),
(388,289,o),
(372,225,o),
(372,159,cs),
(372,144,o),
(373,123,o),
(377,95,c),
(511,120,l),
(507,146,o),
(506,164,o),
(506,176,cs),
(506,237,o),
(522,297,o),
(522,358,cs),
(522,446,o),
(474,497,o),
(376,511,c),
(375,561,o),
(364,619,o),
(348,674,c),
(223,638,l),
(235,581,o),
(241,542,o),
(243,508,c),
(117,483,o),
(60,392,o),
(60,222,cs),
(60,158,o),
(70,77,o),
(85,-5,c)
);
}
);
width = 592;
}
);
note = uni1236;
unicode = 4662;
},
{
glyphname = uni1237;
kernRight = uni1202;
lastChange = "2024-11-17 05:54:33 +0000";
layers = (
{
hints = (
{
horizontal = 1;
place = (8,107);
type = Stem;
},
{
horizontal = 1;
place = (-13,108);
type = Stem;
},
{
horizontal = 1;
place = (-5,21);
target = up;
type = BottomGhost;
},
{
place = (388,134);
type = Stem;
},
{
place = (372,134);
type = Stem;
},
{
place = (60,134);
type = Stem;
}
);
layerId = m01;
shapes = (
{
closed = 1;
nodes = (
(412,-13,o),
(483,8,o),
(555,8,cs),
(575,8,o),
(601,3,o),
(628,-5,c),
(663,101,l),
(631,110,o),
(600,115,o),
(573,115,cs),
(552,115,o),
(531,114,o),
(507,111,c),
(507,120,o),
(506,128,o),
(506,140,cs),
(506,183,o),
(511,231,o),
(516,272,cs),
(519,306,o),
(522,335,o),
(522,358,cs),
(522,446,o),
(475,498,o),
(376,511,c),
(375,561,o),
(364,619,o),
(348,674,c),
(223,638,l),
(235,581,o),
(241,542,o),
(243,508,c),
(117,483,o),
(60,392,o),
(60,222,cs),
(60,182,o),
(64,141,o),
(72,95,c),
(204,121,l),
(197,163,o),
(194,200,o),
(194,228,cs),
(194,359,o),
(236,404,o),
(321,404,cs),
(369,404,o),
(388,389,o),
(388,355,cs),
(388,341,o),
(386,320,o),
(383,294,cs),
(378,251,o),
(372,195,o),
(372,134,cs),
(372,119,o),
(372,106,o),
(373,95,c),
(369,95,o),
(364,95,o),
(359,95,cs),
(338,95,o),
(306,100,o),
(263,112,c),
(229,6,l),
(276,-7,o),
(312,-13,o),
(339,-13,cs)
);
}
);
width = 683;
}
);
note = uni1237;
unicode = 4663;
},
{
glyphname = uni1238;
lastChange = "2024-11-17 05:54:33 +0000";
layers = (
{
hints = (
{
horizontal = 1;
place = (561,108);
type = Stem;
},
{
horizontal = 1;
place = (540,108);
type = Stem;
},
{
horizontal = 1;
place = (-4,21);
target = up;
type = BottomGhost;
},
{
horizontal = 1;
place = (-5,21);
target = up;
type = BottomGhost;
},
{
place = (388,134);
type = Stem;
},
{
place = (372,134);
type = Stem;
},
{
place = (242,134);
type = Stem;
},
{
place = (60,134);
type = Stem;
}
);
layerId = m01;
shapes = (
{
closed = 1;
nodes = (
(217,29,l),
(202,101,o),
(194,183,o),
(194,230,cs),
(194,359,o),
(239,404,o),
(323,404,cs),
(369,404,o),
(388,389,o),
(388,355,cs),
(388,340,o),
(386,318,o),
(383,292,cs),
(378,250,o),
(372,198,o),
(372,143,cs),
(372,85,o),
(381,38,o),
(397,-4,c),
(527,31,l),
(516,55,o),
(506,105,o),
(506,146,cs),
(506,185,o),
(511,230,o),
(516,271,cs),
(519,304,o),
(522,335,o),
(522,358,cs),
(522,446,o),
(475,498,o),
(376,511,c),
(376,532,o),
(375,543,o),
(373,559,c),
(387,560,o),
(400,561,o),
(412,561,cs),
(434,561,o),
(461,556,o),
(488,549,c),
(523,655,l),
(491,664,o),
(461,669,o),
(436,669,cs),
(364,669,o),
(293,648,o),
(221,648,cs),
(198,648,o),
(166,653,o),
(123,665,c),
(89,559,l),
(136,546,o),
(172,540,o),
(200,540,cs),
(213,540,o),
(227,541,o),
(240,542,c),
(242,528,o),
(242,521,o),
(242,508,c),
(115,484,o),
(60,394,o),
(60,222,cs),
(60,158,o),
(70,77,o),
(85,-5,c)
);
}
);
width = 597;
}
);
note = uni1238;
unicode = 4664;
},
{
glyphname = uni1239;
lastChange = "2024-11-17 05:54:33 +0000";
layers = (
{
hints = (
{
horizontal = 1;
place = (561,108);
type = Stem;
},
{
horizontal = 1;
place = (540,108);
type = Stem;
},
{
horizontal = 1;
place = (218,109);
type = Stem;
},
{
horizontal = 1;
place = (-4,21);
target = up;
type = BottomGhost;
},
{
horizontal = 1;
place = (-5,21);
target = up;
type = BottomGhost;
},
{
place = (388,134);
type = Stem;
},
{
place = (372,134);
type = Stem;
},
{
place = (242,134);
type = Stem;
},
{
place = (60,134);
type = Stem;
}
);
layerId = m01;
shapes = (
{
closed = 1;
nodes = (
(217,29,l),
(202,101,o),
(194,183,o),
(194,230,cs),
(194,359,o),
(239,404,o),
(323,404,cs),
(369,404,o),
(388,389,o),
(388,355,cs),
(388,340,o),
(386,318,o),
(383,292,cs),
(378,250,o),
(372,198,o),
(372,143,cs),
(372,85,o),
(381,38,o),
(397,-4,c),
(527,31,l),
(516,55,o),
(506,103,o),
(506,140,cs),
(506,158,o),
(508,184,o),
(510,211,c),
(534,211,o),
(558,218,o),
(587,218,cs),
(602,218,o),
(624,218,o),
(661,205,c),
(687,310,l),
(656,320,o),
(629,327,o),
(603,327,cs),
(572,327,o),
(546,320,o),
(520,320,c),
(521,334,o),
(522,348,o),
(522,359,cs),
(522,447,o),
(474,498,o),
(376,511,c),
(376,532,o),
(375,543,o),
(373,559,c),
(387,560,o),
(400,561,o),
(412,561,cs),
(434,561,o),
(461,556,o),
(488,549,c),
(523,655,l),
(491,664,o),
(461,669,o),
(436,669,cs),
(398,669,o),
(360,663,o),
(322,658,cs),
(285,653,o),
(249,648,o),
(221,648,cs),
(198,648,o),
(166,653,o),
(123,665,c),
(89,559,l),
(136,546,o),
(172,540,o),
(201,540,cs),
(212,540,o),
(223,541,o),
(240,542,c),
(242,528,o),
(242,521,o),
(242,508,c),
(115,484,o),
(60,394,o),
(60,222,cs),
(60,158,o),
(70,77,o),
(85,-5,c)
);
}
);
width = 747;
}
);
note = uni1239;
unicode = 4665;
},
{
glyphname = uni123A;
kernRight = uni1202;
lastChange = "2024-11-17 05:54:33 +0000";
layers = (
{
hints = (
{
horizontal = 1;
place = (561,108);
type = Stem;
},
{
horizontal = 1;
place = (540,108);
type = Stem;
},
{
horizontal = 1;
place = (8,111);
type = Stem;
},
{
horizontal = 1;
place = (-8,111);
type = Stem;
},
{
horizontal = 1;
place = (-5,21);
target = up;
type = BottomGhost;
},
{
place = (388,134);
type = Stem;
},
{
place = (373,133);
type = Stem;
},
{
place = (242,134);
type = Stem;
},
{
place = (60,134);
type = Stem;
}
);
layerId = m01;
shapes = (
{
closed = 1;
nodes = (
(571,-8,o),
(607,8,o),
(642,8,cs),
(653,8,o),
(671,5,o),
(693,-8,c),
(740,92,l),
(708,111,o),
(678,119,o),
(650,119,cs),
(611,119,o),
(576,103,o),
(541,103,cs),
(516,103,o),
(506,121,o),
(506,169,cs),
(506,203,o),
(511,240,o),
(515,275,cs),
(519,306,o),
(522,334,o),
(522,358,cs),
(522,446,o),
(475,498,o),
(376,511,c),
(376,532,o),
(375,543,o),
(373,559,c),
(387,560,o),
(400,561,o),
(412,561,cs),
(434,561,o),
(461,556,o),
(488,549,c),
(523,655,l),
(491,664,o),
(461,669,o),
(436,669,cs),
(364,669,o),
(293,648,o),
(221,648,cs),
(198,648,o),
(166,653,o),
(123,665,c),
(89,559,l),
(136,546,o),
(172,540,o),
(200,540,cs),
(213,540,o),
(227,541,o),
(240,542,c),
(242,528,o),
(242,521,o),
(242,508,c),
(115,484,o),
(60,394,o),
(60,222,cs),
(60,158,o),
(70,77,o),
(85,-5,c),
(217,29,l),
(202,101,o),
(194,183,o),
(194,230,cs),
(194,359,o),
(239,404,o),
(323,404,cs),
(369,404,o),
(388,389,o),
(388,355,cs),
(388,340,o),
(385,321,o),
(383,299,cs),
(378,267,o),
(373,228,o),
(373,183,cs),
(373,47,o),
(418,-8,o),
(529,-8,cs)
);
}
);
width = 760;
}
);
note = uni123A;
unicode = 4666;
},
{
glyphname = uni123B;
lastChange = "2024-11-17 05:54:33 +0000";
layers = (
{
hints = (
{
horizontal = 1;
place = (561,108);
type = Stem;
},
{
horizontal = 1;
place = (540,108);
type = Stem;
},
{
horizontal = 1;
place = (-4,21);
target = up;
type = BottomGhost;
},
{
place = (388,134);
type = Stem;
},
{
place = (372,134);
type = Stem;
},
{
place = (242,134);
type = Stem;
},
{
place = (60,134);
type = Stem;
}
);
layerId = m01;
shapes = (
{
closed = 1;
nodes = (
(527,31,l),
(516,55,o),
(506,105,o),
(506,146,cs),
(506,185,o),
(511,230,o),
(516,271,cs),
(519,304,o),
(522,335,o),
(522,358,cs),
(522,446,o),
(475,498,o),
(376,511,c),
(375,532,o),
(374,547,o),
(373,559,c),
(387,560,o),
(400,561,o),
(412,561,cs),
(434,561,o),
(461,556,o),
(488,549,c),
(523,655,l),
(491,664,o),
(461,669,o),
(436,669,cs),
(364,669,o),
(293,648,o),
(221,648,cs),
(198,648,o),
(166,653,o),
(123,665,c),
(89,559,l),
(136,546,o),
(172,540,o),
(200,540,cs),
(213,540,o),
(227,541,o),
(240,542,c),
(242,528,o),
(242,521,o),
(242,508,c),
(115,484,o),
(60,394,o),
(60,222,cs),
(60,182,o),
(64,141,o),
(72,95,c),
(204,121,l),
(197,163,o),
(194,200,o),
(194,228,cs),
(194,359,o),
(236,404,o),
(321,404,cs),
(369,404,o),
(388,389,o),
(388,355,cs),
(388,340,o),
(386,318,o),
(383,292,cs),
(378,250,o),
(372,198,o),
(372,143,cs),
(372,85,o),
(381,38,o),
(397,-4,c)
);
}
);
width = 597;
}
);
note = uni123B;
unicode = 4667;
},
{
glyphname = uni123C;
kernRight = uni1202;
lastChange = "2024-11-17 05:54:33 +0000";
layers = (
{
hints = (
{
horizontal = 1;
place = (561,108);
type = Stem;
},
{
horizontal = 1;
place = (540,108);
type = Stem;
},
{
horizontal = 1;
place = (192,111);
type = Stem;
},
{
horizontal = 1;
place = (-9,111);
type = Stem;
},
{
horizontal = 1;
place = (-5,21);
target = up;
type = BottomGhost;
},
{
place = (604,133);
type = Stem;
},
{
place = (388,134);
type = Stem;
},
{
place = (373,131);
type = Stem;
},
{
place = (242,134);
type = Stem;
},
{
place = (60,134);
type = Stem;
}
);
layerId = m01;
shapes = (
{
closed = 1;
nodes = (
(651,-9,o),
(737,66,o),
(737,168,cs),
(737,251,o),
(681,303,o),
(593,303,cs),
(568,303,o),
(541,298,o),
(516,291,c),
(521,328,o),
(522,345,o),
(522,358,cs),
(522,447,o),
(474,498,o),
(376,511,c),
(376,532,o),
(375,543,o),
(373,559,c),
(387,560,o),
(400,561,o),
(412,561,cs),
(434,561,o),
(461,556,o),
(488,549,c),
(523,655,l),
(491,664,o),
(461,669,o),
(436,669,cs),
(364,669,o),
(293,648,o),
(221,648,cs),
(198,648,o),
(166,653,o),
(123,665,c),
(89,559,l),
(136,546,o),
(172,540,o),
(200,540,cs),
(213,540,o),
(227,541,o),
(240,542,c),
(242,528,o),
(242,521,o),
(242,508,c),
(115,484,o),
(60,394,o),
(60,222,cs),
(60,158,o),
(70,77,o),
(85,-5,c),
(217,29,l),
(202,101,o),
(194,183,o),
(194,230,cs),
(194,359,o),
(239,404,o),
(323,404,cs),
(369,404,o),
(388,389,o),
(388,355,cs),
(388,340,o),
(386,323,o),
(383,303,cs),
(378,273,o),
(373,237,o),
(373,191,cs),
(373,49,o),
(419,-9,o),
(530,-9,cs)
);
},
{
closed = 1;
nodes = (
(517,102,o),
(504,119,o),
(504,157,cs),
(504,165,o),
(505,172,o),
(505,179,c),
(525,188,o),
(545,192,o),
(564,192,cs),
(591,192,o),
(604,180,o),
(604,157,cs),
(604,123,o),
(581,102,o),
(545,102,cs)
);
}
);
width = 767;
}
);
note = uni123C;
unicode = 4668;
},
{
glyphname = uni123D;
lastChange = "2024-11-17 05:54:33 +0000";
layers = (
{
hints = (
{
horizontal = 1;
place = (560,112);
type = Stem;
},
{
horizontal = 1;
place = (540,111);
type = Stem;
},
{
horizontal = 1;
place = (-4,21);
target = up;
type = BottomGhost;
},
{
horizontal = 1;
place = (-5,21);
target = up;
type = BottomGhost;
},
{
place = (409,135);
type = Stem;
},
{
place = (393,135);
type = Stem;
},
{
place = (81,135);
type = Stem;
}
);
layerId = m01;
shapes = (
{
closed = 1;
nodes = (
(238,29,l),
(225,91,o),
(216,174,o),
(216,230,cs),
(216,351,o),
(254,404,o),
(344,404,cs),
(390,404,o),
(409,389,o),
(409,355,cs),
(409,341,o),
(407,319,o),
(404,292,cs),
(399,250,o),
(393,197,o),
(393,141,cs),
(393,87,o),
(400,40,o),
(418,-4,c),
(548,30,l),
(537,56,o),
(528,106,o),
(528,147,cs),
(528,186,o),
(532,230,o),
(537,270,cs),
(540,304,o),
(544,335,o),
(544,358,cs),
(544,450,o),
(491,501,o),
(385,513,c),
(366,527,o),
(349,543,o),
(335,560,c),
(364,561,o),
(376,560,o),
(388,558,cs),
(401,556,o),
(415,553,o),
(430,549,c),
(464,658,l),
(431,667,o),
(401,672,o),
(373,672,cs),
(302,672,o),
(232,651,o),
(161,651,cs),
(138,651,o),
(106,656,o),
(64,668,c),
(30,559,l),
(76,546,o),
(112,540,o),
(141,540,cs),
(154,540,o),
(168,541,o),
(192,543,c),
(202,528,o),
(213,512,o),
(225,498,c),
(125,463,o),
(81,376,o),
(81,221,cs),
(81,161,o),
(90,81,o),
(107,-5,c)
);
}
);
width = 618;
}
);
note = uni123D;
unicode = 4669;
},
{
glyphname = uni123E;
lastChange = "2024-11-17 05:54:33 +0000";
layers = (
{
hints = (
{
horizontal = 1;
place = (561,108);
type = Stem;
},
{
horizontal = 1;
place = (540,108);
type = Stem;
},
{
horizontal = 1;
place = (-5,21);
target = up;
type = BottomGhost;
},
{
place = (373,137);
type = Stem;
},
{
place = (242,134);
type = Stem;
},
{
place = (60,134);
type = Stem;
}
);
layerId = m01;
shapes = (
{
closed = 1;
nodes = (
(217,29,l),
(202,101,o),
(194,183,o),
(194,230,cs),
(194,359,o),
(239,404,o),
(323,404,cs),
(369,404,o),
(388,389,o),
(388,355,cs),
(388,337,o),
(385,311,o),
(381,281,cs),
(373,214,o),
(368,162,o),
(377,95,c),
(510,120,l),
(506,166,o),
(510,210,o),
(515,256,cs),
(519,290,o),
(522,324,o),
(522,358,cs),
(522,446,o),
(474,497,o),
(376,511,c),
(376,532,o),
(375,543,o),
(373,559,c),
(387,560,o),
(400,561,o),
(412,561,cs),
(434,561,o),
(461,556,o),
(488,549,c),
(523,655,l),
(491,664,o),
(461,669,o),
(436,669,cs),
(364,669,o),
(293,648,o),
(221,648,cs),
(198,648,o),
(166,653,o),
(123,665,c),
(89,559,l),
(136,546,o),
(172,540,o),
(200,540,cs),
(213,540,o),
(227,541,o),
(240,542,c),
(242,528,o),
(242,521,o),
(242,508,c),
(115,484,o),
(60,394,o),
(60,222,cs),
(60,158,o),
(70,77,o),
(85,-5,c)
);
}
);
width = 593;
}
);
note = uni123E;
unicode = 4670;
},
{
glyphname = uni123F;
kernRight = uni1202;
lastChange = "2024-11-17 05:54:33 +0000";
layers = (
{
hints = (
{
horizontal = 1;
place = (561,108);
type = Stem;
},
{
horizontal = 1;
place = (540,108);
type = Stem;
},
{
horizontal = 1;
place = (8,107);
type = Stem;
},
{
horizontal = 1;
place = (-13,108);
type = Stem;
},
{
horizontal = 1;
place = (-3,21);
target = up;
type = BottomGhost;
},
{
place = (388,134);
type = Stem;
},
{
place = (372,134);
type = Stem;
},
{
place = (242,134);
type = Stem;
},
{
place = (60,134);
type = Stem;
}
);
layerId = m01;
shapes = (
{
closed = 1;
nodes = (
(369,-13,o),
(409,-8,o),
(448,-3,cs),
(487,2,o),
(526,8,o),
(555,8,cs),
(575,8,o),
(601,3,o),
(628,-5,c),
(663,101,l),
(631,110,o),
(600,115,o),
(573,115,cs),
(552,115,o),
(531,114,o),
(507,111,c),
(507,120,o),
(506,128,o),
(506,140,cs),
(506,183,o),
(511,231,o),
(516,272,cs),
(519,306,o),
(522,335,o),
(522,358,cs),
(522,446,o),
(475,498,o),
(376,511,c),
(376,532,o),
(375,543,o),
(373,559,c),
(387,560,o),
(400,561,o),
(412,561,cs),
(434,561,o),
(461,556,o),
(488,549,c),
(523,655,l),
(491,664,o),
(461,669,o),
(436,669,cs),
(364,669,o),
(293,648,o),
(221,648,cs),
(198,648,o),
(166,653,o),
(123,665,c),
(89,559,l),
(136,546,o),
(172,540,o),
(200,540,cs),
(213,540,o),
(227,541,o),
(240,542,c),
(242,528,o),
(242,521,o),
(242,508,c),
(115,484,o),
(60,394,o),
(60,222,cs),
(60,182,o),
(64,141,o),
(72,95,c),
(204,121,l),
(197,163,o),
(194,200,o),
(194,228,cs),
(194,359,o),
(236,404,o),
(321,404,cs),
(369,404,o),
(388,389,o),
(388,355,cs),
(388,341,o),
(386,320,o),
(383,294,cs),
(378,251,o),
(372,195,o),
(372,134,cs),
(372,119,o),
(372,106,o),
(373,95,c),
(369,95,o),
(364,95,o),
(359,95,cs),
(338,95,o),
(306,100,o),
(263,112,c),
(229,6,l),
(276,-7,o),
(312,-13,o),
(339,-13,cs)
);
}
);
width = 693;
}
);
note = uni123F;
unicode = 4671;
},
{
glyphname = uni1240;
lastChange = "2024-11-17 05:54:33 +0000";
layers = (
{
hints = (
{
horizontal = 1;
place = (705,-20);
target = down;
type = TopGhost;
},
{
horizontal = 1;
place = (475,101);
type = Stem;
},
{
horizontal = 1;
place = (232,101);
type = Stem;
},
{
horizontal = 1;
place = (228,101);
type = Stem;
},
{
horizontal = 1;
place = (-5,21);
target = up;
type = BottomGhost;
},
{
place = (516,134);
type = Stem;
},
{
place = (251,134);
type = Stem;
},
{
place = (35,133);
type = Stem;
}
);
layerId = m01;
shapes = (
{
closed = 1;
nodes = (
(406,31,l),
(392,91,o),
(385,146,o),
(385,193,cs),
(385,208,o),
(386,222,o),
(387,237,c),
(405,234,o),
(423,232,o),
(440,232,cs),
(559,232,o),
(650,312,o),
(650,424,cs),
(650,522,o),
(585,577,o),
(479,577,cs),
(457,577,o),
(434,574,o),
(413,569,c),
(408,615,o),
(400,661,o),
(389,705,c),
(263,670,l),
(269,637,o),
(274,606,o),
(278,575,c),
(270,576,o),
(261,576,o),
(253,576,cs),
(129,576,o),
(35,497,o),
(35,387,cs),
(35,288,o),
(107,228,o),
(221,228,cs),
(230,228,o),
(242,228,o),
(253,229,c),
(252,210,o),
(251,192,o),
(251,174,cs),
(252,119,o),
(260,59,o),
(281,-5,c)
);
},
{
closed = 1;
nodes = (
(192,329,o),
(168,354,o),
(168,390,cs),
(168,437,o),
(206,475,o),
(257,475,cs),
(266,475,o),
(275,473,o),
(283,471,c),
(282,425,o),
(275,379,o),
(267,334,c),
(253,330,o),
(243,329,o),
(233,329,cs)
);
},
{
closed = 1;
nodes = (
(420,333,o),
(409,334,o),
(400,336,c),
(407,380,o),
(415,424,o),
(416,469,c),
(430,473,o),
(443,475,o),
(457,475,cs),
(497,475,o),
(516,453,o),
(516,419,cs),
(516,370,o),
(483,333,o),
(430,333,cs)
);
}
);
width = 675;
}
);
note = uni1240;
unicode = 4672;
},
{
glyphname = uni1241;
lastChange = "2024-11-17 05:54:33 +0000";
layers = (
{
hints = (
{
horizontal = 1;
place = (705,-20);
target = down;
type = TopGhost;
},
{
horizontal = 1;
place = (493,102);
type = Stem;
},
{
horizontal = 1;
place = (294,96);
type = Stem;
},
{
horizontal = 1;
place = (289,97);
type = Stem;
},
{
horizontal = 1;
place = (138,108);
type = Stem;
},
{
horizontal = 1;
place = (-5,21);
target = up;
type = BottomGhost;
},
{
place = (510,134);
type = Stem;
},
{
place = (276,134);
type = Stem;
},
{
place = (269,136);
type = Stem;
},
{
place = (245,137);
type = Stem;
},
{
place = (35,133);
type = Stem;
}
);
layerId = m01;
shapes = (
{
closed = 1;
nodes = (
(401,31,l),
(392,64,o),
(384,94,o),
(381,127,c),
(395,128,o),
(409,130,o),
(423,132,cs),
(442,135,o),
(463,138,o),
(485,138,cs),
(506,138,o),
(531,133,o),
(565,124,c),
(591,231,l),
(564,239,o),
(530,246,o),
(499,246,cs),
(478,246,o),
(460,244,o),
(440,241,cs),
(423,239,o),
(405,237,o),
(382,236,c),
(384,256,o),
(385,277,o),
(389,297,c),
(402,295,o),
(419,294,o),
(435,294,cs),
(542,294,o),
(644,350,o),
(644,462,cs),
(644,551,o),
(582,596,o),
(473,596,cs),
(448,596,o),
(425,594,o),
(405,591,c),
(400,628,o),
(392,665,o),
(383,705,c),
(257,669,l),
(262,645,o),
(268,619,o),
(269,594,c),
(249,595,ls),
(132,595,o),
(35,526,o),
(35,425,cs),
(35,335,o),
(108,289,o),
(220,289,cs),
(232,289,o),
(243,289,o),
(255,290,c),
(249,252,o),
(245,210,o),
(245,172,cs),
(245,117,o),
(254,59,o),
(275,-5,c)
);
},
{
closed = 1;
nodes = (
(191,386,o),
(168,405,o),
(168,432,cs),
(168,465,o),
(198,493,o),
(255,493,cs),
(264,493,o),
(270,493,o),
(276,492,c),
(279,457,o),
(277,423,o),
(271,389,c),
(258,387,o),
(244,386,o),
(230,386,cs)
);
},
{
closed = 1;
nodes = (
(422,390,o),
(413,390,o),
(404,391,c),
(408,421,o),
(410,456,o),
(410,487,c),
(425,491,o),
(443,494,o),
(462,494,cs),
(495,494,o),
(510,476,o),
(510,453,cs),
(510,416,o),
(477,390,o),
(428,390,cs)
);
}
);
width = 675;
}
);
note = uni1241;
unicode = 4673;
},
{
glyphname = uni1242;
lastChange = "2024-11-17 05:54:33 +0000";
layers = (
{
hints = (
{
horizontal = 1;
place = (705,-20);
target = down;
type = TopGhost;
},
{
horizontal = 1;
place = (475,101);
type = Stem;
},
{
horizontal = 1;
place = (232,101);
type = Stem;
},
{
horizontal = 1;
place = (228,101);
type = Stem;
},
{
horizontal = 1;
place = (-9,111);
type = Stem;
},
{
horizontal = 1;
place = (1,21);
target = up;
type = BottomGhost;
},
{
place = (516,134);
type = Stem;
},
{
place = (283,133);
type = Stem;
},
{
place = (252,133);
type = Stem;
},
{
place = (35,133);
type = Stem;
}
);
layerId = m01;
shapes = (
{
closed = 1;
nodes = (
(442,-9,o),
(465,-4,o),
(485,1,cs),
(499,4,o),
(510,7,o),
(522,7,cs),
(533,7,o),
(550,2,o),
(573,-9,c),
(620,91,l),
(588,110,o),
(558,118,o),
(530,118,cs),
(505,118,o),
(485,114,o),
(465,109,cs),
(449,106,o),
(434,102,o),
(419,102,cs),
(393,102,o),
(385,118,o),
(385,169,cs),
(385,187,o),
(387,215,o),
(388,237,c),
(406,234,o),
(424,232,o),
(439,232,cs),
(559,232,o),
(650,312,o),
(650,424,cs),
(650,522,o),
(585,577,o),
(479,577,cs),
(457,577,o),
(433,574,o),
(412,569,c),
(410,608,o),
(401,659,o),
(389,705,c),
(263,670,l),
(271,640,o),
(276,605,o),
(278,575,c),
(270,576,o),
(261,576,o),
(253,576,cs),
(129,576,o),
(35,497,o),
(35,387,cs),
(35,288,o),
(107,228,o),
(222,228,cs),
(232,228,o),
(243,228,o),
(254,229,c),
(252,206,o),
(252,191,o),
(252,167,cs),
(252,45,o),
(299,-9,o),
(408,-9,cs)
);
},
{
closed = 1;
nodes = (
(192,329,o),
(168,354,o),
(168,390,cs),
(168,437,o),
(206,475,o),
(257,475,cs),
(266,475,o),
(275,473,o),
(283,471,c),
(282,434,o),
(277,386,o),
(268,334,c),
(253,330,o),
(244,329,o),
(233,329,cs)
);
},
{
closed = 1;
nodes = (
(424,333,o),
(413,334,o),
(403,336,c),
(410,377,o),
(415,427,o),
(416,469,c),
(430,473,o),
(443,475,o),
(457,475,cs),
(497,475,o),
(516,453,o),
(516,419,cs),
(516,370,o),
(483,333,o),
(434,333,cs)
);
}
);
width = 680;
}
);
note = uni1242;
unicode = 4674;
},
{
glyphname = uni1243;
lastChange = "2024-11-17 05:54:33 +0000";
layers = (
{
hints = (
{
horizontal = 1;
place = (705,-20);
target = down;
type = TopGhost;
},
{
horizontal = 1;
place = (475,101);
type = Stem;
},
{
horizontal = 1;
place = (232,101);
type = Stem;
},
{
horizontal = 1;
place = (228,101);
type = Stem;
},
{
horizontal = 1;
place = (62,110);
type = Stem;
},
{
horizontal = 1;
place = (-4,21);
target = up;
type = BottomGhost;
},
{
place = (541,134);
type = Stem;
},
{
place = (296,136);
type = Stem;
},
{
place = (285,133);
type = Stem;
},
{
place = (40,133);
type = Stem;
}
);
layerId = m01;
shapes = (
{
closed = 1;
nodes = (
(196,32,l),
(186,45,o),
(188,52,o),
(190,55,cs),
(194,61,o),
(209,62,o),
(223,62,cs),
(360,62,o),
(425,115,o),
(432,234,c),
(441,233,o),
(451,232,o),
(461,232,cs),
(583,232,o),
(675,311,o),
(675,425,cs),
(675,525,o),
(607,577,o),
(499,577,cs),
(475,577,o),
(453,574,o),
(428,569,c),
(433,602,o),
(441,637,o),
(451,669,c),
(325,705,l),
(310,663,o),
(300,617,o),
(292,574,c),
(282,575,o),
(269,576,o),
(257,576,cs),
(134,576,o),
(40,497,o),
(40,387,cs),
(40,286,o),
(114,228,o),
(230,228,cs),
(251,228,o),
(275,230,o),
(296,233,c),
(292,194,o),
(268,172,o),
(217,172,cs),
(115,172,o),
(50,128,o),
(50,59,cs),
(50,42,o),
(56,23,o),
(70,-4,c)
);
},
{
closed = 1;
nodes = (
(199,329,o),
(173,354,o),
(173,391,cs),
(173,436,o),
(210,475,o),
(262,475,cs),
(270,475,o),
(277,474,o),
(285,472,c),
(285,411,o),
(288,370,o),
(291,333,c),
(277,331,o),
(262,329,o),
(248,329,cs)
);
},
{
closed = 1;
nodes = (
(447,333,o),
(436,334,o),
(427,336,c),
(423,376,o),
(419,426,o),
(418,467,c),
(438,472,o),
(461,475,o),
(481,475,cs),
(522,475,o),
(541,453,o),
(541,419,cs),
(541,370,o),
(508,333,o),
(457,333,cs)
);
}
);
width = 700;
}
);
note = uni1243;
unicode = 4675;
},
{
glyphname = uni1244;
lastChange = "2024-11-17 05:54:33 +0000";
layers = (
{
hints = (
{
horizontal = 1;
place = (705,-20);
target = down;
type = TopGhost;
},
{
horizontal = 1;
place = (493,102);
type = Stem;
},
{
horizontal = 1;
place = (490,106);
type = Stem;
},
{
horizontal = 1;
place = (296,94);
type = Stem;
},
{
horizontal = 1;
place = (289,97);
type = Stem;
},
{
horizontal = 1;
place = (173,91);
type = Stem;
},
{
horizontal = 1;
place = (-9,111);
type = Stem;
},
{
place = (510,134);
type = Stem;
},
{
place = (477,133);
type = Stem;
},
{
place = (274,135);
type = Stem;
},
{
place = (246,133);
type = Stem;
},
{
place = (35,133);
type = Stem;
}
);
layerId = m01;
shapes = (
{
closed = 1;
nodes = (
(529,-9,o),
(610,56,o),
(610,151,cs),
(610,232,o),
(553,267,o),
(465,264,cs),
(437,263,o),
(407,258,o),
(381,249,c),
(382,264,o),
(385,283,o),
(387,298,c),
(404,296,o),
(420,295,o),
(439,296,cs),
(557,300,o),
(644,363,o),
(644,463,cs),
(644,550,o),
(582,596,o),
(473,596,cs),
(448,596,o),
(425,594,o),
(405,590,c),
(402,623,o),
(395,666,o),
(383,705,c),
(257,669,l),
(263,651,o),
(267,618,o),
(269,595,c),
(253,595,ls),
(130,595,o),
(35,523,o),
(35,425,cs),
(35,338,o),
(107,289,o),
(225,289,cs),
(235,289,o),
(245,289,o),
(254,290,c),
(248,254,o),
(246,219,o),
(246,188,cs),
(246,52,o),
(298,-9,o),
(413,-9,cs)
);
},
{
closed = 1;
nodes = (
(389,102,o),
(381,129,o),
(379,156,c),
(400,167,o),
(422,173,o),
(443,173,cs),
(465,173,o),
(477,164,o),
(477,147,cs),
(477,120,o),
(454,102,o),
(420,102,cs)
);
},
{
closed = 1;
nodes = (
(191,386,o),
(168,406,o),
(168,433,cs),
(168,467,o),
(201,493,o),
(253,493,cs),
(262,493,o),
(269,493,o),
(277,492,c),
(279,462,o),
(276,419,o),
(272,389,c),
(257,387,o),
(243,386,o),
(232,386,cs)
);
},
{
closed = 1;
nodes = (
(417,390,o),
(411,390,o),
(405,391,c),
(408,417,o),
(410,459,o),
(410,490,c),
(430,495,o),
(447,496,o),
(463,494,cs),
(494,491,o),
(510,477,o),
(510,454,cs),
(510,417,o),
(477,390,o),
(424,390,cs)
);
}
);
width = 694;
}
);
note = uni1244;
unicode = 4676;
},
{
glyphname = uni1245;
lastChange = "2024-11-17 05:54:33 +0000";
layers = (
{
hints = (
{
horizontal = 1;
place = (710,-20);
target = down;
type = TopGhost;
},
{
horizontal = 1;
place = (493,112);
type = Stem;
},
{
horizontal = 1;
place = (360,102);
type = Stem;
},
{
horizontal = 1;
place = (160,96);
type = Stem;
},
{
horizontal = 1;
place = (156,97);
type = Stem;
},
{
horizontal = 1;
place = (-5,21);
target = up;
type = BottomGhost;
},
{
place = (510,134);
type = Stem;
},
{
place = (294,133);
type = Stem;
},
{
place = (263,134);
type = Stem;
},
{
place = (35,133);
type = Stem;
}
);
layerId = m01;
shapes = (
{
closed = 1;
nodes = (
(418,31,l),
(406,73,o),
(400,118,o),
(397,163,c),
(410,161,o),
(422,160,o),
(434,160,cs),
(555,160,o),
(644,229,o),
(644,331,cs),
(644,417,o),
(583,463,o),
(472,463,cs),
(456,463,o),
(441,462,o),
(426,459,c),
(427,474,o),
(427,489,o),
(427,505,cs),
(427,580,o),
(407,605,o),
(345,605,cs),
(308,605,o),
(271,598,o),
(234,592,c),
(230,632,o),
(222,675,o),
(212,710,c),
(87,674,l),
(95,631,o),
(102,588,o),
(104,556,cs),
(108,496,o),
(126,481,o),
(173,481,cs),
(213,481,o),
(247,493,o),
(281,493,cs),
(292,493,o),
(294,486,o),
(294,479,cs),
(294,472,o),
(294,465,o),
(294,458,c),
(279,460,o),
(262,462,o),
(246,462,cs),
(128,462,o),
(35,389,o),
(35,291,cs),
(35,204,o),
(105,156,o),
(217,156,cs),
(233,156,o),
(249,157,o),
(263,159,c),
(266,104,o),
(276,40,o),
(293,-5,c)
);
},
{
closed = 1;
nodes = (
(190,253,o),
(168,271,o),
(168,299,cs),
(168,334,o),
(201,360,o),
(256,360,cs),
(264,360,o),
(272,359,o),
(280,358,c),
(274,324,o),
(269,289,o),
(266,255,c),
(255,253,o),
(244,253,o),
(233,253,cs)
);
},
{
closed = 1;
nodes = (
(421,256,o),
(409,257,o),
(399,259,c),
(402,291,o),
(407,322,o),
(412,354,c),
(431,359,o),
(447,361,o),
(462,361,cs),
(494,361,o),
(510,344,o),
(510,320,cs),
(510,284,o),
(479,256,o),
(431,256,cs)
);
}
);
width = 669;
}
);
note = uni1245;
unicode = 4677;
},
{
glyphname = uni1246;
lastChange = "2024-11-17 05:54:33 +0000";
layers = (
{
hints = (
{
horizontal = 1;
place = (619,112);
type = Stem;
},
{
horizontal = 1;
place = (321,102);
type = Stem;
},
{
horizontal = 1;
place = (121,106);
type = Stem;
},
{
horizontal = 1;
place = (116,107);
type = Stem;
},
{
horizontal = 1;
place = (-5,21);
target = up;
type = BottomGhost;
},
{
place = (507,134);
type = Stem;
},
{
place = (393,132);
type = Stem;
},
{
place = (182,132);
type = Stem;
},
{
place = (32,133);
type = Stem;
}
);
layerId = m01;
shapes = (
{
closed = 1;
nodes = (
(415,31,l),
(406,61,o),
(400,92,o),
(396,123,c),
(408,122,o),
(420,121,o),
(431,121,cs),
(552,121,o),
(641,194,o),
(641,297,cs),
(641,383,o),
(581,424,o),
(475,424,cs),
(453,424,o),
(432,422,o),
(412,417,c),
(409,426,o),
(408,431,o),
(403,439,c),
(486,482,o),
(525,532,o),
(525,597,cs),
(525,681,o),
(463,731,o),
(360,731,cs),
(251,731,o),
(182,674,o),
(182,586,cs),
(182,545,o),
(196,514,o),
(215,487,cs),
(230,465,o),
(251,446,o),
(263,423,c),
(253,423,ls),
(116,424,o),
(32,355,o),
(32,257,cs),
(32,170,o),
(102,116,o),
(214,116,cs),
(231,116,o),
(251,118,o),
(267,120,c),
(272,78,o),
(281,36,o),
(294,-5,c)
);
},
{
closed = 1;
nodes = (
(187,223,o),
(165,238,o),
(165,265,cs),
(165,300,o),
(198,321,o),
(253,321,cs),
(264,321,o),
(272,320,o),
(281,318,c),
(275,287,o),
(269,257,o),
(267,227,c),
(253,224,o),
(240,223,o),
(227,223,cs)
);
},
{
closed = 1;
nodes = (
(417,227,o),
(405,228,o),
(395,230,c),
(397,257,o),
(402,287,o),
(407,314,c),
(425,319,o),
(444,322,o),
(460,322,cs),
(491,322,o),
(507,310,o),
(507,286,cs),
(507,250,o),
(475,227,o),
(427,227,cs)
);
},
{
closed = 1;
nodes = (
(322,554,o),
(314,570,o),
(314,585,cs),
(314,607,o),
(330,619,o),
(355,619,cs),
(380,619,o),
(393,608,o),
(393,589,cs),
(393,565,o),
(376,540,o),
(347,522,c)
);
}
);
width = 669;
}
);
note = uni1246;
unicode = 4678;
},
{
glyphname = uni1247;
lastChange = "2024-11-17 05:54:33 +0000";
layers = (
{
hints = (
{
horizontal = 1;
place = (619,112);
type = Stem;
},
{
horizontal = 1;
place = (331,105);
type = Stem;
},
{
horizontal = 1;
place = (330,102);
type = Stem;
},
{
horizontal = 1;
place = (130,106);
type = Stem;
},
{
horizontal = 1;
place = (125,107);
type = Stem;
},
{
horizontal = 1;
place = (-9,101);
type = Stem;
},
{
place = (507,134);
type = Stem;
},
{
place = (393,132);
type = Stem;
},
{
place = (182,132);
type = Stem;
},
{
place = (32,133);
type = Stem;
}
);
layerId = m01;
shapes = (
{
closed = 1;
nodes = (
(275,-9,o),
(343,-6,o),
(415,33,c),
(405,65,o),
(399,98,o),
(395,132,c),
(407,131,o),
(420,130,o),
(431,130,cs),
(552,130,o),
(641,203,o),
(641,306,cs),
(641,392,o),
(581,441,o),
(476,436,cs),
(452,435,o),
(430,431,o),
(408,425,c),
(406,430,o),
(405,434,o),
(403,439,c),
(486,482,o),
(525,532,o),
(525,597,cs),
(525,681,o),
(463,731,o),
(360,731,cs),
(251,731,o),
(182,674,o),
(182,585,cs),
(182,547,o),
(194,521,o),
(209,498,cs),
(224,476,o),
(242,457,o),
(258,431,c),
(253,431,o),
(248,432,o),
(243,432,cs),
(125,432,o),
(32,364,o),
(32,267,cs),
(32,179,o),
(102,125,o),
(215,125,cs),
(231,125,o),
(250,127,o),
(266,129,c),
(266,121,o),
(267,103,o),
(268,95,c),
(254,93,o),
(240,92,o),
(228,92,cs),
(205,92,o),
(177,98,o),
(143,108,c),
(97,20,l),
(138,1,o),
(186,-9,o),
(227,-9,cs)
);
},
{
closed = 1;
nodes = (
(187,232,o),
(165,247,o),
(165,274,cs),
(165,309,o),
(198,330,o),
(253,330,cs),
(263,330,o),
(271,329,o),
(279,327,c),
(276,297,o),
(271,267,o),
(268,236,c),
(254,234,o),
(240,232,o),
(227,232,cs)
);
},
{
closed = 1;
nodes = (
(417,236,o),
(406,237,o),
(396,238,c),
(399,267,o),
(404,295,o),
(409,323,c),
(426,328,o),
(444,331,o),
(460,331,cs),
(491,331,o),
(507,319,o),
(507,294,cs),
(507,259,o),
(475,236,o),
(426,236,cs)
);
},
{
closed = 1;
nodes = (
(322,554,o),
(314,569,o),
(314,585,cs),
(314,607,o),
(330,619,o),
(355,619,cs),
(380,619,o),
(393,608,o),
(393,589,cs),
(393,561,o),
(369,532,o),
(347,521,c)
);
}
);
width = 669;
}
);
note = uni1247;
unicode = 4679;
},
{
glyphname = uni1248;
kernRight = uni1202;
lastChange = "2024-11-17 05:54:33 +0000";
layers = (
{
hints = (
{
horizontal = 1;
place = (705,-20);
target = down;
type = TopGhost;
},
{
horizontal = 1;
place = (488,107);
type = Stem;
},
{
horizontal = 1;
place = (485,111);
type = Stem;
},
{
horizontal = 1;
place = (294,101);
type = Stem;
},
{
horizontal = 1;
place = (289,102);
type = Stem;
},
{
horizontal = 1;
place = (173,111);
type = Stem;
},
{
horizontal = 1;
place = (150,111);
type = Stem;
},
{
horizontal = 1;
place = (-9,111);
type = Stem;
},
{
horizontal = 1;
place = (-5,21);
target = up;
type = BottomGhost;
},
{
place = (689,133);
type = Stem;
},
{
place = (510,134);
type = Stem;
},
{
place = (277,133);
type = Stem;
},
{
place = (246,135);
type = Stem;
},
{
place = (35,133);
type = Stem;
}
);
layerId = m01;
shapes = (
{
closed = 1;
nodes = (
(741,-9,o),
(822,57,o),
(822,152,cs),
(822,233,o),
(765,284,o),
(676,284,cs),
(629,284,o),
(576,269,o),
(531,243,c),
(511,255,o),
(485,261,o),
(455,261,cs),
(431,261,o),
(407,258,o),
(382,257,c),
(384,271,o),
(386,284,o),
(388,298,c),
(405,295,o),
(420,294,o),
(437,294,cs),
(556,294,o),
(644,362,o),
(644,463,cs),
(644,550,o),
(583,596,o),
(473,596,cs),
(448,596,o),
(425,593,o),
(405,588,c),
(400,627,o),
(392,666,o),
(383,705,c),
(257,670,l),
(262,645,o),
(267,619,o),
(269,594,c),
(250,595,ls),
(129,595,o),
(35,523,o),
(35,424,cs),
(35,338,o),
(105,289,o),
(221,289,cs),
(232,289,o),
(244,289,o),
(255,290,c),
(250,255,o),
(246,216,o),
(246,180,cs),
(246,116,o),
(257,50,o),
(275,-5,c),
(401,31,l),
(392,65,o),
(384,108,o),
(381,148,c),
(390,149,o),
(400,150,o),
(412,150,cs),
(445,150,o),
(456,141,o),
(461,112,cs),
(474,29,o),
(526,-9,o),
(620,-9,cs)
);
},
{
closed = 1;
nodes = (
(190,391,o),
(168,405,o),
(168,432,cs),
(168,468,o),
(201,488,o),
(254,488,cs),
(262,488,o),
(270,488,o),
(277,487,c),
(279,457,o),
(276,423,o),
(272,394,c),
(258,392,o),
(243,391,o),
(230,391,cs)
);
},
{
closed = 1;
nodes = (
(610,102,o),
(597,114,o),
(592,144,c),
(592,148,o),
(591,153,o),
(589,160,c),
(609,169,o),
(629,173,o),
(648,173,cs),
(675,173,o),
(689,163,o),
(689,143,cs),
(689,117,o),
(668,102,o),
(634,102,cs)
);
},
{
closed = 1;
nodes = (
(420,395,o),
(412,395,o),
(405,396,c),
(409,425,o),
(410,455,o),
(410,485,c),
(429,490,o),
(449,491,o),
(463,489,cs),
(489,487,o),
(510,477,o),
(510,454,cs),
(510,417,o),
(478,395,o),
(427,395,cs)
);
}
);
width = 852;
}
);
note = uni1248;
unicode = 4680;
},
{
glyphname = uni124A;
lastChange = "2024-11-17 05:54:33 +0000";
layers = (
{
hints = (
{
horizontal = 1;
place = (705,-20);
target = down;
type = TopGhost;
},
{
horizontal = 1;
place = (470,111);
type = Stem;
},
{
horizontal = 1;
place = (227,111);
type = Stem;
},
{
horizontal = 1;
place = (223,111);
type = Stem;
},
{
horizontal = 1;
place = (212,112);
type = Stem;
},
{
horizontal = 1;
place = (-5,21);
target = up;
type = BottomGhost;
},
{
place = (700,135);
type = Stem;
},
{
place = (694,133);
type = Stem;
},
{
place = (516,134);
type = Stem;
},
{
place = (283,133);
type = Stem;
},
{
place = (251,134);
type = Stem;
},
{
place = (35,133);
type = Stem;
}
);
layerId = m01;
shapes = (
{
closed = 1;
nodes = (
(406,31,l),
(392,91,o),
(385,146,o),
(385,193,cs),
(385,206,o),
(386,219,o),
(386,232,c),
(404,229,o),
(422,227,o),
(439,227,cs),
(507,227,o),
(570,257,o),
(609,306,c),
(628,306,o),
(644,309,o),
(660,311,cs),
(671,313,o),
(683,315,o),
(694,316,c),
(703,250,o),
(751,212,o),
(829,212,cs),
(858,212,o),
(887,219,o),
(936,236,c),
(900,335,l),
(876,329,o),
(854,324,o),
(845,324,cs),
(833,324,o),
(827,333,o),
(827,354,cs),
(827,385,o),
(835,416,o),
(835,448,cs),
(835,473,o),
(835,498,o),
(815,538,c),
(687,508,l),
(698,486,o),
(700,457,o),
(700,442,cs),
(700,436,o),
(700,430,o),
(700,425,c),
(691,424,o),
(683,422,o),
(674,421,cs),
(666,420,o),
(659,419,o),
(650,418,c),
(650,422,o),
(650,426,o),
(650,429,cs),
(650,522,o),
(584,582,o),
(479,582,cs),
(457,582,o),
(433,579,o),
(412,574,c),
(409,613,o),
(400,659,o),
(389,705,c),
(263,670,l),
(268,640,o),
(274,610,o),
(278,580,c),
(270,581,o),
(261,581,o),
(253,581,cs),
(129,581,o),
(35,497,o),
(35,387,cs),
(35,288,o),
(107,223,o),
(221,223,cs),
(231,223,o),
(242,223,o),
(253,224,c),
(251,200,o),
(251,197,o),
(251,174,cs),
(252,119,o),
(260,59,o),
(281,-5,c)
);
},
{
closed = 1;
nodes = (
(192,334,o),
(168,354,o),
(168,390,cs),
(168,437,o),
(206,470,o),
(257,470,cs),
(266,470,o),
(274,468,o),
(283,466,c),
(281,418,o),
(276,376,o),
(268,339,c),
(254,335,o),
(243,334,o),
(233,334,cs)
);
},
{
closed = 1;
nodes = (
(421,338,o),
(411,339,o),
(402,340,c),
(409,382,o),
(415,422,o),
(416,464,c),
(430,468,o),
(443,470,o),
(457,470,cs),
(497,470,o),
(516,453,o),
(516,419,cs),
(516,370,o),
(483,338,o),
(430,338,cs)
);
}
);
width = 956;
}
);
note = uni124A;
unicode = 4682;
},
{
glyphname = uni124B;
lastChange = "2024-11-17 05:54:33 +0000";
layers = (
{
hints = (
{
horizontal = 1;
place = (705,-20);
target = down;
type = TopGhost;
},
{
horizontal = 1;
place = (470,111);
type = Stem;
},
{
horizontal = 1;
place = (227,111);
type = Stem;
},
{
horizontal = 1;
place = (223,111);
type = Stem;
},
{
horizontal = 1;
place = (8,107);
type = Stem;
},
{
horizontal = 1;
place = (-13,108);
type = Stem;
},
{
horizontal = 1;
place = (-5,21);
target = up;
type = BottomGhost;
},
{
place = (516,134);
type = Stem;
},
{
place = (253,137);
type = Stem;
},
{
place = (35,133);
type = Stem;
}
);
layerId = m01;
shapes = (
{
closed = 1;
nodes = (
(297,-13,o),
(368,8,o),
(440,8,cs),
(460,8,o),
(486,3,o),
(513,-5,c),
(548,101,l),
(516,110,o),
(485,115,o),
(458,115,cs),
(435,115,o),
(412,113,o),
(390,110,c),
(385,151,o),
(384,192,o),
(387,232,c),
(404,229,o),
(423,227,o),
(440,227,cs),
(559,227,o),
(650,312,o),
(650,425,cs),
(650,522,o),
(585,582,o),
(479,582,cs),
(457,582,o),
(434,579,o),
(412,574,c),
(410,613,o),
(401,660,o),
(389,705,c),
(263,670,l),
(270,640,o),
(275,610,o),
(278,580,c),
(270,581,o),
(261,581,o),
(253,581,cs),
(129,581,o),
(35,497,o),
(35,387,cs),
(35,288,o),
(107,223,o),
(221,223,cs),
(231,223,o),
(242,223,o),
(253,224,c),
(250,181,o),
(250,137,o),
(257,95,c),
(219,95,o),
(184,102,o),
(148,112,c),
(114,6,l),
(161,-7,o),
(197,-13,o),
(224,-13,cs)
);
},
{
closed = 1;
nodes = (
(192,334,o),
(168,354,o),
(168,390,cs),
(168,437,o),
(206,470,o),
(257,470,cs),
(266,470,o),
(274,469,o),
(282,467,c),
(279,420,o),
(275,383,o),
(268,339,c),
(253,335,o),
(244,334,o),
(233,334,cs)
);
},
{
closed = 1;
nodes = (
(421,338,o),
(411,339,o),
(402,340,c),
(409,382,o),
(415,422,o),
(416,464,c),
(430,469,o),
(443,471,o),
(457,471,cs),
(497,471,o),
(516,454,o),
(516,419,cs),
(516,370,o),
(483,338,o),
(430,338,cs)
);
}
);
width = 675;
}
);
note = uni124B;
unicode = 4683;
},
{
glyphname = uni124C;
lastChange = "2024-11-17 05:54:33 +0000";
layers = (
{
hints = (
{
horizontal = 1;
place = (705,-20);
target = down;
type = TopGhost;
},
{
horizontal = 1;
place = (498,102);
type = Stem;
},
{
horizontal = 1;
place = (309,96);
type = Stem;
},
{
horizontal = 1;
place = (305,96);
type = Stem;
},
{
horizontal = 1;
place = (173,101);
type = Stem;
},
{
horizontal = 1;
place = (99,102);
type = Stem;
},
{
horizontal = 1;
place = (-9,111);
type = Stem;
},
{
place = (510,134);
type = Stem;
},
{
place = (477,133);
type = Stem;
},
{
place = (274,135);
type = Stem;
},
{
place = (269,135);
type = Stem;
},
{
place = (35,133);
type = Stem;
}
);
layerId = m01;
shapes = (
{
closed = 1;
nodes = (
(510,-9,o),
(610,38,o),
(610,150,cs),
(610,237,o),
(547,274,o),
(467,274,cs),
(438,274,o),
(409,267,o),
(382,258,c),
(383,276,o),
(387,294,o),
(391,312,c),
(406,310,o),
(422,309,o),
(437,309,cs),
(538,309,o),
(644,359,o),
(644,473,cs),
(644,575,o),
(560,601,o),
(473,601,cs),
(450,601,o),
(427,599,o),
(404,593,c),
(399,631,o),
(392,668,o),
(383,705,c),
(257,670,l),
(264,647,o),
(267,623,o),
(269,599,c),
(250,600,ls),
(151,600,o),
(35,549,o),
(35,434,cs),
(35,347,o),
(106,313,o),
(180,305,cs),
(206,303,o),
(233,303,o),
(257,306,c),
(251,274,o),
(247,241,o),
(246,209,c),
(227,204,o),
(208,201,o),
(188,201,cs),
(160,201,o),
(131,208,o),
(105,217,c),
(58,128,l),
(96,112,o),
(142,99,o),
(183,99,cs),
(206,99,o),
(229,102,o),
(251,108,c),
(269,21,o),
(327,-9,o),
(411,-9,cs)
);
},
{
closed = 1;
nodes = (
(390,102,o),
(382,129,o),
(379,155,c),
(398,163,o),
(422,173,o),
(442,173,cs),
(462,173,o),
(477,164,o),
(477,143,cs),
(477,112,o),
(447,102,o),
(421,102,cs)
);
},
{
closed = 1;
nodes = (
(203,401,o),
(168,408,o),
(168,442,cs),
(168,487,o),
(218,498,o),
(254,498,cs),
(262,498,o),
(269,498,o),
(276,497,c),
(278,466,o),
(277,435,o),
(273,404,c),
(259,402,o),
(245,401,o),
(230,401,cs)
);
},
{
closed = 1;
nodes = (
(420,405,o),
(413,405,o),
(406,406,c),
(409,434,o),
(410,463,o),
(410,492,c),
(428,496,o),
(445,499,o),
(463,499,cs),
(487,499,o),
(510,492,o),
(510,464,cs),
(510,419,o),
(465,405,o),
(427,405,cs)
);
}
);
width = 694;
}
);
note = uni124C;
unicode = 4684;
},
{
glyphname = uni124D;
lastChange = "2024-11-17 05:54:33 +0000";
layers = (
{
hints = (
{
horizontal = 1;
place = (705,-20);
target = down;
type = TopGhost;
},
{
horizontal = 1;
place = (470,111);
type = Stem;
},
{
horizontal = 1;
place = (317,111);
type = Stem;
},
{
horizontal = 1;
place = (305,115);
type = Stem;
},
{
horizontal = 1;
place = (303,110);
type = Stem;
},
{
horizontal = 1;
place = (227,111);
type = Stem;
},
{
horizontal = 1;
place = (223,111);
type = Stem;
},
{
horizontal = 1;
place = (-5,21);
target = up;
type = BottomGhost;
},
{
place = (688,132);
type = Stem;
},
{
place = (516,134);
type = Stem;
},
{
place = (283,133);
type = Stem;
},
{
place = (253,133);
type = Stem;
},
{
place = (35,133);
type = Stem;
}
);
layerId = m01;
shapes = (
{
closed = 1;
nodes = (
(406,31,l),
(391,97,o),
(382,164,o),
(386,232,c),
(404,229,o),
(422,227,o),
(439,227,cs),
(506,227,o),
(570,257,o),
(608,305,c),
(652,305,o),
(695,314,o),
(738,314,c),
(755,303,o),
(776,299,o),
(800,303,cs),
(830,307,o),
(857,321,o),
(885,317,cs),
(899,315,o),
(909,304,o),
(916,279,c),
(1021,327,l),
(1001,392,o),
(955,428,o),
(910,428,cs),
(865,428,o),
(858,421,o),
(842,416,cs),
(818,409,o),
(809,417,o),
(809,436,cs),
(809,453,o),
(820,479,o),
(820,507,cs),
(820,532,o),
(812,556,o),
(798,579,c),
(673,548,l),
(683,528,o),
(687,510,o),
(688,499,cs),
(691,473,o),
(681,446,o),
(679,420,c),
(668,418,o),
(659,418,o),
(650,417,c),
(650,426,ls),
(650,523,o),
(584,582,o),
(479,582,cs),
(457,582,o),
(433,579,o),
(412,574,c),
(409,613,o),
(402,659,o),
(389,705,c),
(263,670,l),
(270,640,o),
(276,610,o),
(278,580,c),
(270,581,o),
(261,581,o),
(253,581,cs),
(129,581,o),
(35,497,o),
(35,387,cs),
(35,288,o),
(107,223,o),
(221,223,cs),
(231,223,o),
(242,223,o),
(253,224,c),
(246,147,o),
(257,68,o),
(281,-5,c)
);
},
{
closed = 1;
nodes = (
(192,334,o),
(168,354,o),
(168,390,cs),
(168,437,o),
(206,470,o),
(257,470,cs),
(266,470,o),
(275,468,o),
(283,466,c),
(282,422,o),
(277,380,o),
(268,339,c),
(254,335,o),
(243,334,o),
(233,334,cs)
);
},
{
closed = 1;
nodes = (
(421,338,o),
(411,339,o),
(402,340,c),
(409,382,o),
(415,422,o),
(416,464,c),
(430,468,o),
(443,470,o),
(457,470,cs),
(497,470,o),
(516,453,o),
(516,419,cs),
(516,370,o),
(483,338,o),
(430,338,cs)
);
}
);
width = 1041;
}
);
note = uni124D;
unicode = 4685;
},
{
glyphname = uni1250;
lastChange = "2024-11-17 05:54:33 +0000";
layers = (
{
hints = (
{
horizontal = 1;
place = (717,-20);
target = down;
type = TopGhost;
},
{
horizontal = 1;
place = (623,108);
type = Stem;
},
{
horizontal = 1;
place = (602,108);
type = Stem;
},
{
horizontal = 1;
place = (470,101);
type = Stem;
},
{
horizontal = 1;
place = (227,111);
type = Stem;
},
{
horizontal = 1;
place = (223,111);
type = Stem;
},
{
horizontal = 1;
place = (-5,21);
target = up;
type = BottomGhost;
},
{
place = (516,134);
type = Stem;
},
{
place = (276,134);
type = Stem;
},
{
place = (253,134);
type = Stem;
},
{
place = (35,133);
type = Stem;
}
);
layerId = m01;
shapes = (
{
closed = 1;
nodes = (
(406,31,l),
(391,97,o),
(382,165,o),
(387,232,c),
(405,229,o),
(423,227,o),
(440,227,cs),
(559,227,o),
(650,312,o),
(650,424,cs),
(650,522,o),
(585,572,o),
(479,572,cs),
(457,572,o),
(434,569,o),
(413,564,c),
(412,583,o),
(409,602,o),
(407,621,c),
(422,623,o),
(433,623,o),
(444,623,cs),
(469,623,o),
(496,619,o),
(523,611,c),
(558,717,l),
(526,726,o),
(496,731,o),
(471,731,cs),
(399,731,o),
(328,710,o),
(256,710,cs),
(233,710,o),
(201,716,o),
(158,727,c),
(124,621,l),
(172,608,o),
(208,602,o),
(241,602,cs),
(251,602,o),
(263,603,o),
(274,604,c),
(276,593,o),
(277,581,o),
(278,570,c),
(270,571,o),
(262,571,o),
(253,571,cs),
(129,571,o),
(35,497,o),
(35,387,cs),
(35,288,o),
(107,223,o),
(221,223,cs),
(231,223,o),
(242,223,o),
(253,224,c),
(246,147,o),
(257,68,o),
(281,-5,c)
);
},
{
closed = 1;
nodes = (
(192,334,o),
(168,354,o),
(168,390,cs),
(168,437,o),
(206,470,o),
(257,470,cs),
(266,470,o),
(274,468,o),
(283,466,c),
(281,424,o),
(276,381,o),
(268,339,c),
(253,335,o),
(243,334,o),
(233,334,cs)
);
},
{
closed = 1;
nodes = (
(421,338,o),
(410,339,o),
(401,341,c),
(408,381,o),
(414,422,o),
(416,464,c),
(430,468,o),
(443,470,o),
(457,470,cs),
(497,470,o),
(516,453,o),
(516,419,cs),
(516,370,o),
(483,338,o),
(430,338,cs)
);
}
);
width = 675;
}
);
note = uni1250;
unicode = 4688;
},
{
glyphname = uni1251;
lastChange = "2024-11-17 05:54:33 +0000";
layers = (
{
hints = (
{
horizontal = 1;
place = (645,108);
type = Stem;
},
{
horizontal = 1;
place = (624,108);
type = Stem;
},
{
horizontal = 1;
place = (489,102);
type = Stem;
},
{
horizontal = 1;
place = (299,96);
type = Stem;
},
{
horizontal = 1;
place = (294,97);
type = Stem;
},
{
horizontal = 1;
place = (158,109);
type = Stem;
},
{
horizontal = 1;
place = (-5,21);
target = up;
type = BottomGhost;
},
{
place = (510,134);
type = Stem;
},
{
place = (272,138);
type = Stem;
},
{
place = (246,10);
type = Stem;
},
{
place = (35,133);
type = Stem;
}
);
layerId = m01;
shapes = (
{
closed = 1;
nodes = (
(401,31,l),
(392,65,o),
(384,108,o),
(381,148,c),
(415,148,o),
(449,158,o),
(484,158,cs),
(505,158,o),
(530,154,o),
(565,145,c),
(591,251,l),
(555,262,o),
(524,267,o),
(500,267,cs),
(461,267,o),
(422,258,o),
(382,256,c),
(384,272,o),
(386,287,o),
(388,303,c),
(406,300,o),
(420,299,o),
(437,299,cs),
(556,299,o),
(644,362,o),
(644,463,cs),
(644,550,o),
(583,591,o),
(473,591,cs),
(448,591,o),
(426,588,o),
(406,583,c),
(404,603,o),
(401,623,o),
(397,643,c),
(412,644,o),
(425,645,o),
(437,645,cs),
(459,645,o),
(486,640,o),
(513,633,c),
(548,739,l),
(516,748,o),
(486,753,o),
(461,753,cs),
(389,753,o),
(318,732,o),
(246,732,cs),
(223,732,o),
(191,737,o),
(148,749,c),
(114,643,l),
(162,630,o),
(198,624,o),
(231,624,cs),
(241,624,o),
(253,625,o),
(265,626,c),
(267,613,o),
(268,601,o),
(270,589,c),
(250,590,ls),
(129,590,o),
(35,523,o),
(35,424,cs),
(35,338,o),
(105,294,o),
(221,294,cs),
(233,294,o),
(245,294,o),
(256,296,c),
(242,198,o),
(237,110,o),
(275,-5,c)
);
},
{
closed = 1;
nodes = (
(190,391,o),
(168,405,o),
(168,432,cs),
(168,468,o),
(201,488,o),
(254,488,cs),
(262,488,o),
(270,488,o),
(277,487,c),
(279,459,o),
(277,429,o),
(272,394,c),
(258,392,o),
(243,391,o),
(230,391,cs)
);
},
{
closed = 1;
nodes = (
(419,395,o),
(411,395,o),
(403,396,c),
(407,424,o),
(410,453,o),
(410,481,c),
(429,486,o),
(447,489,o),
(463,489,cs),
(494,489,o),
(510,477,o),
(510,454,cs),
(510,417,o),
(478,395,o),
(427,395,cs)
);
}
);
width = 670;
}
);
note = uni1251;
unicode = 4689;
},
{
glyphname = uni1252;
lastChange = "2024-11-17 05:54:33 +0000";
layers = (
{
hints = (
{
horizontal = 1;
place = (717,-20);
target = down;
type = TopGhost;
},
{
horizontal = 1;
place = (623,108);
type = Stem;
},
{
horizontal = 1;
place = (602,108);
type = Stem;
},
{
horizontal = 1;
place = (450,111);
type = Stem;
},
{
horizontal = 1;
place = (207,111);
type = Stem;
},
{
horizontal = 1;
place = (203,111);
type = Stem;
},
{
horizontal = 1;
place = (7,111);
type = Stem;
},
{
horizontal = 1;
place = (-9,111);
type = Stem;
},
{
place = (516,134);
type = Stem;
},
{
place = (276,137);
type = Stem;
},
{
place = (252,133);
type = Stem;
},
{
place = (35,133);
type = Stem;
}
);
layerId = m01;
shapes = (
{
closed = 1;
nodes = (
(450,-9,o),
(487,7,o),
(522,7,cs),
(533,7,o),
(550,2,o),
(573,-9,c),
(620,91,l),
(588,110,o),
(558,118,o),
(530,118,cs),
(491,118,o),
(456,102,o),
(418,102,cs),
(393,102,o),
(385,118,o),
(385,169,cs),
(385,183,o),
(386,198,o),
(387,212,c),
(405,209,o),
(423,207,o),
(439,207,cs),
(559,207,o),
(650,292,o),
(650,404,cs),
(650,502,o),
(585,562,o),
(479,562,cs),
(457,562,o),
(435,559,o),
(414,554,c),
(412,577,o),
(410,599,o),
(407,621,c),
(422,623,o),
(433,623,o),
(444,623,cs),
(469,623,o),
(496,619,o),
(523,611,c),
(558,717,l),
(526,726,o),
(496,731,o),
(472,731,cs),
(400,731,o),
(328,710,o),
(256,710,cs),
(233,710,o),
(201,716,o),
(158,727,c),
(124,621,l),
(172,608,o),
(208,602,o),
(241,602,cs),
(251,602,o),
(263,603,o),
(274,604,c),
(276,589,o),
(278,575,o),
(279,560,c),
(271,561,o),
(262,561,o),
(253,561,cs),
(129,561,o),
(35,477,o),
(35,367,cs),
(35,268,o),
(107,203,o),
(222,203,cs),
(231,203,o),
(242,203,o),
(253,204,c),
(252,192,o),
(252,179,o),
(252,167,cs),
(252,45,o),
(299,-9,o),
(408,-9,cs)
);
},
{
closed = 1;
nodes = (
(192,314,o),
(168,334,o),
(168,371,cs),
(168,417,o),
(206,450,o),
(258,450,cs),
(266,450,o),
(273,449,o),
(281,447,c),
(278,404,o),
(272,361,o),
(266,318,c),
(252,315,o),
(243,314,o),
(233,314,cs)
);
},
{
closed = 1;
nodes = (
(423,318,o),
(411,319,o),
(400,322,c),
(406,362,o),
(412,403,o),
(415,444,c),
(429,448,o),
(443,450,o),
(458,450,cs),
(497,450,o),
(516,433,o),
(516,399,cs),
(516,350,o),
(483,318,o),
(434,318,cs)
);
}
);
width = 680;
}
);
note = uni1252;
unicode = 4690;
},
{
glyphname = uni1253;
lastChange = "2024-11-17 05:54:33 +0000";
layers = (
{
hints = (
{
horizontal = 1;
place = (717,-20);
target = down;
type = TopGhost;
},
{
horizontal = 1;
place = (623,108);
type = Stem;
},
{
horizontal = 1;
place = (602,108);
type = Stem;
},
{
horizontal = 1;
place = (460,101);
type = Stem;
},
{
horizontal = 1;
place = (227,101);
type = Stem;
},
{
horizontal = 1;
place = (223,101);
type = Stem;
},
{
horizontal = 1;
place = (60,112);
type = Stem;
},
{
horizontal = 1;
place = (-4,21);
target = up;
type = BottomGhost;
},
{
place = (541,134);
type = Stem;
},
{
place = (296,136);
type = Stem;
},
{
place = (291,132);
type = Stem;
},
{
place = (50,134);
type = Stem;
},
{
place = (40,133);
type = Stem;
}
);
layerId = m01;
shapes = (
{
closed = 1;
nodes = (
(196,32,l),
(166,67,o),
(196,60,o),
(222,60,cs),
(307,60,o),
(367,79,o),
(401,126,cs),
(419,152,o),
(429,185,o),
(432,229,c),
(441,228,o),
(452,227,o),
(461,227,cs),
(583,227,o),
(675,301,o),
(675,415,cs),
(675,515,o),
(607,561,o),
(497,561,cs),
(473,561,o),
(451,559,o),
(425,553,c),
(428,576,o),
(433,599,o),
(439,621,c),
(452,622,o),
(465,623,o),
(478,623,cs),
(499,623,o),
(526,619,o),
(553,611,c),
(588,717,l),
(556,726,o),
(526,731,o),
(501,731,cs),
(429,731,o),
(358,710,o),
(286,710,cs),
(263,710,o),
(231,716,o),
(188,727,c),
(154,621,l),
(201,608,o),
(237,602,o),
(266,602,cs),
(277,602,o),
(287,603,o),
(297,604,c),
(294,589,o),
(292,574,o),
(290,559,c),
(280,560,o),
(268,561,o),
(257,561,cs),
(134,561,o),
(40,487,o),
(40,376,cs),
(40,276,o),
(114,223,o),
(230,223,cs),
(252,223,o),
(276,225,o),
(296,228,c),
(295,189,o),
(270,172,o),
(218,172,cs),
(115,172,o),
(50,128,o),
(50,59,cs),
(50,42,o),
(54,20,o),
(70,-4,c)
);
},
{
closed = 1;
nodes = (
(199,324,o),
(173,344,o),
(173,381,cs),
(173,426,o),
(210,460,o),
(262,460,cs),
(270,460,o),
(277,459,o),
(285,457,c),
(286,417,o),
(289,374,o),
(291,329,c),
(277,326,o),
(262,324,o),
(248,324,cs)
);
},
{
closed = 1;
nodes = (
(448,328,o),
(438,329,o),
(428,330,c),
(425,371,o),
(420,411,o),
(419,452,c),
(438,457,o),
(461,460,o),
(481,460,cs),
(522,460,o),
(541,443,o),
(541,409,cs),
(541,360,o),
(508,328,o),
(457,328,cs)
);
}
);
width = 700;
}
);
note = uni1253;
unicode = 4691;
},
{
glyphname = uni1254;
lastChange = "2024-11-17 05:54:33 +0000";
layers = (
{
hints = (
{
horizontal = 1;
place = (645,108);
type = Stem;
},
{
horizontal = 1;
place = (624,108);
type = Stem;
},
{
horizontal = 1;
place = (489,102);
type = Stem;
},
{
horizontal = 1;
place = (299,96);
type = Stem;
},
{
horizontal = 1;
place = (294,97);
type = Stem;
},
{
horizontal = 1;
place = (173,101);
type = Stem;
},
{
horizontal = 1;
place = (-9,111);
type = Stem;
},
{
place = (510,134);
type = Stem;
},
{
place = (477,133);
type = Stem;
},
{
place = (275,135);
type = Stem;
},
{
place = (246,134);
type = Stem;
},
{
place = (35,133);
type = Stem;
}
);
layerId = m01;
shapes = (
{
closed = 1;
nodes = (
(530,-9,o),
(610,57,o),
(610,152,cs),
(610,233,o),
(553,274,o),
(466,274,cs),
(439,274,o),
(408,269,o),
(382,259,c),
(383,274,o),
(386,288,o),
(389,303,c),
(405,300,o),
(421,299,o),
(437,299,cs),
(556,299,o),
(644,362,o),
(644,463,cs),
(644,550,o),
(583,591,o),
(473,591,cs),
(448,591,o),
(426,588,o),
(406,583,c),
(404,603,o),
(401,623,o),
(397,643,c),
(412,644,o),
(425,645,o),
(437,645,cs),
(459,645,o),
(486,640,o),
(513,633,c),
(548,739,l),
(516,748,o),
(486,753,o),
(462,753,cs),
(389,753,o),
(319,732,o),
(246,732,cs),
(223,732,o),
(191,737,o),
(148,749,c),
(114,643,l),
(162,630,o),
(198,624,o),
(231,624,cs),
(241,624,o),
(253,625,o),
(265,626,c),
(267,614,o),
(268,602,o),
(270,589,c),
(250,590,ls),
(129,590,o),
(35,523,o),
(35,425,cs),
(35,338,o),
(105,294,o),
(221,294,cs),
(233,294,o),
(245,294,o),
(256,295,c),
(250,261,o),
(246,227,o),
(246,191,cs),
(246,51,o),
(296,-9,o),
(413,-9,cs)
);
},
{
closed = 1;
nodes = (
(393,102,o),
(383,116,o),
(380,161,c),
(399,169,o),
(419,173,o),
(437,173,cs),
(463,173,o),
(477,163,o),
(477,143,cs),
(477,117,o),
(456,102,o),
(421,102,cs)
);
},
{
closed = 1;
nodes = (
(190,391,o),
(168,405,o),
(168,432,cs),
(168,468,o),
(201,488,o),
(255,488,cs),
(263,488,o),
(270,488,o),
(277,487,c),
(278,456,o),
(277,425,o),
(273,394,c),
(255,392,o),
(236,391,o),
(230,391,cs)
);
},
{
closed = 1;
nodes = (
(420,395,o),
(412,395,o),
(404,396,c),
(408,424,o),
(410,453,o),
(410,481,c),
(429,486,o),
(447,489,o),
(462,489,cs),
(494,489,o),
(510,477,o),
(510,453,cs),
(510,417,o),
(478,395,o),
(428,395,cs)
);
}
);
width = 694;
}
);
note = uni1254;
unicode = 4692;
},
{
glyphname = uni1255;
lastChange = "2024-11-17 05:54:33 +0000";
layers = (
{
hints = (
{
horizontal = 1;
place = (717,-20);
target = down;
type = TopGhost;
},
{
horizontal = 1;
place = (623,108);
type = Stem;
},
{
horizontal = 1;
place = (602,108);
type = Stem;
},
{
horizontal = 1;
place = (465,115);
type = Stem;
},
{
horizontal = 1;
place = (326,102);
type = Stem;
},
{
horizontal = 1;
place = (135,96);
type = Stem;
},
{
horizontal = 1;
place = (131,97);
type = Stem;
},
{
horizontal = 1;
place = (-5,21);
target = up;
type = BottomGhost;
},
{
place = (583,135);
type = Stem;
},
{
place = (367,134);
type = Stem;
},
{
place = (337,134);
type = Stem;
},
{
place = (177,130);
type = Stem;
},
{
place = (108,134);
type = Stem;
}
);
layerId = m01;
shapes = (
{
closed = 1;
nodes = (
(491,31,l),
(481,66,o),
(474,102,o),
(471,138,c),
(484,136,o),
(496,135,o),
(508,135,cs),
(629,135,o),
(718,199,o),
(718,301,cs),
(718,387,o),
(656,428,o),
(546,428,cs),
(529,428,o),
(514,427,o),
(498,424,c),
(500,442,o),
(501,461,o),
(501,480,cs),
(501,555,o),
(481,580,o),
(418,580,cs),
(381,580,o),
(344,572,o),
(307,567,c),
(306,583,o),
(305,611,o),
(304,621,c),
(317,622,o),
(329,623,o),
(341,623,cs),
(361,623,o),
(388,619,o),
(416,611,c),
(450,717,l),
(418,726,o),
(389,731,o),
(363,731,cs),
(290,731,o),
(218,710,o),
(146,710,cs),
(119,710,o),
(84,717,o),
(51,728,c),
(16,621,l),
(63,608,o),
(100,602,o),
(127,602,cs),
(141,602,o),
(155,603,o),
(173,605,c),
(176,584,o),
(177,544,o),
(177,529,cs),
(177,471,o),
(195,450,o),
(242,450,cs),
(262,450,o),
(289,455,o),
(315,460,cs),
(362,469,o),
(367,468,o),
(367,452,cs),
(367,442,o),
(367,432,o),
(367,423,c),
(352,426,o),
(336,427,o),
(320,427,cs),
(202,427,o),
(108,359,o),
(108,262,cs),
(108,175,o),
(179,131,o),
(291,131,cs),
(307,131,o),
(322,132,o),
(337,134,c),
(340,87,o),
(349,40,o),
(367,-5,c)
);
},
{
closed = 1;
nodes = (
(264,228,o),
(242,242,o),
(242,269,cs),
(242,304,o),
(274,325,o),
(330,325,cs),
(338,325,o),
(346,325,o),
(354,323,c),
(348,292,o),
(342,262,o),
(339,230,c),
(328,228,o),
(317,228,o),
(306,228,cs)
);
},
{
closed = 1;
nodes = (
(493,231,o),
(482,232,o),
(472,234,c),
(475,263,o),
(479,291,o),
(483,318,c),
(503,324,o),
(520,326,o),
(536,326,cs),
(567,326,o),
(583,314,o),
(583,290,cs),
(583,254,o),
(553,231,o),
(504,231,cs)
);
}
);
width = 743;
}
);
note = uni1255;
unicode = 4693;
},
{
glyphname = uni1256;
lastChange = "2024-11-17 05:54:33 +0000";
layers = (
{
hints = (
{
horizontal = 1;
place = (679,110);
type = Stem;
},
{
horizontal = 1;
place = (662,106);
type = Stem;
},
{
horizontal = 1;
place = (316,102);
type = Stem;
},
{
horizontal = 1;
place = (126,96);
type = Stem;
},
{
horizontal = 1;
place = (122,97);
type = Stem;
},
{
horizontal = 1;
place = (-5,21);
target = up;
type = BottomGhost;
},
{
place = (507,134);
type = Stem;
},
{
place = (393,132);
type = Stem;
},
{
place = (182,132);
type = Stem;
},
{
place = (32,133);
type = Stem;
}
);
layerId = m01;
shapes = (
{
closed = 1;
nodes = (
(415,31,l),
(409,50,o),
(400,84,o),
(395,129,c),
(407,127,o),
(420,126,o),
(431,126,cs),
(552,126,o),
(641,190,o),
(641,292,cs),
(641,378,o),
(581,419,o),
(475,419,cs),
(452,419,o),
(431,416,o),
(409,411,c),
(407,417,o),
(406,419,o),
(403,424,c),
(486,467,o),
(525,517,o),
(525,581,cs),
(525,622,o),
(510,655,o),
(481,679,c),
(496,677,o),
(513,673,o),
(530,668,c),
(565,775,l),
(533,783,o),
(503,789,o),
(478,789,cs),
(406,789,o),
(335,768,o),
(263,768,cs),
(240,768,o),
(208,773,o),
(165,785,c),
(131,679,l),
(163,670,o),
(191,664,o),
(215,662,c),
(193,637,o),
(182,607,o),
(182,571,cs),
(182,509,o),
(224,474,o),
(247,432,c),
(249,427,o),
(252,422,o),
(254,418,c),
(243,418,ls),
(125,418,o),
(32,350,o),
(32,252,cs),
(32,165,o),
(102,122,o),
(214,122,cs),
(231,122,o),
(250,123,o),
(266,125,c),
(270,81,o),
(280,39,o),
(294,-5,c)
);
},
{
closed = 1;
nodes = (
(187,219,o),
(165,233,o),
(165,260,cs),
(165,295,o),
(198,316,o),
(253,316,cs),
(262,316,o),
(270,316,o),
(277,314,c),
(274,283,o),
(268,253,o),
(266,222,c),
(253,220,o),
(240,219,o),
(227,219,cs)
);
},
{
closed = 1;
nodes = (
(417,222,o),
(406,223,o),
(396,225,c),
(399,258,o),
(401,277,o),
(408,309,c),
(426,314,o),
(444,317,o),
(460,317,cs),
(491,317,o),
(507,305,o),
(507,282,cs),
(507,245,o),
(475,222,o),
(427,222,cs)
);
},
{
closed = 1;
nodes = (
(323,539,o),
(314,558,o),
(314,577,cs),
(314,601,o),
(330,616,o),
(354,616,cs),
(378,616,o),
(393,601,o),
(393,579,cs),
(393,548,o),
(369,517,o),
(348,506,c)
);
}
);
width = 669;
}
);
note = uni1256;
unicode = 4694;
},
{
glyphname = uni1258;
kernRight = uni1202;
lastChange = "2024-11-17 05:54:33 +0000";
layers = (
{
hints = (
{
horizontal = 1;
place = (645,108);
type = Stem;
},
{
horizontal = 1;
place = (624,108);
type = Stem;
},
{
horizontal = 1;
place = (489,102);
type = Stem;
},
{
horizontal = 1;
place = (299,96);
type = Stem;
},
{
horizontal = 1;
place = (294,97);
type = Stem;
},
{
horizontal = 1;
place = (173,111);
type = Stem;
},
{
horizontal = 1;
place = (150,111);
type = Stem;
},
{
horizontal = 1;
place = (-9,111);
type = Stem;
},
{
horizontal = 1;
place = (-5,21);
target = up;
type = BottomGhost;
},
{
place = (689,133);
type = Stem;
},
{
place = (510,134);
type = Stem;
},
{
place = (277,133);
type = Stem;
},
{
place = (246,135);
type = Stem;
},
{
place = (35,133);
type = Stem;
}
);
layerId = m01;
shapes = (
{
closed = 1;
nodes = (
(734,-9,o),
(822,61,o),
(822,156,cs),
(822,234,o),
(764,284,o),
(676,284,cs),
(629,284,o),
(576,269,o),
(531,243,c),
(511,255,o),
(485,261,o),
(455,261,cs),
(431,261,o),
(407,258,o),
(382,257,c),
(384,272,o),
(386,287,o),
(389,302,c),
(406,300,o),
(421,299,o),
(437,299,cs),
(556,299,o),
(644,362,o),
(644,463,cs),
(644,550,o),
(583,591,o),
(473,591,cs),
(448,591,o),
(426,588,o),
(406,583,c),
(404,603,o),
(401,623,o),
(397,643,c),
(412,644,o),
(425,645,o),
(437,645,cs),
(459,645,o),
(486,640,o),
(513,633,c),
(548,739,l),
(516,748,o),
(486,753,o),
(461,753,cs),
(389,753,o),
(318,732,o),
(246,732,cs),
(223,732,o),
(191,737,o),
(148,749,c),
(114,643,l),
(162,630,o),
(198,624,o),
(231,624,cs),
(241,624,o),
(253,625,o),
(265,626,c),
(267,613,o),
(269,602,o),
(270,589,c),
(250,590,ls),
(129,590,o),
(35,523,o),
(35,424,cs),
(35,338,o),
(105,294,o),
(221,294,cs),
(233,294,o),
(245,294,o),
(256,295,c),
(249,257,o),
(246,217,o),
(246,178,cs),
(247,122,o),
(255,57,o),
(275,-5,c),
(401,31,l),
(392,65,o),
(384,108,o),
(381,148,c),
(390,149,o),
(400,150,o),
(412,150,cs),
(446,150,o),
(456,141,o),
(461,111,cs),
(474,28,o),
(524,-9,o),
(614,-9,cs)
);
},
{
closed = 1;
nodes = (
(190,391,o),
(168,405,o),
(168,432,cs),
(168,468,o),
(201,488,o),
(254,488,cs),
(262,488,o),
(270,488,o),
(277,487,c),
(279,457,o),
(276,423,o),
(272,394,c),
(258,392,o),
(243,391,o),
(230,391,cs)
);
},
{
closed = 1;
nodes = (
(610,102,o),
(597,114,o),
(592,144,c),
(592,148,o),
(591,153,o),
(589,160,c),
(609,169,o),
(629,173,o),
(648,173,cs),
(675,173,o),
(689,163,o),
(689,143,cs),
(689,117,o),
(668,102,o),
(634,102,cs)
);
},
{
closed = 1;
nodes = (
(420,395,o),
(412,395,o),
(405,396,c),
(409,424,o),
(410,453,o),
(410,481,c),
(429,486,o),
(447,489,o),
(463,489,cs),
(494,489,o),
(510,477,o),
(510,454,cs),
(510,417,o),
(478,395,o),
(427,395,cs)
);
}
);
width = 852;
}
);
note = uni1258;
unicode = 4696;
},
{
glyphname = uni125A;
lastChange = "2024-11-17 05:54:33 +0000";
layers = (
{
hints = (
{
horizontal = 1;
place = (644,108);
type = Stem;
},
{
horizontal = 1;
place = (623,108);
type = Stem;
},
{
horizontal = 1;
place = (470,111);
type = Stem;
},
{
horizontal = 1;
place = (227,111);
type = Stem;
},
{
horizontal = 1;
place = (223,111);
type = Stem;
},
{
horizontal = 1;
place = (211,112);
type = Stem;
},
{
horizontal = 1;
place = (-5,21);
target = up;
type = BottomGhost;
},
{
place = (701,134);
type = Stem;
},
{
place = (516,134);
type = Stem;
},
{
place = (253,133);
type = Stem;
},
{
place = (35,133);
type = Stem;
}
);
layerId = m01;
shapes = (
{
closed = 1;
nodes = (
(406,31,l),
(391,97,o),
(382,164,o),
(386,232,c),
(404,229,o),
(422,227,o),
(439,227,cs),
(506,227,o),
(570,257,o),
(608,305,c),
(637,306,o),
(666,312,o),
(694,315,c),
(703,249,o),
(751,211,o),
(830,211,cs),
(858,211,o),
(887,218,o),
(936,235,c),
(900,334,l),
(877,326,o),
(855,321,o),
(845,323,cs),
(833,325,o),
(827,332,o),
(827,353,cs),
(828,384,o),
(835,416,o),
(835,447,cs),
(835,472,o),
(835,487,o),
(815,537,c),
(687,507,l),
(697,477,o),
(701,459,o),
(701,442,cs),
(701,436,o),
(701,430,o),
(700,424,c),
(683,422,o),
(667,418,o),
(650,417,c),
(650,426,ls),
(650,523,o),
(584,582,o),
(479,582,cs),
(457,582,o),
(434,579,o),
(413,574,c),
(411,597,o),
(408,619,o),
(403,642,c),
(416,643,o),
(427,644,o),
(438,644,cs),
(459,644,o),
(486,639,o),
(513,632,c),
(548,738,l),
(516,747,o),
(486,752,o),
(462,752,cs),
(389,752,o),
(319,731,o),
(246,731,cs),
(223,731,o),
(191,736,o),
(148,748,c),
(114,642,l),
(161,629,o),
(197,623,o),
(224,623,cs),
(238,623,o),
(253,624,o),
(270,626,c),
(273,614,o),
(275,598,o),
(277,580,c),
(270,581,o),
(261,581,o),
(253,581,cs),
(129,581,o),
(35,497,o),
(35,387,cs),
(35,288,o),
(107,223,o),
(221,223,cs),
(231,223,o),
(242,223,o),
(253,224,c),
(246,147,o),
(257,68,o),
(281,-5,c)
);
},
{
closed = 1;
nodes = (
(192,334,o),
(168,354,o),
(168,391,cs),
(168,437,o),
(206,470,o),
(258,470,cs),
(267,470,o),
(275,468,o),
(283,466,c),
(282,421,o),
(276,379,o),
(268,339,c),
(253,335,o),
(243,334,o),
(233,334,cs)
);
},
{
closed = 1;
nodes = (
(421,338,o),
(411,339,o),
(402,340,c),
(409,382,o),
(415,422,o),
(416,464,c),
(430,468,o),
(444,470,o),
(458,470,cs),
(497,470,o),
(516,453,o),
(516,419,cs),
(516,370,o),
(483,338,o),
(430,338,cs)
);
}
);
width = 956;
}
);
note = uni125A;
unicode = 4698;
},
{
glyphname = uni125B;
lastChange = "2024-11-17 05:54:33 +0000";
layers = (
{
hints = (
{
horizontal = 1;
place = (645,108);
type = Stem;
},
{
horizontal = 1;
place = (624,108);
type = Stem;
},
{
horizontal = 1;
place = (470,111);
type = Stem;
},
{
horizontal = 1;
place = (227,111);
type = Stem;
},
{
horizontal = 1;
place = (223,111);
type = Stem;
},
{
horizontal = 1;
place = (8,107);
type = Stem;
},
{
horizontal = 1;
place = (-13,108);
type = Stem;
},
{
horizontal = 1;
place = (-5,21);
target = up;
type = BottomGhost;
},
{
place = (516,134);
type = Stem;
},
{
place = (283,133);
type = Stem;
},
{
place = (253,137);
type = Stem;
},
{
place = (35,133);
type = Stem;
}
);
layerId = m01;
shapes = (
{
closed = 1;
nodes = (
(298,-13,o),
(369,8,o),
(441,8,cs),
(465,8,o),
(492,1,o),
(513,-5,c),
(548,101,l),
(523,108,o),
(492,115,o),
(459,115,cs),
(435,115,o),
(412,113,o),
(390,110,c),
(385,151,o),
(384,192,o),
(387,232,c),
(403,229,o),
(421,227,o),
(439,227,cs),
(548,227,o),
(650,302,o),
(650,424,cs),
(650,525,o),
(582,582,o),
(478,582,cs),
(454,582,o),
(432,579,o),
(413,574,c),
(410,603,o),
(407,625,o),
(403,643,c),
(415,644,o),
(426,645,o),
(438,645,cs),
(465,645,o),
(492,639,o),
(513,632,c),
(548,739,l),
(523,746,o),
(492,753,o),
(462,753,cs),
(389,753,o),
(319,732,o),
(246,732,cs),
(219,732,o),
(182,740,o),
(148,749,c),
(114,643,l),
(151,633,o),
(192,624,o),
(226,624,cs),
(240,624,o),
(255,625,o),
(270,627,c),
(273,614,o),
(275,600,o),
(277,580,c),
(269,581,o),
(261,581,o),
(252,581,cs),
(131,581,o),
(35,499,o),
(35,387,cs),
(35,287,o),
(109,223,o),
(218,223,cs),
(226,223,o),
(239,223,o),
(253,224,c),
(250,181,o),
(250,137,o),
(256,95,c),
(239,95,o),
(222,96,o),
(205,99,cs),
(186,102,o),
(167,106,o),
(148,111,c),
(114,5,l),
(151,-5,o),
(192,-13,o),
(225,-13,cs)
);
},
{
closed = 1;
nodes = (
(191,334,o),
(168,355,o),
(168,391,cs),
(168,439,o),
(207,470,o),
(258,470,cs),
(267,470,o),
(275,468,o),
(283,467,c),
(282,418,o),
(276,377,o),
(268,339,c),
(256,336,o),
(245,334,o),
(232,334,cs)
);
},
{
closed = 1;
nodes = (
(423,338,o),
(413,339,o),
(402,341,c),
(409,381,o),
(415,421,o),
(416,464,c),
(430,468,o),
(443,470,o),
(458,470,cs),
(501,470,o),
(516,450,o),
(516,419,cs),
(516,370,o),
(483,338,o),
(431,338,cs)
);
}
);
width = 675;
}
);
note = uni125B;
unicode = 4699;
},
{
glyphname = uni125C;
lastChange = "2024-11-17 05:54:33 +0000";
layers = (
{
hints = (
{
horizontal = 1;
place = (645,108);
type = Stem;
},
{
horizontal = 1;
place = (624,108);
type = Stem;
},
{
horizontal = 1;
place = (489,102);
type = Stem;
},
{
horizontal = 1;
place = (299,96);
type = Stem;
},
{
horizontal = 1;
place = (294,97);
type = Stem;
},
{
horizontal = 1;
place = (173,101);
type = Stem;
},
{
horizontal = 1;
place = (99,102);
type = Stem;
},
{
horizontal = 1;
place = (-9,111);
type = Stem;
},
{
place = (510,134);
type = Stem;
},
{
place = (477,133);
type = Stem;
},
{
place = (277,133);
type = Stem;
},
{
place = (35,133);
type = Stem;
}
);
layerId = m01;
shapes = (
{
closed = 1;
nodes = (
(522,-9,o),
(610,61,o),
(610,156,cs),
(610,233,o),
(553,274,o),
(467,274,cs),
(442,274,o),
(418,270,o),
(382,258,c),
(383,273,o),
(386,288,o),
(389,303,c),
(405,300,o),
(421,299,o),
(437,299,cs),
(556,299,o),
(644,362,o),
(644,463,cs),
(644,550,o),
(583,591,o),
(473,591,cs),
(448,591,o),
(426,588,o),
(406,583,c),
(404,603,o),
(401,623,o),
(397,643,c),
(412,644,o),
(425,645,o),
(437,645,cs),
(459,645,o),
(486,640,o),
(513,633,c),
(548,739,l),
(516,748,o),
(486,753,o),
(461,753,cs),
(389,753,o),
(318,732,o),
(246,732,cs),
(223,732,o),
(191,737,o),
(148,749,c),
(114,643,l),
(162,630,o),
(198,624,o),
(231,624,cs),
(241,624,o),
(253,625,o),
(265,626,c),
(267,613,o),
(269,602,o),
(270,589,c),
(250,590,ls),
(129,590,o),
(35,523,o),
(35,424,cs),
(35,338,o),
(105,294,o),
(221,294,cs),
(233,294,o),
(244,294,o),
(255,295,c),
(250,267,o),
(247,238,o),
(246,209,c),
(224,203,o),
(205,201,o),
(188,201,cs),
(167,201,o),
(139,206,o),
(105,217,c),
(58,128,l),
(98,111,o),
(146,99,o),
(183,99,cs),
(205,99,o),
(227,102,o),
(251,107,c),
(265,35,o),
(306,-9,o),
(402,-9,cs)
);
},
{
closed = 1;
nodes = (
(390,102,o),
(382,128,o),
(379,155,c),
(415,170,o),
(429,173,o),
(442,173,cs),
(465,173,o),
(477,162,o),
(477,143,cs),
(477,117,o),
(456,102,o),
(421,102,cs)
);
},
{
closed = 1;
nodes = (
(190,391,o),
(168,405,o),
(168,432,cs),
(168,468,o),
(201,488,o),
(254,488,cs),
(262,488,o),
(270,488,o),
(277,487,c),
(279,457,o),
(276,423,o),
(272,394,c),
(258,392,o),
(243,391,o),
(230,391,cs)
);
},
{
closed = 1;
nodes = (
(420,395,o),
(412,395,o),
(405,396,c),
(409,424,o),
(410,453,o),
(410,481,c),
(429,486,o),
(447,489,o),
(463,489,cs),
(494,489,o),
(510,477,o),
(510,454,cs),
(510,417,o),
(478,395,o),
(427,395,cs)
);
}
);
width = 694;
}
);
note = uni125C;
unicode = 4700;
},
{
glyphname = uni125D;
lastChange = "2024-11-17 05:54:33 +0000";
layers = (
{
hints = (
{
horizontal = 1;
place = (645,108);
type = Stem;
},
{
horizontal = 1;
place = (624,108);
type = Stem;
},
{
horizontal = 1;
place = (470,111);
type = Stem;
},
{
horizontal = 1;
place = (317,97);
type = Stem;
},
{
horizontal = 1;
place = (305,115);
type = Stem;
},
{
horizontal = 1;
place = (227,111);
type = Stem;
},
{
horizontal = 1;
place = (223,111);
type = Stem;
},
{
horizontal = 1;
place = (-5,21);
target = up;
type = BottomGhost;
},
{
place = (688,132);
type = Stem;
},
{
place = (516,134);
type = Stem;
},
{
place = (253,133);
type = Stem;
},
{
place = (35,133);
type = Stem;
}
);
layerId = m01;
shapes = (
{
closed = 1;
nodes = (
(406,31,l),
(391,97,o),
(382,164,o),
(386,232,c),
(404,229,o),
(422,227,o),
(439,227,cs),
(506,227,o),
(570,257,o),
(608,305,c),
(652,305,o),
(695,314,o),
(738,314,c),
(755,306,o),
(776,303,o),
(800,303,cs),
(830,303,o),
(857,317,o),
(885,317,cs),
(894,317,o),
(902,308,o),
(916,279,c),
(1021,327,l),
(1001,392,o),
(955,428,o),
(911,428,cs),
(874,428,o),
(810,397,o),
(810,426,cs),
(810,453,o),
(820,481,o),
(820,507,cs),
(820,532,o),
(813,555,o),
(798,579,c),
(673,548,l),
(683,528,o),
(688,510,o),
(688,499,cs),
(688,473,o),
(681,446,o),
(679,420,c),
(668,418,o),
(659,418,o),
(650,417,c),
(650,426,ls),
(650,523,o),
(584,582,o),
(479,582,cs),
(457,582,o),
(434,579,o),
(413,574,c),
(410,597,o),
(407,619,o),
(403,643,c),
(416,644,o),
(427,645,o),
(438,645,cs),
(459,645,o),
(486,640,o),
(513,633,c),
(548,739,l),
(516,748,o),
(486,753,o),
(461,753,cs),
(389,753,o),
(318,732,o),
(246,732,cs),
(223,732,o),
(191,737,o),
(148,749,c),
(114,643,l),
(161,630,o),
(197,624,o),
(224,624,cs),
(238,624,o),
(253,625,o),
(270,627,c),
(273,614,o),
(275,599,o),
(277,580,c),
(270,581,o),
(261,581,o),
(253,581,cs),
(129,581,o),
(35,497,o),
(35,387,cs),
(35,288,o),
(107,223,o),
(221,223,cs),
(231,223,o),
(242,223,o),
(253,224,c),
(246,147,o),
(257,68,o),
(281,-5,c)
);
},
{
closed = 1;
nodes = (
(192,334,o),
(168,354,o),
(168,390,cs),
(168,437,o),
(206,470,o),
(257,470,cs),
(266,470,o),
(275,468,o),
(283,466,c),
(282,427,o),
(276,383,o),
(268,339,c),
(253,335,o),
(243,334,o),
(233,334,cs)
);
},
{
closed = 1;
nodes = (
(421,338,o),
(411,339,o),
(402,340,c),
(409,382,o),
(415,422,o),
(416,464,c),
(430,468,o),
(443,470,o),
(457,470,cs),
(497,470,o),
(516,453,o),
(516,419,cs),
(516,370,o),
(483,338,o),
(430,338,cs)
);
}
);
width = 1041;
}
);
note = uni125D;
unicode = 4701;
},
{
glyphname = uni1260;
lastChange = "2024-11-17 05:54:33 +0000";
layers = (
{
hints = (
{
horizontal = 1;
place = (531,111);
type = Stem;
},
{
horizontal = 1;
place = (-4,21);
target = up;
type = BottomGhost;
},
{
horizontal = 1;
place = (-5,21);
target = up;
type = BottomGhost;
},
{
place = (409,134);
type = Stem;
},
{
place = (393,134);
type = Stem;
},
{
place = (70,134);
type = Stem;
}
);
layerId = m01;
shapes = (
{
closed = 1;
nodes = (
(227,29,l),
(212,100,o),
(204,172,o),
(204,244,cs),
(204,440,o),
(246,531,o),
(334,531,cs),
(387,531,o),
(409,493,o),
(409,404,cs),
(409,316,o),
(393,228,o),
(393,140,cs),
(393,84,o),
(401,37,o),
(417,-4,c),
(548,31,l),
(536,55,o),
(527,106,o),
(527,156,cs),
(527,240,o),
(543,324,o),
(543,408,cs),
(543,571,o),
(484,642,o),
(349,642,cs),
(164,642,o),
(70,505,o),
(70,237,cs),
(70,163,o),
(79,79,o),
(96,-5,c)
);
}
);
width = 618;
}
);
note = uni1260;
unicode = 4704;
},
{
glyphname = uni1261;
lastChange = "2024-11-17 05:54:33 +0000";
layers = (
{
hints = (
{
horizontal = 1;
place = (531,111);
type = Stem;
},
{
horizontal = 1;
place = (304,108);
type = Stem;
},
{
horizontal = 1;
place = (-4,21);
target = up;
type = BottomGhost;
},
{
horizontal = 1;
place = (-5,21);
target = up;
type = BottomGhost;
},
{
place = (406,134);
type = Stem;
},
{
place = (390,134);
type = Stem;
},
{
place = (67,134);
type = Stem;
}
);
layerId = m01;
shapes = (
{
closed = 1;
nodes = (
(224,29,l),
(209,100,o),
(201,172,o),
(201,244,cs),
(201,440,o),
(243,531,o),
(331,531,cs),
(384,531,o),
(406,493,o),
(406,404,cs),
(406,316,o),
(390,228,o),
(390,140,cs),
(390,84,o),
(398,37,o),
(414,-4,c),
(545,31,l),
(533,55,o),
(524,106,o),
(524,156,cs),
(524,203,o),
(529,250,o),
(534,296,c),
(556,298,o),
(579,304,o),
(601,304,cs),
(616,304,o),
(632,302,o),
(680,291,c),
(706,396,l),
(675,406,o),
(643,412,o),
(617,412,cs),
(591,412,o),
(566,407,o),
(540,406,c),
(540,421,o),
(540,436,o),
(539,450,cs),
(531,566,o),
(484,642,o),
(346,642,cs),
(161,642,o),
(67,505,o),
(67,237,cs),
(67,163,o),
(76,79,o),
(93,-5,c)
);
}
);
width = 768;
}
);
note = uni1261;
unicode = 4705;
},
{
glyphname = uni1262;
kernRight = uni120A;
lastChange = "2024-11-17 05:54:33 +0000";
layers = (
{
hints = (
{
horizontal = 1;
place = (531,111);
type = Stem;
},
{
horizontal = 1;
place = (7,111);
type = Stem;
},
{
horizontal = 1;
place = (-9,111);
type = Stem;
},
{
horizontal = 1;
place = (-5,21);
target = up;
type = BottomGhost;
},
{
place = (409,134);
type = Stem;
},
{
place = (393,133);
type = Stem;
},
{
place = (70,134);
type = Stem;
}
);
layerId = m01;
shapes = (
{
closed = 1;
nodes = (
(591,-9,o),
(628,7,o),
(663,7,cs),
(674,7,o),
(691,2,o),
(714,-9,c),
(761,91,l),
(729,110,o),
(699,118,o),
(671,118,cs),
(632,118,o),
(597,102,o),
(560,102,cs),
(534,102,o),
(526,118,o),
(526,168,cs),
(526,248,o),
(543,327,o),
(543,407,cs),
(543,571,o),
(484,642,o),
(349,642,cs),
(164,642,o),
(70,505,o),
(70,237,cs),
(70,163,o),
(79,79,o),
(96,-5,c),
(227,29,l),
(212,100,o),
(204,172,o),
(204,244,cs),
(204,440,o),
(246,531,o),
(334,531,cs),
(387,531,o),
(409,493,o),
(409,405,cs),
(409,324,o),
(393,244,o),
(393,163,cs),
(393,44,o),
(440,-9,o),
(549,-9,cs)
);
}
);
width = 771;
}
);
note = uni1262;
unicode = 4706;
},
{
glyphname = uni1263;
lastChange = "2024-11-17 05:54:33 +0000";
layers = (
{
hints = (
{
horizontal = 1;
place = (531,111);
type = Stem;
},
{
horizontal = 1;
place = (-4,21);
target = up;
type = BottomGhost;
},
{
place = (409,134);
type = Stem;
},
{
place = (393,134);
type = Stem;
},
{
place = (70,134);
type = Stem;
}
);
layerId = m01;
shapes = (
{
closed = 1;
nodes = (
(548,31,l),
(536,55,o),
(527,106,o),
(527,156,cs),
(527,240,o),
(543,323,o),
(543,408,cs),
(543,570,o),
(484,642,o),
(350,642,cs),
(172,642,o),
(70,507,o),
(70,271,cs),
(70,208,o),
(80,142,o),
(94,96,c),
(228,120,l),
(213,162,o),
(204,218,o),
(204,273,cs),
(204,435,o),
(254,531,o),
(338,531,cs),
(387,531,o),
(409,493,o),
(409,407,cs),
(409,317,o),
(393,229,o),
(393,140,cs),
(393,84,o),
(401,37,o),
(417,-4,c)
);
}
);
width = 618;
}
);
note = uni1263;
unicode = 4707;
},
{
glyphname = uni1264;
kernRight = uni1202;
lastChange = "2024-11-17 05:54:33 +0000";
layers = (
{
hints = (
{
horizontal = 1;
place = (531,111);
type = Stem;
},
{
horizontal = 1;
place = (192,111);
type = Stem;
},
{
horizontal = 1;
place = (-9,111);
type = Stem;
},
{
horizontal = 1;
place = (-5,21);
target = up;
type = BottomGhost;
},
{
place = (624,133);
type = Stem;
},
{
place = (409,134);
type = Stem;
},
{
place = (393,134);
type = Stem;
},
{
place = (70,134);
type = Stem;
}
);
layerId = m01;
shapes = (
{
closed = 1;
nodes = (
(673,-9,o),
(757,66,o),
(757,167,cs),
(757,251,o),
(701,303,o),
(613,303,cs),
(588,303,o),
(560,298,o),
(534,290,c),
(536,332,o),
(543,373,o),
(543,415,cs),
(543,572,o),
(483,642,o),
(349,642,cs),
(164,642,o),
(70,505,o),
(70,237,cs),
(70,163,o),
(79,79,o),
(96,-5,c),
(227,29,l),
(212,100,o),
(204,172,o),
(204,244,cs),
(204,440,o),
(246,531,o),
(334,531,cs),
(387,531,o),
(409,493,o),
(409,407,cs),
(409,328,o),
(393,250,o),
(393,171,cs),
(393,53,o),
(450,-9,o),
(558,-9,cs)
);
},
{
closed = 1;
nodes = (
(525,102,o),
(526,148,o),
(527,179,c),
(545,188,o),
(565,192,o),
(584,192,cs),
(611,192,o),
(624,180,o),
(624,157,cs),
(624,124,o),
(602,102,o),
(568,102,cs)
);
}
);
width = 787;
}
);
note = uni1264;
unicode = 4708;
},
{
glyphname = uni1265;
lastChange = "2024-11-17 05:54:33 +0000";
layers = (
{
hints = (
{
horizontal = 1;
place = (531,111);
type = Stem;
},
{
horizontal = 1;
place = (321,109);
type = Stem;
},
{
horizontal = 1;
place = (-4,21);
target = up;
type = BottomGhost;
},
{
horizontal = 1;
place = (-5,21);
target = up;
type = BottomGhost;
},
{
place = (522,134);
type = Stem;
},
{
place = (506,134);
type = Stem;
},
{
place = (183,134);
type = Stem;
}
);
layerId = m01;
shapes = (
{
closed = 1;
nodes = (
(340,29,l),
(324,100,o),
(317,172,o),
(317,244,cs),
(317,440,o),
(359,531,o),
(447,531,cs),
(500,531,o),
(522,493,o),
(522,404,cs),
(522,316,o),
(506,228,o),
(506,140,cs),
(506,84,o),
(513,37,o),
(530,-4,c),
(661,31,l),
(649,55,o),
(640,106,o),
(640,156,cs),
(640,240,o),
(656,324,o),
(656,408,cs),
(656,571,o),
(597,642,o),
(462,642,cs),
(325,642,o),
(238,567,o),
(202,419,c),
(170,422,o),
(146,430,o),
(105,430,cs),
(82,430,o),
(48,426,o),
(17,416,c),
(43,311,l),
(82,319,o),
(107,321,o),
(121,321,cs),
(151,321,o),
(164,316,o),
(186,311,c),
(184,288,o),
(183,263,o),
(183,237,cs),
(183,163,o),
(191,79,o),
(209,-5,c)
);
}
);
width = 715;
}
);
note = uni1265;
unicode = 4709;
},
{
glyphname = uni1266;
lastChange = "2024-11-17 05:54:33 +0000";
layers = (
{
hints = (
{
horizontal = 1;
place = (531,111);
type = Stem;
},
{
horizontal = 1;
place = (-5,21);
target = up;
type = BottomGhost;
},
{
place = (409,134);
type = Stem;
},
{
place = (393,134);
type = Stem;
},
{
place = (70,134);
type = Stem;
}
);
layerId = m01;
shapes = (
{
closed = 1;
nodes = (
(227,29,l),
(212,100,o),
(204,172,o),
(204,244,cs),
(204,440,o),
(246,531,o),
(334,531,cs),
(387,531,o),
(409,493,o),
(409,407,cs),
(409,329,o),
(393,252,o),
(393,175,cs),
(393,153,o),
(397,121,o),
(403,95,c),
(534,116,l),
(529,149,o),
(527,169,o),
(527,185,cs),
(527,259,o),
(543,332,o),
(543,407,cs),
(543,571,o),
(484,642,o),
(349,642,cs),
(164,642,o),
(70,505,o),
(70,237,cs),
(70,163,o),
(79,79,o),
(96,-5,c)
);
}
);
width = 613;
}
);
note = uni1266;
unicode = 4710;
},
{
glyphname = uni1267;
kernRight = uni1202;
lastChange = "2024-11-17 05:54:33 +0000";
layers = (
{
hints = (
{
horizontal = 1;
place = (531,111);
type = Stem;
},
{
horizontal = 1;
place = (8,107);
type = Stem;
},
{
horizontal = 1;
place = (-13,108);
type = Stem;
},
{
horizontal = 1;
place = (-5,21);
target = up;
type = BottomGhost;
},
{
place = (399,134);
type = Stem;
},
{
place = (60,134);
type = Stem;
}
);
layerId = m01;
shapes = (
{
closed = 1;
nodes = (
(422,-13,o),
(493,8,o),
(565,8,cs),
(585,8,o),
(611,3,o),
(638,-5,c),
(673,101,l),
(641,110,o),
(610,115,o),
(583,115,cs),
(563,115,o),
(541,114,o),
(518,111,c),
(517,115,l),
(518,213,o),
(533,309,o),
(533,407,cs),
(533,570,o),
(474,642,o),
(340,642,cs),
(162,642,o),
(60,507,o),
(60,271,cs),
(60,208,o),
(70,142,o),
(84,96,c),
(218,120,l),
(203,162,o),
(194,218,o),
(194,273,cs),
(194,435,o),
(244,531,o),
(328,531,cs),
(377,531,o),
(399,493,o),
(399,404,cs),
(399,312,o),
(383,221,o),
(383,129,cs),
(383,117,o),
(383,106,o),
(383,95,c),
(379,95,o),
(375,95,o),
(369,95,cs),
(348,95,o),
(316,100,o),
(273,112,c),
(239,6,l),
(286,-7,o),
(322,-13,o),
(349,-13,cs)
);
}
);
width = 683;
}
);
note = uni1267;
unicode = 4711;
},
{
glyphname = uni1268;
lastChange = "2024-11-17 05:54:33 +0000";
layers = (
{
hints = (
{
horizontal = 1;
place = (654,108);
type = Stem;
},
{
horizontal = 1;
place = (634,107);
type = Stem;
},
{
horizontal = 1;
place = (479,112);
type = Stem;
},
{
horizontal = 1;
place = (-4,21);
target = up;
type = BottomGhost;
},
{
horizontal = 1;
place = (-5,21);
target = up;
type = BottomGhost;
},
{
place = (409,134);
type = Stem;
},
{
place = (393,134);
type = Stem;
},
{
place = (70,134);
type = Stem;
}
);
layerId = m01;
shapes = (
{
closed = 1;
nodes = (
(227,29,l),
(213,98,o),
(204,169,o),
(204,236,cs),
(204,403,o),
(247,479,o),
(338,479,cs),
(389,479,o),
(409,453,o),
(409,389,cs),
(409,305,o),
(393,222,o),
(393,138,cs),
(393,84,o),
(401,37,o),
(417,-4,c),
(548,31,l),
(536,55,o),
(527,106,o),
(527,153,cs),
(527,233,o),
(543,313,o),
(543,393,cs),
(543,533,o),
(488,591,o),
(354,591,cs),
(164,591,o),
(70,469,o),
(70,226,cs),
(70,160,o),
(79,78,o),
(96,-5,c)
);
},
{
closed = 1;
nodes = (
(303,634,o),
(373,654,o),
(445,654,cs),
(466,654,o),
(492,650,o),
(519,642,c),
(554,748,l),
(522,757,o),
(492,762,o),
(467,762,cs),
(395,762,o),
(324,741,o),
(252,741,cs),
(229,741,o),
(197,747,o),
(154,758,c),
(120,652,l),
(167,639,o),
(203,634,o),
(230,634,cs)
);
}
);
width = 624;
}
);
note = uni1268;
unicode = 4712;
},
{
glyphname = uni1269;
lastChange = "2024-11-17 05:54:33 +0000";
layers = (
{
hints = (
{
horizontal = 1;
place = (654,108);
type = Stem;
},
{
horizontal = 1;
place = (634,107);
type = Stem;
},
{
horizontal = 1;
place = (479,112);
type = Stem;
},
{
horizontal = 1;
place = (271,108);
type = Stem;
},
{
horizontal = 1;
place = (-4,21);
target = up;
type = BottomGhost;
},
{
horizontal = 1;
place = (-5,21);
target = up;
type = BottomGhost;
},
{
place = (387,134);
type = Stem;
},
{
place = (371,134);
type = Stem;
},
{
place = (48,134);
type = Stem;
}
);
layerId = m01;
shapes = (
{
closed = 1;
nodes = (
(205,29,l),
(191,98,o),
(182,169,o),
(182,236,cs),
(182,403,o),
(225,479,o),
(316,479,cs),
(367,479,o),
(387,453,o),
(387,389,cs),
(387,305,o),
(371,222,o),
(371,138,cs),
(371,84,o),
(379,37,o),
(395,-4,c),
(526,31,l),
(514,55,o),
(505,106,o),
(505,153,cs),
(505,190,o),
(509,227,o),
(513,264,c),
(537,265,o),
(561,271,o),
(585,271,cs),
(600,271,o),
(616,269,o),
(664,258,c),
(690,363,l),
(659,373,o),
(627,379,o),
(601,379,cs),
(574,379,o),
(548,374,o),
(521,372,c),
(521,379,o),
(521,386,o),
(521,393,cs),
(521,533,o),
(466,591,o),
(332,591,cs),
(142,591,o),
(48,469,o),
(48,226,cs),
(48,160,o),
(57,78,o),
(74,-5,c)
);
},
{
closed = 1;
nodes = (
(303,634,o),
(373,654,o),
(445,654,cs),
(466,654,o),
(492,650,o),
(519,642,c),
(554,748,l),
(522,757,o),
(492,762,o),
(467,762,cs),
(395,762,o),
(324,741,o),
(252,741,cs),
(229,741,o),
(197,747,o),
(154,758,c),
(120,652,l),
(167,639,o),
(203,634,o),
(230,634,cs)
);
}
);
width = 716;
}
);
note = uni1269;
unicode = 4713;
},
{
glyphname = uni126A;
kernRight = uni120A;
lastChange = "2024-11-17 05:54:33 +0000";
layers = (
{
hints = (
{
horizontal = 1;
place = (654,108);
type = Stem;
},
{
horizontal = 1;
place = (634,107);
type = Stem;
},
{
horizontal = 1;
place = (479,112);
type = Stem;
},
{
horizontal = 1;
place = (7,111);
type = Stem;
},
{
horizontal = 1;
place = (-9,111);
type = Stem;
},
{
horizontal = 1;
place = (-5,21);
target = up;
type = BottomGhost;
},
{
place = (409,134);
type = Stem;
},
{
place = (393,133);
type = Stem;
},
{
place = (70,134);
type = Stem;
}
);
layerId = m01;
shapes = (
{
closed = 1;
nodes = (
(591,-9,o),
(628,7,o),
(663,7,cs),
(674,7,o),
(691,2,o),
(714,-9,c),
(761,91,l),
(729,110,o),
(699,118,o),
(671,118,cs),
(632,118,o),
(597,102,o),
(560,102,cs),
(534,102,o),
(526,119,o),
(526,177,cs),
(526,250,o),
(543,323,o),
(543,396,cs),
(543,534,o),
(487,591,o),
(355,591,cs),
(164,591,o),
(70,469,o),
(70,226,cs),
(70,160,o),
(79,78,o),
(96,-5,c),
(227,29,l),
(213,98,o),
(204,169,o),
(204,236,cs),
(204,403,o),
(247,479,o),
(338,479,cs),
(389,479,o),
(409,453,o),
(409,389,cs),
(409,316,o),
(393,244,o),
(393,171,cs),
(393,45,o),
(440,-9,o),
(549,-9,cs)
);
},
{
closed = 1;
nodes = (
(303,634,o),
(373,654,o),
(445,654,cs),
(466,654,o),
(492,650,o),
(519,642,c),
(554,748,l),
(522,757,o),
(492,762,o),
(467,762,cs),
(395,762,o),
(324,741,o),
(252,741,cs),
(229,741,o),
(197,747,o),
(154,758,c),
(120,652,l),
(167,639,o),
(203,634,o),
(230,634,cs)
);
}
);
width = 781;
}
);
note = uni126A;
unicode = 4714;
},
{
glyphname = uni126B;
lastChange = "2024-11-17 05:54:33 +0000";
layers = (
{
hints = (
{
horizontal = 1;
place = (654,108);
type = Stem;
},
{
horizontal = 1;
place = (634,107);
type = Stem;
},
{
horizontal = 1;
place = (479,112);
type = Stem;
},
{
horizontal = 1;
place = (-4,21);
target = up;
type = BottomGhost;
},
{
place = (409,134);
type = Stem;
},
{
place = (393,134);
type = Stem;
},
{
place = (70,134);
type = Stem;
}
);
layerId = m01;
shapes = (
{
closed = 1;
nodes = (
(548,31,l),
(536,55,o),
(527,106,o),
(527,155,cs),
(527,235,o),
(543,315,o),
(543,395,cs),
(543,533,o),
(488,591,o),
(354,591,cs),
(163,591,o),
(70,468,o),
(70,221,cs),
(70,184,o),
(73,144,o),
(77,96,c),
(210,125,l),
(207,162,o),
(204,206,o),
(204,232,cs),
(204,404,o),
(247,479,o),
(338,479,cs),
(389,479,o),
(409,453,o),
(409,390,cs),
(409,306,o),
(393,223,o),
(393,139,cs),
(393,84,o),
(401,37,o),
(417,-4,c)
);
},
{
closed = 1;
nodes = (
(303,634,o),
(373,654,o),
(445,654,cs),
(466,654,o),
(492,650,o),
(519,642,c),
(554,748,l),
(522,757,o),
(492,762,o),
(467,762,cs),
(395,762,o),
(324,741,o),
(252,741,cs),
(229,741,o),
(197,747,o),
(154,758,c),
(120,652,l),
(167,639,o),
(203,634,o),
(230,634,cs)
);
}
);
width = 624;
}
);
note = uni126B;
unicode = 4715;
},
{
glyphname = uni126C;
kernRight = uni1202;
lastChange = "2024-11-17 05:54:33 +0000";
layers = (
{
hints = (
{
horizontal = 1;
place = (654,108);
type = Stem;
},
{
horizontal = 1;
place = (634,107);
type = Stem;
},
{
horizontal = 1;
place = (479,112);
type = Stem;
},
{
horizontal = 1;
place = (192,111);
type = Stem;
},
{
horizontal = 1;
place = (-9,111);
type = Stem;
},
{
horizontal = 1;
place = (-5,21);
target = up;
type = BottomGhost;
},
{
place = (624,133);
type = Stem;
},
{
place = (409,134);
type = Stem;
},
{
place = (393,131);
type = Stem;
},
{
place = (70,134);
type = Stem;
}
);
layerId = m01;
shapes = (
{
closed = 1;
nodes = (
(672,-9,o),
(757,67,o),
(757,168,cs),
(757,251,o),
(701,303,o),
(613,303,cs),
(589,303,o),
(561,298,o),
(537,291,c),
(540,327,o),
(543,364,o),
(543,399,cs),
(543,534,o),
(487,591,o),
(355,591,cs),
(164,591,o),
(70,469,o),
(70,226,cs),
(70,160,o),
(79,78,o),
(96,-5,c),
(227,29,l),
(213,98,o),
(204,169,o),
(204,236,cs),
(204,403,o),
(247,479,o),
(338,479,cs),
(389,479,o),
(409,453,o),
(409,390,cs),
(409,319,o),
(393,250,o),
(393,179,cs),
(393,53,o),
(447,-9,o),
(556,-9,cs)
);
},
{
closed = 1;
nodes = (
(537,102,o),
(524,119,o),
(524,159,cs),
(524,169,o),
(525,169,o),
(525,179,c),
(545,188,o),
(565,192,o),
(584,192,cs),
(611,192,o),
(624,180,o),
(624,157,cs),
(624,123,o),
(601,102,o),
(565,102,cs)
);
},
{
closed = 1;
nodes = (
(303,634,o),
(373,654,o),
(445,654,cs),
(466,654,o),
(492,650,o),
(519,642,c),
(554,748,l),
(522,757,o),
(492,762,o),
(467,762,cs),
(395,762,o),
(324,741,o),
(252,741,cs),
(229,741,o),
(197,747,o),
(154,758,c),
(120,652,l),
(167,639,o),
(203,634,o),
(230,634,cs)
);
}
);
width = 787;
}
);
note = uni126C;
unicode = 4716;
},
{
glyphname = uni126D;
lastChange = "2024-11-17 05:54:33 +0000";
layers = (
{
hints = (
{
horizontal = 1;
place = (654,108);
type = Stem;
},
{
horizontal = 1;
place = (634,107);
type = Stem;
},
{
horizontal = 1;
place = (479,112);
type = Stem;
},
{
horizontal = 1;
place = (321,108);
type = Stem;
},
{
horizontal = 1;
place = (-4,21);
target = up;
type = BottomGhost;
},
{
horizontal = 1;
place = (-5,21);
target = up;
type = BottomGhost;
},
{
place = (518,134);
type = Stem;
},
{
place = (502,134);
type = Stem;
},
{
place = (179,134);
type = Stem;
}
);
layerId = m01;
shapes = (
{
closed = 1;
nodes = (
(336,29,l),
(322,98,o),
(313,169,o),
(313,236,cs),
(313,403,o),
(356,479,o),
(447,479,cs),
(498,479,o),
(518,453,o),
(518,389,cs),
(518,305,o),
(502,222,o),
(502,138,cs),
(502,84,o),
(510,37,o),
(526,-4,c),
(657,31,l),
(645,55,o),
(636,106,o),
(636,153,cs),
(636,233,o),
(652,313,o),
(652,393,cs),
(652,533,o),
(597,591,o),
(463,591,cs),
(333,591,o),
(247,533,o),
(207,419,c),
(172,421,o),
(138,429,o),
(103,429,cs),
(80,429,o),
(48,423,o),
(17,413,c),
(43,308,l),
(82,316,o),
(105,321,o),
(119,321,cs),
(141,321,o),
(162,314,o),
(183,309,c),
(180,283,o),
(179,256,o),
(179,226,cs),
(179,160,o),
(188,78,o),
(205,-5,c)
);
},
{
closed = 1;
nodes = (
(399,634,o),
(469,654,o),
(541,654,cs),
(562,654,o),
(588,650,o),
(615,642,c),
(650,748,l),
(618,757,o),
(588,762,o),
(563,762,cs),
(491,762,o),
(420,741,o),
(348,741,cs),
(325,741,o),
(293,747,o),
(250,758,c),
(216,652,l),
(263,639,o),
(299,634,o),
(326,634,cs)
);
}
);
width = 731;
}
);
note = uni126D;
unicode = 4717;
},
{
glyphname = uni126E;
lastChange = "2024-11-17 05:54:33 +0000";
layers = (
{
hints = (
{
horizontal = 1;
place = (654,108);
type = Stem;
},
{
horizontal = 1;
place = (634,107);
type = Stem;
},
{
horizontal = 1;
place = (479,112);
type = Stem;
},
{
horizontal = 1;
place = (-5,21);
target = up;
type = BottomGhost;
},
{
place = (409,134);
type = Stem;
},
{
place = (393,134);
type = Stem;
},
{
place = (70,134);
type = Stem;
}
);
layerId = m01;
shapes = (
{
closed = 1;
nodes = (
(227,29,l),
(213,100,o),
(204,172,o),
(204,238,cs),
(204,402,o),
(247,479,o),
(339,479,cs),
(389,479,o),
(409,454,o),
(409,390,cs),
(409,314,o),
(393,239,o),
(393,163,cs),
(393,145,o),
(395,124,o),
(402,94,c),
(535,127,l),
(529,153,o),
(527,170,o),
(527,188,cs),
(527,259,o),
(543,329,o),
(543,400,cs),
(543,534,o),
(487,591,o),
(355,591,cs),
(165,591,o),
(70,470,o),
(70,225,cs),
(70,158,o),
(79,76,o),
(96,-5,c)
);
},
{
closed = 1;
nodes = (
(303,634,o),
(373,654,o),
(445,654,cs),
(466,654,o),
(492,650,o),
(519,642,c),
(554,748,l),
(522,757,o),
(492,762,o),
(467,762,cs),
(395,762,o),
(324,741,o),
(252,741,cs),
(229,741,o),
(197,747,o),
(154,758,c),
(120,652,l),
(167,639,o),
(203,634,o),
(230,634,cs)
);
}
);
width = 618;
}
);
note = uni126E;
unicode = 4718;
},
{
glyphname = uni126F;
kernRight = uni1202;
lastChange = "2024-11-17 05:54:33 +0000";
layers = (
{
hints = (
{
horizontal = 1;
place = (654,108);
type = Stem;
},
{
horizontal = 1;
place = (634,107);
type = Stem;
},
{
horizontal = 1;
place = (479,112);
type = Stem;
},
{
horizontal = 1;
place = (11,108);
type = Stem;
},
{
horizontal = 1;
place = (-9,107);
type = Stem;
},
{
horizontal = 1;
place = (-1,21);
target = up;
type = BottomGhost;
},
{
place = (409,134);
type = Stem;
},
{
place = (393,132);
type = Stem;
},
{
place = (70,134);
type = Stem;
}
);
layerId = m01;
shapes = (
{
closed = 1;
nodes = (
(432,-9,o),
(503,11,o),
(575,11,cs),
(595,11,o),
(621,7,o),
(648,-1,c),
(683,105,l),
(651,114,o),
(620,119,o),
(593,119,cs),
(573,119,o),
(551,117,o),
(528,115,c),
(526,128,o),
(525,142,o),
(525,157,cs),
(525,230,o),
(543,326,o),
(543,395,cs),
(543,533,o),
(488,591,o),
(354,591,cs),
(163,591,o),
(70,468,o),
(70,221,cs),
(70,184,o),
(73,144,o),
(77,96,c),
(210,125,l),
(207,162,o),
(204,206,o),
(204,232,cs),
(204,404,o),
(247,479,o),
(338,479,cs),
(389,479,o),
(409,453,o),
(409,390,cs),
(409,304,o),
(393,219,o),
(393,133,cs),
(393,121,o),
(393,109,o),
(393,99,c),
(389,99,o),
(385,98,o),
(379,98,cs),
(358,98,o),
(326,104,o),
(283,115,c),
(249,9,l),
(296,-4,o),
(332,-9,o),
(359,-9,cs)
);
},
{
closed = 1;
nodes = (
(303,634,o),
(373,654,o),
(445,654,cs),
(466,654,o),
(492,650,o),
(519,642,c),
(554,748,l),
(522,757,o),
(492,762,o),
(467,762,cs),
(395,762,o),
(324,741,o),
(252,741,cs),
(229,741,o),
(197,747,o),
(154,758,c),
(120,652,l),
(167,639,o),
(203,634,o),
(230,634,cs)
);
}
);
width = 703;
}
);
note = uni126F;
unicode = 4719;
},
{
glyphname = uni1270;
lastChange = "2024-11-17 05:54:33 +0000";
layers = (
{
hints = (
{
horizontal = 1;
place = (338,113);
type = Stem;
},
{
horizontal = 1;
place = (317,113);
type = Stem;
},
{
horizontal = 1;
place = (-5,21);
target = up;
type = BottomGhost;
},
{
place = (242,133);
type = Stem;
},
{
place = (221,133);
type = Stem;
}
);
layerId = m01;
shapes = (
{
closed = 1;
nodes = (
(370,31,l),
(361,68,o),
(354,125,o),
(354,175,cs),
(354,226,o),
(360,282,o),
(366,333,c),
(407,336,o),
(439,338,o),
(461,338,cs),
(491,338,o),
(519,333,o),
(550,326,c),
(584,438,l),
(549,446,o),
(517,451,o),
(486,451,cs),
(460,451,o),
(426,449,o),
(375,445,c),
(376,462,o),
(375,487,o),
(372,515,cs),
(367,556,o),
(358,603,o),
(346,638,c),
(221,602,l),
(230,568,o),
(236,538,o),
(239,509,cs),
(242,484,o),
(242,459,o),
(242,434,c),
(199,431,o),
(190,430,o),
(169,430,cs),
(141,430,o),
(108,436,o),
(64,447,c),
(30,335,l),
(78,322,o),
(116,317,o),
(155,317,cs),
(176,317,o),
(203,318,o),
(231,320,c),
(225,267,o),
(221,215,o),
(221,161,cs),
(221,98,o),
(230,36,o),
(246,-5,c)
);
}
);
width = 614;
}
);
note = uni1270;
unicode = 4720;
},
{
glyphname = uni1271;
lastChange = "2024-11-17 05:54:33 +0000";
layers = (
{
hints = (
{
horizontal = 1;
place = (332,113);
type = Stem;
},
{
horizontal = 1;
place = (311,114);
type = Stem;
},
{
horizontal = 1;
place = (167,109);
type = Stem;
},
{
horizontal = 1;
place = (-5,21);
target = up;
type = BottomGhost;
},
{
place = (242,133);
type = Stem;
},
{
place = (221,134);
type = Stem;
}
);
layerId = m01;
shapes = (
{
closed = 1;
nodes = (
(371,31,l),
(362,63,o),
(356,110,o),
(355,157,c),
(385,159,o),
(414,167,o),
(444,167,cs),
(465,167,o),
(490,163,o),
(525,154,c),
(551,259,l),
(515,271,o),
(484,276,o),
(460,276,cs),
(426,276,o),
(394,268,o),
(360,265,c),
(362,286,o),
(364,306,o),
(366,327,c),
(409,330,o),
(442,332,o),
(464,332,cs),
(493,332,o),
(521,327,o),
(550,320,c),
(583,432,l),
(551,440,o),
(519,445,o),
(486,445,cs),
(459,445,o),
(424,443,o),
(375,439,c),
(377,462,o),
(374,498,o),
(371,528,cs),
(366,569,o),
(357,606,o),
(346,638,c),
(221,602,l),
(228,575,o),
(233,550,o),
(237,526,cs),
(241,493,o),
(242,461,o),
(242,428,c),
(204,425,o),
(192,425,o),
(170,425,cs),
(141,425,o),
(108,430,o),
(64,442,c),
(30,330,l),
(78,317,o),
(116,311,o),
(153,311,cs),
(173,311,o),
(202,312,o),
(231,315,c),
(226,264,o),
(221,213,o),
(221,161,cs),
(221,100,o),
(230,37,o),
(246,-5,c)
);
}
);
width = 613;
}
);
note = uni1271;
unicode = 4721;
},
{
glyphname = uni1272;
lastChange = "2024-11-17 05:54:33 +0000";
layers = (
{
hints = (
{
horizontal = 1;
place = (332,113);
type = Stem;
},
{
horizontal = 1;
place = (311,114);
type = Stem;
},
{
horizontal = 1;
place = (7,111);
type = Stem;
},
{
horizontal = 1;
place = (-9,111);
type = Stem;
},
{
place = (242,133);
type = Stem;
},
{
place = (221,133);
type = Stem;
}
);
layerId = m01;
shapes = (
{
closed = 1;
nodes = (
(419,-9,o),
(456,7,o),
(491,7,cs),
(502,7,o),
(519,2,o),
(542,-9,c),
(589,91,l),
(557,110,o),
(527,118,o),
(499,118,cs),
(460,118,o),
(425,102,o),
(388,102,cs),
(362,102,o),
(354,118,o),
(354,168,cs),
(354,221,o),
(361,274,o),
(367,327,c),
(409,330,o),
(442,332,o),
(464,332,cs),
(493,332,o),
(521,327,o),
(550,320,c),
(583,432,l),
(551,440,o),
(519,445,o),
(486,445,cs),
(459,445,o),
(424,443,o),
(375,439,c),
(377,462,o),
(374,499,o),
(370,529,cs),
(365,569,o),
(357,606,o),
(346,638,c),
(221,602,l),
(229,571,o),
(235,542,o),
(238,516,cs),
(242,486,o),
(242,457,o),
(242,428,c),
(204,425,o),
(192,425,o),
(170,425,cs),
(141,425,o),
(108,430,o),
(64,442,c),
(30,330,l),
(78,317,o),
(116,311,o),
(153,311,cs),
(173,311,o),
(201,312,o),
(232,315,c),
(223,233,o),
(221,201,o),
(221,172,cs),
(221,45,o),
(268,-9,o),
(377,-9,cs)
);
}
);
width = 614;
}
);
note = uni1272;
unicode = 4722;
},
{
glyphname = uni1273;
lastChange = "2024-11-17 05:54:33 +0000";
layers = (
{
hints = (
{
horizontal = 1;
place = (375,114);
type = Stem;
},
{
horizontal = 1;
place = (355,113);
type = Stem;
},
{
horizontal = 1;
place = (-5,21);
target = up;
type = BottomGhost;
},
{
place = (258,132);
type = Stem;
},
{
place = (33,134);
type = Stem;
}
);
layerId = m01;
shapes = (
{
closed = 1;
nodes = (
(178,29,l),
(172,48,o),
(167,65,o),
(167,72,cs),
(167,92,o),
(188,106,o),
(244,125,cs),
(363,162,o),
(390,215,o),
(390,371,c),
(429,375,o),
(450,375,o),
(470,375,cs),
(503,375,o),
(526,372,o),
(558,362,c),
(592,476,l),
(553,484,o),
(519,489,o),
(488,489,cs),
(463,489,o),
(432,487,o),
(392,483,c),
(392,534,o),
(399,581,o),
(408,631,c),
(281,650,l),
(261,581,o),
(259,525,o),
(259,471,c),
(203,468,o),
(206,468,o),
(190,468,cs),
(160,468,o),
(126,473,o),
(84,485,c),
(50,373,l),
(98,360,o),
(135,355,o),
(172,355,cs),
(193,355,o),
(221,356,o),
(258,359,c),
(258,278,o),
(264,246,o),
(174,219,cs),
(79,192,o),
(33,143,o),
(33,72,cs),
(33,52,o),
(38,33,o),
(50,-5,c)
);
}
);
width = 662;
}
);
note = uni1273;
unicode = 4723;
},
{
glyphname = uni1274;
lastChange = "2024-11-17 05:54:33 +0000";
layers = (
{
hints = (
{
horizontal = 1;
place = (345,114);
type = Stem;
},
{
horizontal = 1;
place = (324,114);
type = Stem;
},
{
horizontal = 1;
place = (173,111);
type = Stem;
},
{
horizontal = 1;
place = (-9,111);
type = Stem;
},
{
place = (452,133);
type = Stem;
},
{
place = (242,133);
type = Stem;
},
{
place = (221,132);
type = Stem;
}
);
layerId = m01;
shapes = (
{
closed = 1;
nodes = (
(492,-9,o),
(585,48,o),
(585,151,cs),
(585,234,o),
(527,284,o),
(439,284,cs),
(412,284,o),
(385,280,o),
(358,270,c),
(361,299,o),
(363,315,o),
(365,340,c),
(400,343,o),
(433,345,o),
(467,345,cs),
(488,345,o),
(512,343,o),
(550,332,c),
(583,444,l),
(541,457,o),
(514,459,o),
(491,459,cs),
(451,459,o),
(413,455,o),
(375,452,c),
(375,457,o),
(375,462,o),
(375,470,cs),
(375,519,o),
(369,575,o),
(346,638,c),
(221,602,l),
(236,547,o),
(242,499,o),
(242,458,cs),
(242,449,o),
(242,445,o),
(241,441,c),
(219,439,o),
(197,438,o),
(177,438,cs),
(143,438,o),
(107,443,o),
(64,455,c),
(30,343,l),
(73,331,o),
(112,324,o),
(144,324,cs),
(173,324,o),
(203,326,o),
(231,328,c),
(226,279,o),
(221,222,o),
(221,177,cs),
(221,60,o),
(254,-9,o),
(381,-9,cs)
);
},
{
closed = 1;
nodes = (
(362,102,o),
(353,120,o),
(353,151,cs),
(353,154,o),
(353,157,o),
(354,160,c),
(371,168,o),
(391,173,o),
(410,173,cs),
(433,173,o),
(452,165,o),
(452,143,cs),
(452,114,o),
(425,102,o),
(395,102,cs)
);
}
);
width = 625;
}
);
note = uni1274;
unicode = 4724;
},
{
glyphname = uni1275;
lastChange = "2024-11-17 05:54:33 +0000";
layers = (
{
hints = (
{
horizontal = 1;
place = (705,-20);
target = down;
type = TopGhost;
},
{
horizontal = 1;
place = (492,117);
type = Stem;
},
{
horizontal = 1;
place = (322,114);
type = Stem;
},
{
horizontal = 1;
place = (302,113);
type = Stem;
},
{
horizontal = 1;
place = (-5,21);
target = up;
type = BottomGhost;
},
{
place = (252,133);
type = Stem;
},
{
place = (231,133);
type = Stem;
}
);
layerId = m01;
shapes = (
{
closed = 1;
nodes = (
(380,31,l),
(371,68,o),
(364,127,o),
(364,182,cs),
(364,215,o),
(366,246,o),
(374,317,c),
(412,320,o),
(447,322,o),
(471,322,cs),
(498,322,o),
(526,318,o),
(557,311,c),
(591,423,l),
(556,431,o),
(524,436,o),
(493,436,cs),
(467,436,o),
(433,434,o),
(383,430,c),
(385,461,o),
(385,477,o),
(385,503,cs),
(385,584,o),
(367,609,o),
(303,609,cs),
(272,609,o),
(242,603,o),
(211,598,c),
(208,631,o),
(200,671,o),
(189,705,c),
(65,670,l),
(72,632,o),
(78,594,o),
(82,556,cs),
(88,501,o),
(99,479,o),
(143,479,cs),
(180,479,o),
(206,488,o),
(228,492,cs),
(245,495,o),
(252,490,o),
(252,470,cs),
(252,457,o),
(251,436,o),
(250,419,c),
(202,415,o),
(196,415,o),
(179,415,cs),
(148,415,o),
(115,420,o),
(71,432,c),
(37,320,l),
(85,307,o),
(123,302,o),
(162,302,cs),
(182,302,o),
(212,303,o),
(240,305,c),
(235,258,o),
(231,216,o),
(231,163,cs),
(231,99,o),
(240,36,o),
(256,-5,c)
);
}
);
width = 621;
}
);
note = uni1275;
unicode = 4725;
},
{
glyphname = uni1276;
lastChange = "2024-11-17 05:54:33 +0000";
layers = (
{
hints = (
{
horizontal = 1;
place = (619,112);
type = Stem;
},
{
horizontal = 1;
place = (284,113);
type = Stem;
},
{
horizontal = 1;
place = (272,113);
type = Stem;
},
{
horizontal = 1;
place = (-5,21);
target = up;
type = BottomGhost;
},
{
place = (355,132);
type = Stem;
},
{
place = (238,134);
type = Stem;
},
{
place = (223,133);
type = Stem;
},
{
place = (140,132);
type = Stem;
}
);
layerId = m01;
shapes = (
{
closed = 1;
nodes = (
(377,31,l),
(361,95,o),
(356,147,o),
(356,197,cs),
(356,227,o),
(358,257,o),
(360,284,c),
(402,288,o),
(437,290,o),
(464,289,cs),
(493,288,o),
(521,285,o),
(550,277,c),
(583,389,l),
(551,398,o),
(519,402,o),
(486,403,cs),
(459,404,o),
(422,402,o),
(372,397,c),
(372,410,o),
(371,421,o),
(368,431,c),
(447,475,o),
(487,532,o),
(487,598,cs),
(487,680,o),
(424,731,o),
(320,731,cs),
(211,731,o),
(140,674,o),
(140,588,cs),
(140,488,o),
(238,449,o),
(238,393,cs),
(238,391,o),
(238,388,o),
(238,385,c),
(215,382,o),
(194,381,o),
(174,382,cs),
(141,384,o),
(108,387,o),
(64,399,c),
(30,287,l),
(78,274,o),
(115,271,o),
(149,269,cs),
(167,268,o),
(195,269,o),
(226,272,c),
(223,240,o),
(223,224,o),
(223,190,cs),
(223,119,o),
(234,51,o),
(252,-5,c)
);
},
{
closed = 1;
nodes = (
(291,543,o),
(272,566,o),
(272,588,cs),
(272,606,o),
(289,619,o),
(315,619,cs),
(341,619,o),
(355,607,o),
(355,588,cs),
(355,565,o),
(340,541,o),
(312,519,c)
);
}
);
width = 613;
}
);
note = uni1276;
unicode = 4726;
},
{
glyphname = uni1277;
lastChange = "2024-11-17 05:54:33 +0000";
layers = (
{
hints = (
{
horizontal = 1;
place = (327,114);
type = Stem;
},
{
horizontal = 1;
place = (306,114);
type = Stem;
},
{
horizontal = 1;
place = (11,108);
type = Stem;
},
{
horizontal = 1;
place = (-9,108);
type = Stem;
},
{
horizontal = 1;
place = (-1,21);
target = up;
type = BottomGhost;
},
{
place = (242,133);
type = Stem;
},
{
place = (221,133);
type = Stem;
}
);
layerId = m01;
shapes = (
{
closed = 1;
nodes = (
(262,-9,o),
(333,11,o),
(405,11,cs),
(425,11,o),
(451,7,o),
(478,-1,c),
(513,105,l),
(481,114,o),
(450,119,o),
(422,119,cs),
(402,119,o),
(381,118,o),
(357,114,c),
(354,145,o),
(354,151,o),
(354,176,cs),
(354,225,o),
(360,273,o),
(365,322,c),
(409,326,o),
(442,327,o),
(464,327,cs),
(493,327,o),
(521,323,o),
(550,315,c),
(583,427,l),
(551,436,o),
(519,441,o),
(487,441,cs),
(459,441,o),
(424,439,o),
(375,434,c),
(376,451,o),
(375,446,o),
(375,446,c),
(375,517,o),
(365,586,o),
(346,638,c),
(221,602,l),
(236,546,o),
(242,499,o),
(242,454,cs),
(242,441,o),
(242,431,o),
(242,423,c),
(204,420,o),
(192,420,o),
(171,420,cs),
(141,420,o),
(108,425,o),
(64,437,c),
(30,325,l),
(78,312,o),
(116,306,o),
(153,306,cs),
(173,306,o),
(201,308,o),
(231,310,c),
(226,264,o),
(221,222,o),
(221,170,cs),
(221,144,o),
(222,120,o),
(224,99,c),
(213,97,o),
(193,99,o),
(171,103,cs),
(152,106,o),
(131,111,o),
(113,115,c),
(79,9,l),
(126,-4,o),
(162,-9,o),
(189,-9,cs)
);
}
);
width = 613;
}
);
note = uni1277;
unicode = 4727;
},
{
glyphname = uni1278;
lastChange = "2024-11-17 05:54:33 +0000";
layers = (
{
hints = (
{
horizontal = 1;
place = (561,108);
type = Stem;
},
{
horizontal = 1;
place = (540,108);
type = Stem;
},
{
horizontal = 1;
place = (327,114);
type = Stem;
},
{
horizontal = 1;
place = (306,114);
type = Stem;
},
{
horizontal = 1;
place = (-5,21);
target = up;
type = BottomGhost;
},
{
place = (238,129);
type = Stem;
},
{
place = (221,133);
type = Stem;
}
);
layerId = m01;
shapes = (
{
closed = 1;
nodes = (
(371,31,l),
(361,68,o),
(354,123,o),
(354,174,cs),
(354,224,o),
(360,273,o),
(365,322,c),
(409,326,o),
(442,327,o),
(464,327,cs),
(493,327,o),
(521,323,o),
(550,315,c),
(583,427,l),
(551,436,o),
(519,441,o),
(486,441,cs),
(459,441,o),
(424,439,o),
(375,434,c),
(378,474,o),
(375,518,o),
(368,559,c),
(383,560,o),
(395,561,o),
(407,561,cs),
(429,561,o),
(456,556,o),
(483,549,c),
(518,655,l),
(486,664,o),
(456,669,o),
(431,669,cs),
(359,669,o),
(288,648,o),
(216,648,cs),
(193,648,o),
(161,653,o),
(118,665,c),
(84,559,l),
(132,546,o),
(168,540,o),
(201,540,cs),
(212,540,o),
(223,541,o),
(235,542,c),
(241,502,o),
(243,463,o),
(242,423,c),
(204,420,o),
(192,420,o),
(170,420,cs),
(141,420,o),
(108,425,o),
(64,437,c),
(30,325,l),
(78,312,o),
(116,306,o),
(153,306,cs),
(173,306,o),
(201,308,o),
(231,310,c),
(226,264,o),
(221,219,o),
(221,162,cs),
(221,100,o),
(230,37,o),
(246,-5,c)
);
}
);
width = 613;
}
);
note = uni1278;
unicode = 4728;
},
{
glyphname = uni1279;
lastChange = "2024-11-17 05:54:33 +0000";
layers = (
{
hints = (
{
horizontal = 1;
place = (561,108);
type = Stem;
},
{
horizontal = 1;
place = (540,108);
type = Stem;
},
{
horizontal = 1;
place = (327,114);
type = Stem;
},
{
horizontal = 1;
place = (306,114);
type = Stem;
},
{
horizontal = 1;
place = (167,109);
type = Stem;
},
{
horizontal = 1;
place = (-5,21);
target = up;
type = BottomGhost;
},
{
place = (243,132);
type = Stem;
},
{
place = (231,132);
type = Stem;
},
{
place = (219,136);
type = Stem;
}
);
layerId = m01;
shapes = (
{
closed = 1;
nodes = (
(371,31,l),
(362,63,o),
(356,110,o),
(355,157,c),
(385,159,o),
(414,167,o),
(444,167,cs),
(465,167,o),
(490,163,o),
(525,154,c),
(551,259,l),
(515,271,o),
(484,276,o),
(459,276,cs),
(426,276,o),
(393,268,o),
(360,266,c),
(361,285,o),
(364,303,o),
(366,322,c),
(409,326,o),
(442,327,o),
(464,327,cs),
(493,327,o),
(521,323,o),
(550,315,c),
(583,427,l),
(551,436,o),
(519,441,o),
(486,441,cs),
(459,441,o),
(425,439,o),
(375,434,c),
(378,476,o),
(376,518,o),
(369,559,c),
(382,560,o),
(396,561,o),
(407,561,cs),
(429,561,o),
(456,556,o),
(483,549,c),
(518,655,l),
(486,664,o),
(456,669,o),
(431,669,cs),
(359,669,o),
(288,648,o),
(216,648,cs),
(193,648,o),
(161,653,o),
(118,665,c),
(84,559,l),
(132,546,o),
(168,540,o),
(201,540,cs),
(212,540,o),
(223,541,o),
(235,542,c),
(242,503,o),
(245,463,o),
(243,423,c),
(205,421,o),
(192,420,o),
(170,420,cs),
(141,420,o),
(108,425,o),
(64,437,c),
(30,325,l),
(78,312,o),
(116,306,o),
(153,306,cs),
(173,306,o),
(201,308,o),
(231,310,c),
(219,200,o),
(207,102,o),
(246,-5,c)
);
}
);
width = 613;
}
);
note = uni1279;
unicode = 4729;
},
{
glyphname = uni127A;
lastChange = "2024-11-17 05:54:33 +0000";
layers = (
{
hints = (
{
horizontal = 1;
place = (561,108);
type = Stem;
},
{
horizontal = 1;
place = (540,108);
type = Stem;
},
{
horizontal = 1;
place = (327,114);
type = Stem;
},
{
horizontal = 1;
place = (306,114);
type = Stem;
},
{
horizontal = 1;
place = (7,111);
type = Stem;
},
{
horizontal = 1;
place = (-9,111);
type = Stem;
},
{
place = (243,132);
type = Stem;
},
{
place = (221,133);
type = Stem;
}
);
layerId = m01;
shapes = (
{
closed = 1;
nodes = (
(419,-9,o),
(456,7,o),
(479,7,cs),
(502,7,o),
(519,2,o),
(542,-9,c),
(589,91,l),
(557,110,o),
(527,118,o),
(495,118,cs),
(460,118,o),
(425,102,o),
(394,102,cs),
(362,102,o),
(354,118,o),
(354,168,cs),
(354,220,o),
(361,271,o),
(367,322,c),
(409,326,o),
(442,327,o),
(464,327,cs),
(493,327,o),
(521,323,o),
(550,315,c),
(583,427,l),
(551,436,o),
(519,441,o),
(486,441,cs),
(459,441,o),
(425,439,o),
(375,434,c),
(378,476,o),
(376,518,o),
(369,559,c),
(382,560,o),
(396,561,o),
(407,561,cs),
(429,561,o),
(456,556,o),
(483,549,c),
(518,655,l),
(486,664,o),
(456,669,o),
(431,669,cs),
(359,669,o),
(288,648,o),
(216,648,cs),
(193,648,o),
(161,653,o),
(118,665,c),
(84,559,l),
(132,546,o),
(168,540,o),
(201,540,cs),
(212,540,o),
(223,541,o),
(235,542,c),
(242,503,o),
(245,463,o),
(243,423,c),
(205,421,o),
(192,420,o),
(170,420,cs),
(141,420,o),
(108,425,o),
(64,437,c),
(30,325,l),
(78,312,o),
(116,306,o),
(153,306,cs),
(173,306,o),
(202,308,o),
(232,310,c),
(226,260,o),
(221,211,o),
(221,170,cs),
(221,45,o),
(268,-9,o),
(377,-9,cs)
);
}
);
width = 619;
}
);
note = uni127A;
unicode = 4730;
},
